<?xml version="1.0" encoding="utf-8"?>
<!-- Generator: Adobe Illustrator 27.5.0, SVG Export Plug-In . SVG Version: 6.00 Build 0)  -->
<svg version="1.1" xmlns="http://www.w3.org/2000/svg" xmlns:xlink="http://www.w3.org/1999/xlink" x="0px" y="0px"
	 viewBox="0 0 500 500" style="enable-background:new 0 0 500 500;" xml:space="preserve">
<g id="Floor">
	<ellipse id="Floor_4_" style="fill:#F5F5F5;" cx="250" cy="344.134" rx="242.11" ry="139.783"/>
</g>
<g id="Shadows">
	<ellipse id="Shadow_44_" style="fill:#E0E0E0;" cx="368.675" cy="393.32" rx="62.531" ry="36.102"/>
	<ellipse id="Shadow_45_" style="fill:#E0E0E0;" cx="217.559" cy="396.257" rx="63.126" ry="36.446"/>
	<path id="Shadow_30_" style="fill:#E0E0E0;" d="M447.48,398.022l16.956-9.79c1.504-0.868,1.504-2.276,0-3.144l-55.859-32.25
		c-1.504-0.868-3.942-0.868-5.446,0l-16.956,9.79c-1.504,0.868-1.504,2.276,0,3.144l55.859,32.251
		C443.538,398.891,445.976,398.891,447.48,398.022z"/>
	<polygon id="Shadow_6_" style="fill:#E0E0E0;" points="125.358,402.247 28.497,346.351 229.48,230.313 326.341,286.21 	"/>
</g>
<g id="Briefcase">
	<g id="Briefcase_1_">
		<g id="XMLID_2864_">
			<g id="XMLID_2998_">
				<path id="XMLID_3000_" style="fill:#27DEBF;" d="M458.499,333.308v46.21c0,2.313-1.636,5.158-3.636,6.335l-4.366,2.521
					c-1.386,0.802-3.376,1.052-5.137,0.75c-0.771-0.125-1.5-0.354-2.115-0.698c-0.042-0.01-0.073-0.031-0.104-0.052l-0.271-0.156
					l-51.29-29.613c-3.748-2.164-6.056-6.162-6.056-10.49l-0.002-43.45c0-0.99,0.698-2.198,1.563-2.699l8.565-4.939
					c0.854-0.5,2.251-0.5,3.105,0l58.181,33.592c0.438,0.24,0.823,0.677,1.104,1.157
					C458.322,332.266,458.499,332.818,458.499,333.308z"/>
				<path id="XMLID_2999_" style="opacity:0.2;" d="M458.499,333.308v46.21c0,2.313-1.636,5.158-3.636,6.335l-4.366,2.521
					c-1.386,0.802-3.376,1.052-5.137,0.75c-0.771-0.125-1.5-0.354-2.115-0.698v-0.021c2.001,0.938,3.574-0.104,3.574-2.469v-44.959
					c0-0.75-0.26-1.584-0.688-2.323l11.909-6.877C458.322,332.266,458.499,332.818,458.499,333.308z"/>
			</g>
			<path id="XMLID_2997_" style="opacity:0.3;" d="M446.821,340.976c0-1.495-1.06-3.331-2.355-4.078l-54.99-31.749
				c-2.174-1.255-3.952-0.228-3.952,2.282l-0.004,40.679c0,4.328,2.308,8.327,6.056,10.491l51.293,29.616
				c2.173,1.255,3.952,0.228,3.952-2.281V340.976z"/>
			<path id="XMLID_2984_" style="opacity:0.6;fill:#27DEBF;" d="M385.522,319.726c0,2.865,2.03,6.382,4.512,7.815l52.276,30.182
				c2.482,1.433,4.512,0.26,4.512-2.605v-15.452c0-0.887,0.473-1.706,1.241-2.149l8.015-4.608l-60.428-35.882l-8.886,5.103
				c-0.768,0.443-1.242,1.263-1.242,2.15V319.726z"/>
			<path id="XMLID_2981_" style="fill:#27DEBF;" d="M395.65,297.028l-8.886,5.103c-0.408,0.235-0.725,0.581-0.94,0.983
				l61.345,35.292c0.214-0.361,0.517-0.671,0.893-0.888l8.015-4.608L395.65,297.028z"/>
			<path id="XMLID_2868_" style="fill:#37474F;" d="M412.087,336.803l8.136,4.698c1.246,0.719,2.264,2.469,2.274,3.907l0.013,1.855
				c0.01,1.439-0.992,2.022-2.238,1.302l-8.186-4.726c-1.246-0.719-2.256-2.469-2.256-3.907l0-1.827
				C409.832,336.667,410.842,336.083,412.087,336.803z"/>
		</g>
		<g id="XMLID_1877_">
			<path id="XMLID_2861_" style="fill:#263238;" d="M415.557,305.067v6.436l-3.714,2.146v-9.812c0-0.508,0.352-0.709,0.791-0.457
				L415.557,305.067z"/>
			<path id="XMLID_1981_" style="fill:#455A64;" d="M435.04,311.892v11.962l-2.758,1.597l-1.857-1.075v-9.812
				c0-0.503-0.357-1.121-0.791-1.372l-14.076-8.124l-2.923-1.688c-0.439-0.251-0.791-0.05-0.791,0.457v9.812l-1.862-1.075v-11.958
				c0-0.05,0.004-0.105,0.013-0.156c0.06-0.471,0.389-0.992,0.782-1.216l1.176-0.682c0.435-0.252,1.144-0.252,1.583,0l20.714,11.958
				C434.688,310.776,435.04,311.389,435.04,311.892z"/>
			<path id="XMLID_1979_" style="fill:#37474F;" d="M432.282,313.489v11.962l-1.857-1.075v-9.812c0-0.503-0.357-1.121-0.791-1.372
				l-14.076-8.124l-2.923-1.688c-0.439-0.251-0.791-0.05-0.791,0.457v9.812l-1.862-1.075v-11.958c0-0.05,0.004-0.105,0.013-0.156
				c0.069-0.389,0.394-0.526,0.782-0.302l20.713,11.958C431.925,312.372,432.282,312.986,432.282,313.489z"/>
		</g>
	</g>
</g>
<g id="Chair">
	<g id="Chair_3_">
		<g id="XMLID_42942_">
			<g id="XMLID_42944_">
				<g id="XMLID_42975_">
					<path id="XMLID_42977_" style="fill:#455A64;" d="M66.594,302.659c0,0.391,0.046,0.747,0.115,1.069
						c0.172,0.678,0.506,1.184,0.965,1.494l0.034,0.023c0.747,0.483,1.804,0.436,2.965-0.23c2.252-1.299,4.079-4.458,4.079-7.067
						c0-1.264-0.448-2.137-1.149-2.586l0.012-0.012l-0.195-0.115h-0.012c-0.494-0.218-1.08-0.253-1.735-0.069
						c-0.322,0.092-0.655,0.241-1,0.437C68.421,296.902,66.594,300.062,66.594,302.659z"/>
					<path id="XMLID_42976_" style="fill:#263238;" d="M67.709,293.891c0.644-0.367,1.264-0.551,1.816-0.551
						c0.425,0,0.816,0.115,1.149,0.322l0.103,0.058l2.632,1.517c-0.494-0.218-1.08-0.253-1.735-0.069
						c-0.322,0.092-0.655,0.241-1,0.437c-2.252,1.299-4.08,4.459-4.08,7.056c0,0.391,0.046,0.747,0.115,1.069
						c0.172,0.678,0.506,1.184,0.965,1.494l-2.701-1.563l-0.046-0.023l-0.23-0.138c-0.023-0.012-0.046-0.023-0.069-0.046
						c-0.62-0.46-1-1.333-1-2.505C63.629,298.35,65.456,295.19,67.709,293.891z"/>
				</g>
				<g id="XMLID_42972_">
					<path id="XMLID_42974_" style="fill:#455A64;" d="M110.725,278.928c0,0.391,0.046,0.747,0.115,1.069
						c0.172,0.678,0.506,1.184,0.965,1.494l0.034,0.023c0.747,0.482,1.804,0.437,2.965-0.23c2.252-1.298,4.079-4.458,4.079-7.067
						c0-1.264-0.448-2.137-1.149-2.586l0.011-0.012l-0.195-0.115h-0.012c-0.494-0.218-1.08-0.253-1.735-0.069
						c-0.322,0.092-0.655,0.241-1,0.437C112.552,273.171,110.725,276.331,110.725,278.928z"/>
					<path id="XMLID_42973_" style="fill:#263238;" d="M111.84,270.16c0.643-0.368,1.264-0.551,1.816-0.551
						c0.425,0,0.816,0.115,1.149,0.322l0.103,0.057l2.632,1.517c-0.494-0.218-1.08-0.253-1.735-0.069
						c-0.322,0.092-0.655,0.241-1,0.437c-2.252,1.299-4.079,4.458-4.079,7.056c0,0.391,0.046,0.747,0.115,1.069
						c0.172,0.678,0.506,1.184,0.965,1.494l-2.701-1.563l-0.046-0.023l-0.23-0.138c-0.023-0.012-0.046-0.023-0.069-0.046
						c-0.621-0.46-1-1.333-1-2.505C107.761,274.619,109.588,271.459,111.84,270.16z"/>
				</g>
				<g id="XMLID_42969_">
					<path id="XMLID_42971_" style="fill:#455A64;" d="M102.853,311.925c0,0.391-0.046,0.747-0.115,1.069
						c-0.173,0.678-0.506,1.184-0.965,1.494l-0.034,0.023c-0.747,0.483-1.804,0.436-2.965-0.23
						c-2.252-1.299-4.079-4.459-4.079-7.068c0-1.264,0.448-2.137,1.149-2.585l-0.011-0.012l0.195-0.115h0.011
						c0.494-0.218,1.08-0.253,1.735-0.069c0.322,0.092,0.655,0.241,1,0.436C101.026,306.167,102.853,309.328,102.853,311.925z"/>
					<path id="XMLID_42970_" style="fill:#263238;" d="M101.739,303.157c-0.644-0.368-1.264-0.552-1.816-0.552
						c-0.425,0-0.816,0.115-1.149,0.322l-0.104,0.058l-2.632,1.517c0.494-0.218,1.08-0.253,1.735-0.069
						c0.322,0.092,0.655,0.241,1,0.436c2.252,1.298,4.079,4.459,4.079,7.056c0,0.391-0.046,0.747-0.115,1.069
						c-0.173,0.678-0.506,1.184-0.965,1.494l2.7-1.563l0.046-0.023l0.23-0.138c0.023-0.012,0.046-0.023,0.069-0.046
						c0.621-0.46,1-1.333,1-2.505C105.818,307.615,103.991,304.455,101.739,303.157z"/>
				</g>
				<g id="XMLID_42966_">
					<path id="XMLID_42968_" style="fill:#455A64;" d="M131.5,297.893c0,0.391-0.046,0.747-0.115,1.069
						c-0.172,0.678-0.506,1.184-0.965,1.494l-0.034,0.023c-0.747,0.483-1.804,0.437-2.965-0.23
						c-2.252-1.299-4.079-4.459-4.079-7.067c0-1.264,0.448-2.137,1.149-2.586l-0.012-0.012l0.195-0.115h0.012
						c0.494-0.219,1.08-0.253,1.735-0.069c0.322,0.092,0.655,0.241,1,0.437C129.673,292.136,131.5,295.296,131.5,297.893z"/>
					<path id="XMLID_42967_" style="fill:#263238;" d="M130.386,289.125c-0.644-0.368-1.264-0.552-1.816-0.552
						c-0.425,0-0.816,0.115-1.149,0.322l-0.103,0.057l-2.632,1.517c0.494-0.219,1.08-0.253,1.735-0.069
						c0.322,0.092,0.655,0.241,1,0.437c2.252,1.298,4.079,4.458,4.079,7.056c0,0.391-0.046,0.747-0.115,1.069
						c-0.172,0.678-0.506,1.184-0.965,1.494l2.701-1.563l0.046-0.023l0.23-0.138c0.023-0.012,0.046-0.023,0.069-0.046
						c0.62-0.46,1-1.333,1-2.505C134.465,293.583,132.638,290.423,130.386,289.125z"/>
				</g>
				<g id="XMLID_42963_">
					<path id="XMLID_42965_" style="fill:#455A64;" d="M76.126,280.683c0,0.391-0.046,0.747-0.115,1.069
						c-0.173,0.678-0.506,1.183-0.965,1.494l-0.034,0.023c-0.747,0.483-1.804,0.437-2.965-0.23c-2.252-1.298-4.08-4.459-4.08-7.067
						c0-1.264,0.448-2.138,1.149-2.586l-0.011-0.011l0.195-0.115h0.012c0.494-0.218,1.08-0.253,1.735-0.069
						c0.322,0.092,0.655,0.241,1,0.437C74.299,274.925,76.126,278.085,76.126,280.683z"/>
					<path id="XMLID_42964_" style="fill:#263238;" d="M75.011,271.915c-0.643-0.368-1.264-0.552-1.815-0.552
						c-0.425,0-0.816,0.115-1.149,0.322l-0.103,0.058l-2.632,1.517c0.494-0.218,1.08-0.253,1.735-0.069
						c0.322,0.092,0.655,0.241,1,0.437c2.252,1.299,4.079,4.459,4.079,7.056c0,0.391-0.046,0.747-0.115,1.069
						c-0.173,0.678-0.506,1.183-0.965,1.494l2.701-1.563l0.046-0.023l0.23-0.138c0.023-0.011,0.046-0.023,0.069-0.046
						c0.621-0.46,1-1.333,1-2.505C79.09,276.373,77.263,273.213,75.011,271.915z"/>
				</g>
				<g id="XMLID_42960_">
					<polygon id="XMLID_42962_" style="fill:#EBEBEB;" points="100.478,272.06 115.043,267.884 115.043,270.994 100.478,279.396 
											"/>
					<polygon id="XMLID_42961_" style="fill:#F5F5F5;" points="100.478,272.06 99.042,271.18 113.65,267.188 115.043,267.884 					
						"/>
				</g>
				<g id="XMLID_42957_">
					<polygon id="XMLID_42959_" style="fill:#EBEBEB;" points="94.178,281.343 73.529,273.607 73.529,270.458 94.178,272.303 					
						"/>
					<polygon id="XMLID_42958_" style="fill:#F5F5F5;" points="73.529,270.458 75.046,270.057 95.405,271.372 94.178,272.303 					
						"/>
				</g>
				<path id="XMLID_42956_" style="fill:#FAFAFA;" d="M93.625,280.348c0,2.339,7.182,2.339,7.182,0v-20.419h-7.182V280.348z"/>
				<g id="XMLID_42952_">
					<path id="XMLID_42955_" style="fill:#F5F5F5;" d="M99.007,275.035l3.95,25.641h-2.7l-3.694-25.641
						C97.488,275.298,98.273,275.228,99.007,275.035z"/>
					<polygon id="XMLID_42954_" style="fill:#EBEBEB;" points="96.563,275.035 96.563,282.076 100.257,305.016 100.257,300.676 
											"/>
					<rect id="XMLID_42953_" x="100.257" y="300.676" style="fill:#E0E0E0;" width="2.7" height="4.34"/>
				</g>
				<g id="XMLID_42948_">
					<polygon id="XMLID_42951_" style="fill:#EBEBEB;" points="95.334,281.867 68.707,295.826 68.707,291.526 95.334,275.055 					
						"/>
					<path id="XMLID_42950_" style="fill:#F5F5F5;" d="M95.334,275.055c-0.637-0.091-1.224-0.306-1.709-0.775l-26.58,16.124
						l1.662,1.122L95.334,275.055z"/>
					<polygon id="XMLID_42949_" style="fill:#E0E0E0;" points="68.707,295.826 68.707,291.526 67.045,290.405 67.045,294.57 					
						"/>
				</g>
				<polygon id="XMLID_42947_" style="fill:#EBEBEB;" points="128.903,290.895 100.457,281.156 100.457,274.766 128.903,286.598 
									"/>
				<path id="XMLID_42946_" style="fill:#F5F5F5;" d="M100.457,274.766c0.231-0.063,0.331-0.476,0.35-1.104l28.938,12.589
					l-0.841,0.347L100.457,274.766z"/>
				<polygon id="XMLID_42945_" style="fill:#E0E0E0;" points="129.745,286.251 129.745,290.41 128.903,290.895 128.903,286.598 				
					"/>
				<rect id="XMLID_8071_" x="100.257" y="300.676" style="opacity:0.1;" width="2.7" height="4.34"/>
				<polygon id="XMLID_8070_" style="opacity:0.1;" points="68.707,295.826 68.707,291.526 67.045,290.405 67.045,294.57 				"/>
				<polygon id="XMLID_8069_" style="opacity:0.1;" points="129.745,286.251 129.745,290.41 128.903,290.895 128.903,286.598 				
					"/>
			</g>
			<path id="XMLID_42943_" style="fill:#F0F0F0;" d="M103.298,224.355H91.134v42.114c0,3.496,12.163,3.496,12.163,0L103.298,224.355
				z"/>
		</g>
		<g>
			<g>
				<path style="fill:#27DEBF;" d="M54.085,218.522l46.604-24.344c0,0,3.275-15.942-7.768-33.314c0,0,3.285-30.969-2.227-41.268
					c-4.033-7.854-8.869-6.78-8.869-6.78l-52.93,23.896L54.085,218.522z"/>
				<path style="opacity:0.2;" d="M54.085,218.522l46.604-24.344c0,0,3.275-15.942-7.768-33.314c0,0,3.285-30.969-2.227-41.268
					c-4.033-7.854-8.869-6.78-8.869-6.78l-52.93,23.896L54.085,218.522z"/>
				<path style="fill:#27DEBF;" d="M81.826,112.815l-52.93,23.896l1.74,5.65l57.886-26.134
					C85.109,112.091,81.826,112.815,81.826,112.815z"/>
				<g>
					<path style="opacity:0.4;fill:#FFFFFF;" d="M82.025,162.35c0.11,0.821,0.821,1.128,1.587,0.686
						c0.766-0.442,1.298-1.466,1.187-2.287c-0.11-0.821-0.821-1.128-1.587-0.686C82.447,160.506,81.915,161.53,82.025,162.35z"/>
					<path style="opacity:0.4;fill:#FFFFFF;" d="M73.955,167.011c0.11,0.821,0.821,1.128,1.587,0.686
						c0.766-0.442,1.298-1.466,1.187-2.287c-0.11-0.821-0.821-1.128-1.587-0.685C74.377,165.166,73.845,166.19,73.955,167.011z"/>
					<path style="opacity:0.4;fill:#FFFFFF;" d="M65.885,171.671c0.11,0.821,0.821,1.128,1.587,0.686
						c0.766-0.442,1.298-1.466,1.187-2.287c-0.11-0.821-0.821-1.128-1.587-0.686C66.307,169.826,65.775,170.85,65.885,171.671z"/>
					<path style="opacity:0.4;fill:#FFFFFF;" d="M57.815,176.331c0.11,0.821,0.821,1.128,1.587,0.686
						c0.766-0.442,1.298-1.466,1.187-2.287c-0.11-0.821-0.821-1.128-1.587-0.686C58.236,174.486,57.705,175.51,57.815,176.331z"/>
				</g>
			</g>
			<g>
				<g>
					<g>
						<path style="fill:#27DEBF;" d="M153.952,214.035v2.569c0,2.829-2.03,6.188-4.535,7.502l-51.959,27.271
							c-2.505,1.315-6.521,1.234-8.971-0.181l-29.966-17.301c-2.45-1.414-4.436-4.854-4.436-7.683v-2.569
							c0-2.829,2.033-6.184,4.54-7.493l49.176-25.688c2.507-1.31,6.591-1.345,9.12-0.079l32.45,16.237
							C151.902,207.887,153.952,211.206,153.952,214.035z"/>
						<path style="opacity:0.2;" d="M153.952,214.035v2.569c0,2.829-2.03,6.188-4.535,7.502l-51.959,27.271
							c-2.505,1.315-6.521,1.234-8.971-0.181l-29.966-17.301c-2.45-1.414-4.436-4.854-4.436-7.683v-2.569
							c0-2.829,2.033-6.184,4.54-7.493l49.176-25.688c2.507-1.31,6.591-1.345,9.12-0.079l32.45,16.237
							C151.902,207.887,153.952,211.206,153.952,214.035z"/>
						<path style="opacity:0.2;" d="M94.12,252.27c-1.987,0.164-4.111-0.198-5.634-1.072L58.519,233.9
							c-2.445-1.421-4.432-4.856-4.432-7.683v-2.575c0-2.582,1.687-5.593,3.893-7.096c-1.851,1.325-1.673,3.258,0.54,4.535
							l29.967,17.305c1.257,0.724,2.923,1.093,4.583,1.106L94.12,252.27z"/>
						<path style="fill:#27DEBF;" d="M97.458,238.565l51.959-27.272c2.505-1.315,2.484-3.406-0.045-4.672l-32.45-16.237
							c-2.53-1.266-6.613-1.23-9.12,0.079l-49.176,25.688c-2.507,1.31-2.554,3.518-0.104,4.933l29.966,17.301
							C90.937,239.798,94.953,239.879,97.458,238.565z"/>
						<path style="fill:#27DEBF;" d="M97.458,238.565l51.959-27.272c2.505-1.315,2.484-3.406-0.045-4.672l-32.45-16.237
							c-2.53-1.266-6.613-1.23-9.12,0.079l-49.176,25.688c-2.507,1.31-2.554,3.518-0.104,4.933l29.966,17.301
							C90.937,239.798,94.953,239.879,97.458,238.565z"/>
					</g>
				</g>
			</g>
			<g>
				<g>
					<path style="fill:#27DEBF;" d="M81.826,112.815c0,0,7.66-5.188,15.737-0.524c8.077,4.663,5.408,20.349,4.545,30.457
						c-0.863,10.108-1.147,27.725,5.93,34.132c7.077,6.407,30.254-2.109,40.367-2.109l-8.918,32.883
						c-9.833-5.356-25.564-10.854-38.797-13.476c0,0,0.432-20.501-8.968-32.21c0,0,3.467-8.201,1.2-24.63
						C90.824,122.132,87.986,116.372,81.826,112.815z"/>
					<path style="opacity:0.35;" d="M81.826,112.815c0,0,7.66-5.188,15.737-0.524c8.077,4.663,5.408,20.349,4.545,30.457
						c-0.863,10.108-1.147,27.725,5.93,34.132c7.077,6.407,30.254-2.109,40.367-2.109l-8.918,32.883
						c-9.833-5.356-25.564-10.854-38.797-13.476c0,0,0.432-20.501-8.968-32.21c0,0,3.467-8.201,1.2-24.63
						C90.824,122.132,87.986,116.372,81.826,112.815z"/>
				</g>
				<path style="fill:#27DEBF;" d="M139.486,207.654c-0.457-2.939-2.322-19.862,0.834-27.228c2.745-6.407,9.95-6.782,12.215-4.037
					c2.148,2.603,0.241,6.072-3.362,10.774c-3.042,3.969-4.137,7.678-4.137,17.288L139.486,207.654z"/>
				<path style="opacity:0.2;" d="M139.486,207.654c-0.457-2.939-2.322-19.862,0.834-27.228c2.745-6.407,9.95-6.782,12.215-4.037
					c2.148,2.603,0.241,6.072-3.362,10.774c-3.042,3.969-4.137,7.678-4.137,17.288L139.486,207.654z"/>
				<g style="opacity:0.5;">
					<path style="fill:#FFFFFF;" d="M148.406,177.503c1.034,0,1.773,0.324,2.021,0.624c0.798,0.968-0.258,3.242-3.424,7.374
						c-3.354,4.375-4.535,8.651-4.683,16.942c-0.005,0.262-0.145,0.504-0.366,0.631l-0.245,0.117
						c-0.701-7.585-0.774-17.265,1.122-21.689C144.094,178.553,146.54,177.503,148.406,177.503 M148.406,176.82
						c-2.085,0-4.809,1.159-6.203,4.414c-2.116,4.938-1.778,15.491-1.174,22.021c0.035,0.379,0.353,0.634,0.696,0.634
						c0.118,0,0.239-0.03,0.352-0.095l0.219-0.126c0.432-0.249,0.699-0.712,0.708-1.21c0.148-8.272,1.298-12.307,4.543-16.539
						c3.532-4.609,4.488-6.915,3.409-8.224C150.517,177.163,149.517,176.82,148.406,176.82L148.406,176.82z"/>
				</g>
			</g>
			<g>
				<g>
					<path style="fill:#27DEBF;" d="M52.155,232.927l35.985,18.07l-0.766-13.255l5.548-3.203
						c-0.399-10.278-3.216-20.821-10.49-23.158c-9.097-2.876-20.904-3.807-27.981-10.213c-7.077-6.407-6.793-24.024-5.93-34.132
						c0.863-10.108,3.532-25.793-4.545-30.457c-8.077-4.663-15.737,0.524-15.737,0.524c-3.453,2.238-7.464,3.859-7.124,6.579
						c0.198,1.58,1.053,2.48,2.455,2.768l20.08,76C44.852,226.999,47.949,230.815,52.155,232.927z"/>
					<path style="opacity:0.5;" d="M52.155,232.927l35.985,18.07l-0.766-13.255l5.548-3.203
						c-0.399-10.278-3.216-20.821-10.49-23.158c-9.097-2.876-20.904-3.807-27.981-10.213c-7.077-6.407-6.793-24.024-5.93-34.132
						c0.863-10.108,3.532-25.793-4.545-30.457c-8.077-4.663-15.737,0.524-15.737,0.524c-3.453,2.238-7.464,3.859-7.124,6.579
						c0.198,1.58,1.053,2.48,2.455,2.768l20.08,76C44.852,226.999,47.949,230.815,52.155,232.927z"/>
				</g>
				<g>
					<path style="fill:#27DEBF;" d="M38.687,145.951c3.231,3.866,4.897,10.008,4.302,25.101
						c-0.595,15.093-0.357,27.262,5.549,34.657c7.003,8.77,31.012,15.758,31.012,15.758l9.378-4.29
						c-1.591-2.814-3.717-4.905-6.495-5.797c-9.097-2.876-20.904-3.807-27.981-10.213c-7.077-6.407-6.793-24.024-5.93-34.132
						c0.863-10.108,3.532-25.793-4.545-30.457c-8.077-4.663-15.737,0.524-15.737,0.524c-3.453,2.238-7.464,3.859-7.124,6.579
						c0.198,1.58,1.053,2.48,2.455,2.768C28.069,144.971,35.455,142.085,38.687,145.951z"/>
					<path style="opacity:0.35;" d="M38.687,145.951c3.231,3.866,4.897,10.008,4.302,25.101
						c-0.595,15.093-0.357,27.262,5.549,34.657c7.003,8.77,31.012,15.758,31.012,15.758l9.378-4.29
						c-1.591-2.814-3.717-4.905-6.495-5.797c-9.097-2.876-20.904-3.807-27.981-10.213c-7.077-6.407-6.793-24.024-5.93-34.132
						c0.863-10.108,3.532-25.793-4.545-30.457c-8.077-4.663-15.737,0.524-15.737,0.524c-3.453,2.238-7.464,3.859-7.124,6.579
						c0.198,1.58,1.053,2.48,2.455,2.768C28.069,144.971,35.455,142.085,38.687,145.951z"/>
				</g>
				<path style="fill:#27DEBF;" d="M87.374,237.742l5.548-3.203c0-6.15-1.585-19.519-9.37-22.75
					c-6.18-2.565-9.163,1.205-9.096,3.531c0.076,2.62,1.965,4.346,5.092,6.148C83.689,223.853,87.374,228.132,87.374,237.742z"/>
				<path style="opacity:0.2;" d="M87.374,237.742l5.548-3.203c0-6.15-1.585-19.519-9.37-22.75c-6.18-2.565-9.163,1.205-9.096,3.531
					c0.076,2.62,1.965,4.346,5.092,6.148C83.689,223.853,87.374,228.132,87.374,237.742z"/>
				<g style="opacity:0.5;">
					<path style="fill:#FFFFFF;" d="M79.697,213.66c0.822,0,1.767,0.219,2.81,0.652c5.148,2.136,7.326,10.978,7.648,18.54
						c0.003,0.08-0.033,0.15-0.097,0.187l-0.245,0.142c-0.899-6.539-3.813-11.149-8.898-14.079
						c-3.392-1.955-3.702-3.018-3.726-3.858c0-0.004,0.026-0.402,0.453-0.843C77.969,214.063,78.593,213.66,79.697,213.66
						 M79.697,212.977c-1.343,0-2.126,0.515-2.546,0.948c-0.526,0.542-0.653,1.11-0.646,1.335c0.037,1.274,0.743,2.516,4.068,4.433
						c5.031,2.899,7.855,7.523,8.633,14.135c0.021,0.176,0.171,0.271,0.302,0.271c0.051,0,0.101-0.014,0.149-0.041l0.742-0.428
						c0.284-0.164,0.452-0.473,0.438-0.807c-0.331-7.772-2.624-16.883-8.068-19.142C81.642,213.214,80.609,212.977,79.697,212.977
						L79.697,212.977z"/>
				</g>
			</g>
		</g>
	</g>
</g>
<g id="Desk">
	<g id="Desk_2_">
		<g id="Desk_3_">
			<g id="XMLID_4054_">
				<polygon style="fill:#27DEBF;" points="125.618,297.631 42.37,249.568 230.773,140.794 314.02,188.857 				"/>
			</g>
			<polygon style="opacity:0.8;fill:#FFFFFF;" points="125.618,297.631 42.37,249.568 230.773,140.794 314.02,188.857 			"/>
			<g id="XMLID_4053_">
				<polygon style="fill:#27DEBF;" points="42.37,249.568 42.371,345.694 46.752,348.224 46.752,338.105 121.237,381.108 
					121.237,391.227 125.619,393.757 125.618,297.631 				"/>
			</g>
			<polygon style="opacity:0.6;fill:#FFFFFF;" points="42.37,249.568 42.371,345.694 46.752,348.224 46.752,338.105 
				121.237,381.108 121.237,391.227 125.619,393.757 125.618,297.631 			"/>
			<g id="XMLID_4156_">
				<polygon style="fill:#27DEBF;" points="46.752,348.224 51.134,345.694 51.134,340.634 46.752,338.105 				"/>
			</g>
			<polygon style="fill:#27DEBF;" points="46.752,348.224 51.134,345.694 51.134,340.634 46.752,338.105 			"/>
			<g id="XMLID_4051_">
				<polygon style="fill:#27DEBF;" points="125.619,393.757 130,391.227 130,381.108 309.639,277.393 309.639,287.512 
					314.021,284.983 314.02,188.857 125.618,297.631 				"/>
			</g>
			<polygon style="opacity:0.7;fill:#FFFFFF;" points="125.619,393.757 130,391.227 130,381.108 309.639,277.393 309.639,287.512 
				314.021,284.983 314.02,188.857 125.618,297.631 			"/>
			<g id="XMLID_4040_">
				<polygon style="fill:#27DEBF;" points="309.639,287.512 305.258,284.983 305.257,279.923 309.639,277.393 				"/>
			</g>
		</g>
		<g id="Shadow_49_" style="opacity:0.2;">
			<path d="M190.29,195.873l13.912,8.015c0.516,0.298,1.352,0.298,1.868,0l55.091-31.805c0.516-0.298,0.516-0.781,0-1.079
				l-13.911-8.017c-0.516-0.298-1.352-0.298-1.868,0l-55.092,31.807C189.774,195.092,189.774,195.575,190.29,195.873z"/>
		</g>
		<g id="Sheets">
			<g id="XMLID_3885_" style="opacity:0.2;">
				<path d="M136.232,213.112l34.742,20.059c0.54,0.312,1.416,0.312,1.956,0l25.568-14.762c0.54-0.312,0.54-0.817,0-1.129
					l-34.742-20.059c-0.54-0.312-1.416-0.312-1.956,0l-25.567,14.761C135.691,212.295,135.691,212.8,136.232,213.112z"/>
			</g>
			<g id="XMLID_14839_">
				<g id="XMLID_4038_">
					<path style="fill:#EBEBEB;" d="M136.231,211.302l34.742,20.059c0.54,0.312,1.416,0.312,1.956,0l25.568-14.762
						c0.54-0.312,0.54-0.817,0-1.129l-34.742-20.058c-0.54-0.312-1.416-0.312-1.956,0l-25.568,14.761
						C135.691,210.485,135.691,210.991,136.231,211.302z"/>
				</g>
				<g id="XMLID_14288_">
					<path style="fill:#E0E0E0;" d="M161.799,195.412l-24.279,14.017l33.453,19.314c0.54,0.312,1.416,0.312,1.956,0l24.279-14.017
						l-33.453-19.314C163.215,195.1,162.339,195.1,161.799,195.412z"/>
				</g>
				<g id="XMLID_4037_">
					<path style="fill:#FAFAFA;" d="M136.232,207.77l34.742,20.059c0.54,0.312,1.416,0.312,1.956,0l25.568-14.761
						c0.54-0.312,0.54-0.818,0-1.129l-34.742-20.059c-0.54-0.312-1.416-0.312-1.956,0l-25.567,14.762
						C135.691,206.953,135.691,207.459,136.232,207.77z"/>
				</g>
			</g>
		</g>
		<g id="Shadow_48_" style="opacity:0.2;">
			<path id="XMLID_3887_" d="M76.763,249.21c3.763,2.173,3.763,5.695,0,7.868c-3.763,2.173-9.865,2.173-13.628,0
				c-3.763-2.173-3.763-5.695,0-7.868C66.899,247.038,73,247.038,76.763,249.21z"/>
		</g>
		<g id="Pot">
			<g id="XMLID_14635_">
				<g id="XMLID_14299_">
					<path style="fill:#EBEBEB;" d="M75.67,253.565c3.039-3.101,4.824-10.844,1.86-13.304H62.448
						c-2.964,2.459-1.18,10.198,1.857,13.301c0.026,0.029,0.056,0.057,0.083,0.085c0.035,0.034,0.069,0.069,0.105,0.102
						c0.086,0.083,0.177,0.164,0.275,0.244c0.024,0.02,0.049,0.038,0.073,0.057c0.075,0.058,0.148,0.117,0.229,0.173
						c0.13,0.092,0.26,0.177,0.393,0.251c2.5,1.443,6.553,1.443,9.053,0l0,0h0c0.134-0.074,0.265-0.16,0.396-0.253
						c0.076-0.052,0.144-0.107,0.213-0.161c0.03-0.024,0.06-0.046,0.09-0.07c0.094-0.077,0.182-0.156,0.265-0.236
						c0.041-0.038,0.081-0.078,0.121-0.118C75.623,253.612,75.648,253.589,75.67,253.565z"/>
				</g>
				<g id="XMLID_4006_">
					<path style="fill:#FAFAFA;" d="M63.757,239.27c-3.441,1.987-3.441,5.208,0,7.195c3.441,1.987,9.021,1.987,12.462,0
						s3.441-5.208,0-7.195C72.778,237.283,67.199,237.283,63.757,239.27z"/>
				</g>
				<g id="XMLID_4005_">
					<path style="fill:#EBEBEB;" d="M66.197,240.679c-2.094,1.209-2.094,3.169,0,4.377c2.094,1.209,5.488,1.209,7.582,0
						c2.094-1.209,2.094-3.169,0-4.377C71.686,239.47,68.291,239.47,66.197,240.679z"/>
				</g>
				<g id="XMLID_4004_">
					<path style="fill:#E0E0E0;" d="M73.779,242.757c-2.094-1.209-5.488-1.209-7.582,0c-0.582,0.336-0.995,0.73-1.254,1.15
						c0.259,0.419,0.672,0.814,1.254,1.15c2.094,1.209,5.488,1.209,7.582,0c0.582-0.336,0.996-0.73,1.254-1.15
						C74.775,243.487,74.361,243.092,73.779,242.757z"/>
				</g>
			</g>
			<g id="XMLID_3987_">
				<g id="XMLID_4003_">
					<path style="fill:#27DEBF;" d="M71.357,244.382c0,0,3.279-1.804,4.666-5.871c1.388-4.067,0.569-8.981-0.674-11.011
						c-1.686-2.755-5.785-2.441-4.567,2.154c1.218,4.595,1.956,9.583,0.049,12.915L71.357,244.382z"/>
				</g>
				<g id="XMLID_3653_" style="opacity:0.2;">
					<path d="M71.357,244.382c0,0,3.279-1.804,4.666-5.871c1.388-4.067,0.569-8.981-0.674-11.011
						c-1.686-2.755-5.785-2.441-4.567,2.154c1.218,4.595,1.956,9.583,0.049,12.915L71.357,244.382z"/>
				</g>
				<g id="XMLID_4002_">
					<path style="fill:#FFFFFF;" d="M71.498,243.549c-0.044,0-0.089-0.016-0.124-0.048c-0.076-0.069-0.083-0.186-0.014-0.262
						c3.138-3.496,3.598-7.368,3.432-10c-0.21-3.33-1.449-5.734-1.907-6.13c-0.078-0.067-0.086-0.184-0.019-0.262
						c0.067-0.078,0.185-0.086,0.262-0.019c0.619,0.535,1.828,3.128,2.035,6.387c0.171,2.703-0.303,6.68-3.526,10.272
						C71.599,243.529,71.549,243.549,71.498,243.549z"/>
				</g>
			</g>
			<g id="XMLID_3984_">
				<g id="XMLID_3986_">
					<path style="fill:#27DEBF;" d="M67.841,244.382c-0.208-0.448-0.299-0.706-0.747-0.982c-0.42-0.258-0.892-0.416-1.353-0.583
						c-0.811-0.294-1.852-0.725-1.957-1.702c-0.037-0.347,0.029-0.698,0.125-1.034c0.134-0.469,0.324-0.973,0.141-1.425
						c-0.177-0.437-0.642-0.669-1.037-0.927c-0.408-0.267-0.841-0.608-1.091-1.034c-0.224-0.379-0.357-0.821-0.319-1.26
						c0.079-0.91,0.95-1.507,0.975-2.412c0.036-1.317-3.043-3.104-1.4-4.347c2.104-1.591,5.395,0.252,6.341,1.605
						c0.947,1.352,0.941,1.959,2.663,3.107c1.428,0.952,3.115,1.147,3.115,3.017c0,1.87-2.405,1.96-0.511,4.084
						c1.138,1.276-0.74,2.378-1.427,3.893C69.971,245.307,68.487,244.874,67.841,244.382z"/>
				</g>
				<g id="XMLID_3985_">
					<path style="fill:#FFFFFF;" d="M69.742,244.925c-0.002,0-0.005,0-0.007,0c-0.103-0.004-0.182-0.09-0.179-0.193
						c0.415-10.887-5.126-14.713-6.234-15.015c-0.099-0.027-0.157-0.129-0.13-0.228c0.027-0.098,0.131-0.155,0.228-0.13
						c1.875,0.511,6.899,5.108,6.508,15.387C69.924,244.847,69.841,244.925,69.742,244.925z"/>
				</g>
				<g id="XMLID_14307_">
					<path style="fill:#FFFFFF;" d="M68.664,236.809c-0.044,0-0.088-0.015-0.123-0.047c-1.606-1.42-4.748-1.38-4.781-1.38
						c-0.102,0.001-0.187-0.08-0.189-0.182c-0.002-0.103,0.08-0.187,0.182-0.189c0.135-0.001,3.321-0.04,5.034,1.473
						c0.077,0.068,0.084,0.185,0.016,0.262C68.766,236.788,68.715,236.809,68.664,236.809z"/>
				</g>
			</g>
		</g>
		<g id="Document">
			<g id="XMLID_3927_" style="opacity:0.2;">
				<path d="M166.508,261.593c0.068,0.113,0.023,0.249-0.136,0.34l-32.791,18.936c-0.113,0.068-0.26,0.091-0.408,0.091
					c-0.147,0.011-0.306-0.023-0.408-0.091l-45.785-26.43c-0.079-0.045-0.124-0.102-0.147-0.158
					c-0.034-0.079-0.023-0.158,0.045-0.226c0.011-0.011,0.023-0.034,0.045-0.045c0.011-0.023,0.034-0.034,0.057-0.045l32.791-18.925
					c0.227-0.136,0.6-0.136,0.815,0l45.785,26.43c0.011,0.011,0.034,0.023,0.045,0.034l0.011,0.011
					c0.045,0.023,0.079,0.045,0.102,0.091C166.53,261.604,166.519,261.593,166.508,261.593z"/>
			</g>
			<g id="List_1_">
				<g id="XMLID_4850_">
					<path id="XMLID_4854_" style="fill:#27DEBF;" d="M88.523,252.115v0.79c0,0.249,0.175,0.552,0.391,0.676l43.922,25.359
						c0.216,0.125,0.566,0.125,0.781,0l31.464-18.166c0.216-0.125,0.391-0.427,0.391-0.677v-0.791c0-0.249-0.175-0.552-0.391-0.677
						l-43.922-25.358c-0.216-0.124-0.566-0.124-0.781,0l-31.464,18.166C88.698,251.563,88.523,251.866,88.523,252.115z"/>
					<path id="XMLID_4852_" style="opacity:0.4;fill:#FFFFFF;" d="M165.133,258.667c0.161,0.124,0.144,0.304-0.052,0.416
						l-31.464,18.166c-0.107,0.063-0.247,0.093-0.39,0.094l-0.001,1.693c0.142-0.001,0.281-0.032,0.39-0.094l31.464-18.166
						c0.216-0.125,0.391-0.428,0.391-0.677l0.001-0.791C165.471,259.081,165.324,258.806,165.133,258.667z"/>
					<path id="XMLID_4851_" style="opacity:0.15;" d="M88.852,251.483c-0.008,0.004-0.014,0.01-0.02,0.016
						c-0.011,0.008-0.022,0.016-0.032,0.027c-0.004,0.004-0.009,0.008-0.013,0.011c-0.018,0.017-0.034,0.034-0.052,0.053
						l-0.004,0.008c-0.103,0.12-0.177,0.275-0.2,0.422c-0.006,0.032-0.008,0.064-0.009,0.095l-0.001,0.791
						c0.002,0.249,0.175,0.551,0.391,0.676l43.923,25.359c0.108,0.062,0.25,0.094,0.391,0.095l0.001-1.693
						c-0.142,0.001-0.284-0.031-0.392-0.093L88.912,251.89c-0.077-0.044-0.127-0.098-0.148-0.154
						c-0.027-0.072-0.012-0.149,0.047-0.215C88.823,251.508,88.837,251.495,88.852,251.483z"/>
				</g>
				<g>
					<path style="fill:#263238;" d="M100.416,240.878c-0.003,0.709,0.987,1.452,1.259,2.082c0.024,0.055,0.043,0.107,0.058,0.159
						c-0.136,0.447-0.549,0.757-0.636,1.056c-0.022,0.072-0.031,0.139-0.032,0.204c-0.001,0.113,0,0.527,0,0.596
						c0,0.132,0.033,0.259,0.057,0.415c-0.019,0.128-0.05,0.271-0.103,0.436c-0.104,0.332-0.145,0.571-0.144,0.747
						c0,0.103,0.001,0.487,0.001,0.579c-0.002,0.342,0.149,0.45,0.296,0.535l1.762,1.018l13.184-7.614v-0.586l-1.761-1.017
						c-0.145-0.084-0.324-0.169-0.888-0.171c-0.036,0-0.076,0-0.116-0.001c-0.295,0.005-0.683,0.031-1.205,0.085
						c-0.991,0.103-1.543,0.072-1.986,0.045c-0.181-0.011-0.342-0.021-0.51-0.02c-0.116,0-0.234,0.004-0.364,0.017
						c-0.758,0.075-1.551,0.55-3.074,0.342c-0.014-0.002-0.033-0.004-0.047-0.007c-1.082-0.156-2.36-0.723-3.583-0.727
						c-0.041-0.001-0.08,0-0.122,0.001c-0.478,0.014-0.949,0.119-1.395,0.376c-0.474,0.274-0.649,0.564-0.651,0.861
						C100.414,240.393,100.416,240.785,100.416,240.878z M102.417,241.286c0.064-0.116,0.168-0.221,0.318-0.308
						c0.098-0.056,0.208-0.103,0.328-0.138c0.681-0.198,1.676-0.062,2.413,0.364c0.359,0.207,0.598,0.451,0.71,0.691
						c-0.064,0.115-0.167,0.22-0.317,0.306c-0.432,0.25-1.124,0.288-1.792,0.138c-0.335-0.075-0.663-0.197-0.952-0.364
						C102.766,241.769,102.528,241.526,102.417,241.286z"/>
					<path id="XMLID_4823_" style="fill:#37474F;" d="M113.469,239.318c-0.036,0-0.076,0-0.116-0.001
						c-0.295,0.005-0.683,0.031-1.205,0.085c-0.991,0.103-1.543,0.072-1.986,0.045c-0.181-0.011-0.343-0.021-0.51-0.02
						c-0.116,0-0.234,0.004-0.364,0.017c-0.758,0.075-1.551,0.55-3.074,0.342c-0.014-0.002-0.033-0.004-0.047-0.007
						c-1.082-0.156-2.36-0.723-3.583-0.727c-0.041-0.001-0.08,0-0.122,0.001c-0.478,0.014-0.949,0.119-1.395,0.376
						c-1.61,0.931,0.222,2.051,0.609,2.945c0.389,0.896-0.45,1.359-0.579,1.801c-0.136,0.442,0.228,0.681-0.078,1.651
						c-0.303,0.969-0.071,1.147,0.153,1.276l1.762,1.017l13.184-7.614l-1.761-1.017C114.212,239.404,114.033,239.32,113.469,239.318
						z M103.586,246.729c-0.171,0.099-0.495,0.072-0.725-0.06c-0.228-0.132-0.278-0.321-0.106-0.42
						c0.174-0.1,0.497-0.072,0.726,0.061C103.709,246.442,103.76,246.63,103.586,246.729z M105.869,242.202
						c-0.432,0.25-1.124,0.288-1.792,0.138c-0.335-0.075-0.663-0.197-0.952-0.364c-0.866-0.5-1.039-1.208-0.39-1.584
						c0.098-0.056,0.208-0.103,0.328-0.138c0.681-0.198,1.676-0.061,2.413,0.364C106.342,241.119,106.518,241.827,105.869,242.202z
						 M113.759,240.855c-0.174,0.1-0.498,0.073-0.726-0.059c-0.23-0.133-0.276-0.32-0.102-0.419c0.171-0.099,0.495-0.072,0.725,0.06
						C113.884,240.569,113.93,240.756,113.759,240.855z"/>
				</g>
				<g id="XMLID_4739_">
					<path id="XMLID_4810_" style="fill:#F5F5F5;" d="M132.006,274.489l27.379-15.808c0.129-0.075,0.234-0.256,0.234-0.406v-0.305
						c0-0.149-0.105-0.331-0.234-0.406l-36.174-20.885c-0.129-0.075-0.339-0.075-0.469,0l-27.379,15.807
						c-0.129,0.075-0.234,0.257-0.234,0.406v0.306c0,0.15,0.105,0.331,0.234,0.406l36.173,20.885
						C131.667,274.564,131.877,274.564,132.006,274.489z"/>
					<polygon style="fill:#E0E0E0;" points="141.684,262.681 151.139,257.221 151.48,257.418 142.025,262.878 					"/>
					<polygon style="fill:#E0E0E0;" points="130.337,269.231 139.793,263.772 140.134,263.969 130.678,269.428 					"/>
					<path id="XMLID_4741_" style="fill:#FAFAFA;" d="M159.443,257.608c0.068,0.073,0.05,0.166-0.057,0.228l-27.38,15.807
						c-0.065,0.037-0.15,0.057-0.235,0.056l-0.001,0.846c0.085,0.001,0.171-0.018,0.235-0.056l27.38-15.807
						c0.13-0.073,0.235-0.256,0.234-0.405l0.001-0.306C159.62,257.843,159.545,257.694,159.443,257.608z"/>
					<path id="XMLID_4740_" style="fill:#E0E0E0;" d="M95.315,252.524c-0.023,0.018-0.044,0.039-0.064,0.063
						c-0.009,0.012-0.018,0.025-0.027,0.036c-0.027,0.039-0.049,0.082-0.067,0.126c-0.011,0.029-0.019,0.058-0.023,0.087
						c-0.003,0.019-0.004,0.039-0.004,0.058l-0.001,0.304c0.001,0.15,0.105,0.331,0.234,0.406l36.173,20.885
						c0.066,0.038,0.15,0.058,0.234,0.056l0.001-0.846c-0.085-0.001-0.17-0.019-0.234-0.056l-36.173-20.884
						C95.254,252.695,95.237,252.597,95.315,252.524z"/>
					<g>
						<g>
							<path style="fill:#37474F;" d="M133.919,264.961c-0.088,0.099,0.034,0.232,0.1,0.325c0.006,0.161-0.045,0.328-0.104,0.473
								c-0.04,0.1-0.083,0.242-0.214,0.318c-0.134,0.078-0.314-0.03-0.407-0.086c-0.035-0.021-0.116-0.012-0.128,0.017
								c-0.023,0.056-0.002,0.112-0.01,0.167c-0.063-0.017-0.115-0.066-0.151-0.093c-0.051-0.038-0.104-0.077-0.182-0.097
								c-0.042-0.011-0.102-0.005-0.116,0.024c-0.037,0.073,0.003,0.163,0.021,0.236c0.021,0.088,0.069,0.196,0.029,0.283
								c-0.046,0.099-0.208-0.049-0.24-0.085c-0.073-0.079-0.117-0.165-0.174-0.248c-0.023-0.033-0.14-0.022-0.135,0.016
								c0.016,0.117,0.001,0.238-0.01,0.355c-0.016,0.17-0.042,0.341-0.107,0.508c-0.024,0.061-0.095,0.272-0.248,0.267
								c-0.085-0.003-0.14-0.056-0.175-0.108c0.011-0.052,0.021-0.104,0.029-0.154c0.039-0.249,0.132-0.525,0-0.77
								c-0.028-0.052-0.068-0.099-0.129-0.141c-0.028-0.02-0.09-0.011-0.116,0.004c-0.138,0.079-0.138,0.209-0.13,0.314
								c0.008,0.105,0.043,0.209,0.062,0.314c0.02,0.111,0.037,0.223,0.081,0.332c0.014,0.035,0.031,0.073,0.054,0.11
								c-0.036,0.153-0.091,0.305-0.205,0.446c-0.116,0.144-0.461,0.413-0.746,0.231c-0.209-0.134-0.282-0.345-0.34-0.516
								c-0.018-0.054-0.03-0.109-0.045-0.164c0.144-0.144,0.262-0.297,0.351-0.452c0.079-0.138,0.104-0.292,0.133-0.435
								c0.035-0.179,0.074-0.375,0.008-0.553c-0.018-0.05-0.05-0.11-0.133-0.137c-0.089-0.028-0.191,0-0.26,0.035
								c-0.177,0.092-0.208,0.256-0.233,0.385c-0.033,0.172-0.059,0.344-0.067,0.517c-0.011,0.23,0.019,0.462,0.08,0.69
								c-0.146,0.138-0.315,0.268-0.51,0.385c-0.014,0.008,0.018,0.027,0.032,0.019c0.185-0.105,0.348-0.224,0.491-0.351
								c0.001,0.002,0.001,0.003,0.001,0.005c0.056,0.194,0.126,0.413,0.329,0.577c0.077,0.062,0.186,0.114,0.322,0.122
								c0.173,0.01,0.336-0.049,0.456-0.116c0.265-0.147,0.385-0.36,0.45-0.574c0.017,0.01,0.035,0.019,0.056,0.026
								c0.213,0.077,0.384-0.033,0.46-0.141c0.116-0.166,0.151-0.353,0.177-0.53c0.014-0.093,0.026-0.188,0.03-0.283
								c0.024,0.03,0.049,0.059,0.08,0.087c0.078,0.071,0.244,0.157,0.392,0.087c0.121-0.057,0.078-0.191,0.063-0.268
								c-0.012-0.061-0.03-0.122-0.042-0.183c-0.004-0.022-0.01-0.044-0.012-0.068c0.117,0.07,0.183,0.174,0.39,0.161
								c0.029-0.002,0.056-0.013,0.063-0.03c0.018-0.04,0.012-0.081,0.009-0.121c0.111,0.052,0.243,0.092,0.382,0.067
								c0.21-0.038,0.282-0.19,0.336-0.298c0.062-0.125,0.105-0.253,0.126-0.383c0.07,0.112,0.138,0.225,0.204,0.338
								c0.213,0.365,0.365,0.741,0.496,1.118c0.074,0.211,0.143,0.423,0.221,0.633c0.015,0.04,0.15,0.033,0.139-0.007
								c-0.14-0.471-0.292-0.943-0.514-1.404c-0.113-0.235-0.253-0.464-0.396-0.693c-0.044-0.07-0.089-0.139-0.135-0.209
								c-0.005-0.105-0.031-0.209-0.101-0.306C134.035,264.919,133.941,264.937,133.919,264.961z M130.113,266.843
								c-0.014-0.166-0.011-0.332,0.006-0.498c0.013-0.131,0.022-0.266,0.064-0.395c0.029-0.089,0.093-0.24,0.275-0.263
								c0.094-0.012,0.128,0.05,0.146,0.091c0.073,0.161,0.04,0.343,0.013,0.507c-0.026,0.157-0.053,0.321-0.129,0.473
								c-0.073,0.146-0.192,0.292-0.319,0.426C130.143,267.07,130.122,266.957,130.113,266.843z M131.538,266.86
								c-0.018-0.097-0.043-0.194-0.06-0.291c-0.016-0.089-0.044-0.218,0.029-0.309c0.081,0.086,0.097,0.196,0.103,0.29
								c0.008,0.126-0.011,0.252-0.033,0.378c-0.004,0.021-0.007,0.042-0.011,0.064C131.556,266.948,131.546,266.904,131.538,266.86
								z"/>
							<path style="fill:#37474F;" d="M136.995,263.109c-0.034-0.026-0.126-0.01-0.126,0.022c-0.001,0.04,0.031,0.073,0.073,0.104
								c0.004,0.003,0.009,0.007,0.013,0.01c0.022,0.055,0.024,0.115,0.023,0.167c-0.001,0.103-0.024,0.206-0.048,0.308
								c-0.011,0.046-0.018,0.093-0.034,0.139c-0.008,0.023-0.019,0.043-0.032,0.065c-0.002,0.003-0.01,0.012-0.016,0.015
								c-0.039-0.002-0.092-0.034-0.121-0.046c-0.058-0.025-0.116-0.049-0.181-0.068c-0.038-0.011-0.119-0.006-0.115,0.028
								c0.012,0.097,0.049,0.204,0.005,0.3c-0.008,0.017-0.018,0.042-0.05,0.046c-0.034,0.004-0.093-0.049-0.112-0.063
								c-0.052-0.038-0.099-0.078-0.176-0.1c-0.038-0.011-0.096,0.003-0.099,0.028c-0.006,0.058,0.021,0.118,0.033,0.176
								c0.008,0.036,0.056,0.174-0.012,0.198c-0.052,0.019-0.123-0.054-0.18-0.139c0.002-0.08-0.008-0.176-0.118-0.23
								c-0.034-0.017-0.11-0.007-0.112,0.022c-0.004,0.067,0.039,0.141,0.088,0.206c0,0.004,0,0.009,0,0.014
								c-0.002,0.093-0.024,0.185-0.052,0.276c-0.042,0.137-0.083,0.316-0.252,0.422c-0.114,0.072-0.245,0.022-0.36-0.06
								c0.057-0.185,0.044-0.378-0.011-0.562c-0.089-0.298-0.297-0.604-0.691-0.812c-0.023-0.012-0.066-0.016-0.09-0.002
								c-0.098,0.052-0.084,0.146-0.072,0.215c0.018,0.101,0.063,0.2,0.111,0.298c0.107,0.217,0.212,0.437,0.376,0.643
								c0.054,0.068,0.151,0.182,0.277,0.268c-0.026,0.082-0.063,0.163-0.116,0.24c-0.009,0.013,0.035,0.03,0.048,0.016
								c0.059-0.069,0.103-0.141,0.135-0.214c0.117,0.064,0.254,0.098,0.404,0.053c0.244-0.074,0.31-0.286,0.359-0.427
								c0.027-0.076,0.046-0.154,0.059-0.231c0.054,0.043,0.125,0.077,0.219,0.067c0.212-0.024,0.144-0.216,0.107-0.347
								c0.039,0.031,0.076,0.064,0.127,0.085c0.076,0.031,0.183,0.03,0.244-0.014c0.065-0.047,0.068-0.119,0.069-0.176
								c0.001-0.041-0.004-0.082-0.009-0.123c0.078,0.035,0.159,0.072,0.247,0.078c0.187,0.012,0.208-0.136,0.225-0.209
								c0.027-0.118,0.057-0.236,0.064-0.355c0.001-0.019,0.001-0.039,0.001-0.059c0.001,0.001,0.002,0.001,0.002,0.002
								c0.109,0.102,0.201,0.209,0.287,0.317c0.123,0.154,0.24,0.312,0.319,0.476c-0.171,0.04-0.32,0.11-0.428,0.209
								c-0.149,0.136-0.336,0.481,0.074,0.534c0.375,0.048,0.565-0.199,0.584-0.372c0.012-0.111-0.014-0.221-0.06-0.329
								c0.11-0.016,0.229-0.02,0.356-0.007c0.081,0.008,0.116-0.053,0.025-0.063c-0.142-0.015-0.282-0.013-0.413,0.004
								c-0.045-0.089-0.101-0.176-0.161-0.26c-0.086-0.12-0.18-0.24-0.283-0.355c-0.067-0.075-0.14-0.148-0.221-0.219
								c-0.028-0.025-0.07-0.052-0.108-0.081C137.073,263.189,137.044,263.146,136.995,263.109z M134.759,264.677
								c-0.14-0.178-0.234-0.366-0.333-0.552c-0.048-0.091-0.094-0.182-0.123-0.276c-0.018-0.056-0.054-0.153-0.005-0.214
								c0.346,0.197,0.537,0.477,0.623,0.749c0.051,0.163,0.069,0.337,0.038,0.507C134.865,264.809,134.789,264.716,134.759,264.677
								z M137.688,264.776c-0.082,0.062-0.257,0.115-0.361,0.039c-0.111-0.08-0.042-0.217,0.013-0.302
								c0.083-0.129,0.231-0.221,0.418-0.271C137.826,264.408,137.878,264.633,137.688,264.776z"/>
						</g>
						<g>
							<path style="fill:#37474F;" d="M142.434,260.428c-0.06,0.035-0.071,0.1-0.083,0.146c-0.031,0.116-0.065,0.239-0.067,0.36
								c-0.052-0.046-0.116-0.086-0.204-0.111c-0.03-0.008-0.076-0.009-0.1,0.007c-0.054,0.036-0.086,0.081-0.105,0.13
								c-0.085-0.095-0.205-0.163-0.369-0.128c-0.197,0.042-0.264,0.198-0.298,0.303c-0.017,0.052-0.026,0.104-0.034,0.157
								c-0.06-0.138-0.118-0.276-0.163-0.417c-0.077-0.239-0.154-0.481-0.346-0.699c-0.109-0.124-0.341-0.329-0.615-0.196
								c-0.113,0.055-0.175,0.142-0.229,0.219c-0.067,0.095-0.113,0.195-0.139,0.296c-0.013,0.05-0.021,0.101-0.027,0.152
								c-0.109-0.056-0.221-0.11-0.328-0.168c-0.03-0.016-0.101-0.006-0.061,0.018c0.122,0.074,0.258,0.142,0.385,0.214
								c-0.009,0.151,0.006,0.304,0.035,0.454c0.03,0.155,0.055,0.317,0.138,0.466c0.025,0.044,0.058,0.102,0.132,0.126
								c0.076,0.025,0.158,0.005,0.209-0.032c0.245-0.174,0.167-0.448,0.057-0.642c-0.085-0.151-0.249-0.263-0.435-0.366
								c0.009-0.225,0.077-0.449,0.281-0.637c0.032-0.029,0.08-0.072,0.145-0.077c0.077-0.006,0.146,0.039,0.188,0.07
								c0.087,0.065,0.15,0.146,0.205,0.222c0.141,0.195,0.202,0.405,0.269,0.611c0.066,0.204,0.159,0.403,0.247,0.604
								c0.008,0.019,0.016,0.038,0.025,0.057c-0.018,0.185-0.042,0.377,0.088,0.552c0.023,0.031,0.128,0.021,0.138-0.011
								c0.053-0.183-0.007-0.371-0.083-0.55c0.001-0.011,0.002-0.022,0.003-0.032c0.012-0.144,0.015-0.29,0.073-0.431
								c0.026-0.064,0.065-0.15,0.161-0.192c0.073-0.032,0.13,0.014,0.169,0.049c0.082,0.073,0.138,0.162,0.171,0.251
								c0.008,0.032,0.017,0.064,0.027,0.092c0.015,0.041,0.15,0.032,0.142-0.01c-0.003-0.017-0.009-0.037-0.016-0.061
								c-0.012-0.047-0.02-0.094-0.02-0.141c0-0.057,0.007-0.128,0.056-0.182c0.15,0.069,0.208,0.199,0.287,0.295
								c0.03,0.037,0.156,0.016,0.132-0.026c-0.095-0.172-0.036-0.359,0.002-0.534c0.01-0.047,0.032-0.093,0.047-0.139
								c0.04,0.041,0.064,0.088,0.077,0.135c0.028,0.1,0.044,0.199,0.079,0.299c0.037,0.104,0.082,0.207,0.132,0.31
								c0.097,0.201,0.205,0.4,0.334,0.594c0.141,0.214,0.303,0.429,0.546,0.611c0.026,0.019,0.121,0.012,0.093-0.018
								c-0.193-0.216-0.387-0.428-0.534-0.657c-0.148-0.232-0.276-0.469-0.377-0.709c-0.048-0.115-0.09-0.231-0.113-0.349
								c-0.018-0.09-0.034-0.195-0.134-0.269C142.577,260.405,142.494,260.392,142.434,260.428z M139.987,260.946
								c0.169,0.167,0.258,0.404,0.179,0.594c-0.018,0.043-0.044,0.086-0.081,0.124c-0.012,0.012-0.029,0.023-0.041,0.035
								c-0.003,0.003-0.005,0.005-0.007,0.006c-0.056-0.022-0.08-0.09-0.096-0.124c-0.063-0.132-0.085-0.272-0.11-0.407
								c-0.023-0.122-0.042-0.252-0.044-0.382C139.861,260.839,139.93,260.889,139.987,260.946z"/>
							<path style="fill:#37474F;" d="M146.003,259.306c-0.147-0.023-0.3-0.007-0.431,0.033c-0.054-0.057-0.12-0.112-0.185-0.161
								c-0.134-0.103-0.283-0.202-0.451-0.287c-0.037-0.019-0.151-0.008-0.131,0.031c0.07,0.131,0.106,0.273,0.121,0.409
								c0.007,0.065,0.017,0.144-0.027,0.207c-0.043,0.059-0.125,0.021-0.193-0.008c-0.031-0.013-0.109-0.006-0.114,0.021
								c-0.005,0.026,0.034,0.138-0.003,0.151c-0.037,0.013-0.168-0.077-0.207-0.089c-0.025-0.008-0.09-0.009-0.092,0.016
								c-0.003,0.055,0.054,0.139,0.015,0.195c-0.056-0.028-0.109-0.058-0.156-0.09c-0.027-0.019-0.129-0.023-0.113,0.014
								c0.021,0.048,0.042,0.095,0.056,0.144c0.011,0.035,0.052,0.136-0.003,0.165c-0.023,0.012-0.039-0.002-0.066-0.017
								c-0.03-0.017-0.055-0.037-0.082-0.056c-0.047-0.033-0.093-0.067-0.16-0.087c-0.032-0.01-0.095-0.003-0.097,0.023
								c-0.006,0.077,0.017,0.155,0.023,0.232c0.004,0.044,0.006,0.088,0,0.132c-0.004,0.03-0.006,0.09-0.055,0.109
								c-0.162,0.063-0.405-0.375-0.441-0.434c-0.016-0.027-0.124-0.032-0.11,0.002c0.045,0.118,0.109,0.234,0.136,0.355
								c0.026,0.113,0.054,0.288-0.177,0.336c-0.038,0.008,0.011,0.036,0.04,0.031c0.236-0.04,0.265-0.195,0.25-0.317
								c-0.002-0.02-0.008-0.04-0.013-0.06c0.069,0.073,0.183,0.164,0.34,0.142c0.153-0.021,0.156-0.145,0.158-0.217
								c0.002-0.079-0.017-0.157-0.023-0.235c0.099,0.069,0.206,0.168,0.35,0.109c0.087-0.035,0.078-0.107,0.068-0.16
								c-0.006-0.032-0.014-0.065-0.026-0.098c0.023,0.013,0.045,0.026,0.068,0.039c0.02,0.011,0.063,0.013,0.086,0.004
								c0.1-0.042,0.09-0.11,0.069-0.175c0.058,0.036,0.12,0.066,0.217,0.042c0.098-0.024,0.091-0.082,0.084-0.136
								c0.079,0.02,0.166,0.025,0.239-0.011c0.092-0.046,0.101-0.13,0.104-0.195c0.006-0.12-0.018-0.246-0.062-0.367
								c0.058,0.036,0.114,0.074,0.167,0.112c0.098,0.07,0.198,0.147,0.27,0.229c-0.046,0.023-0.088,0.048-0.122,0.077
								c-0.094,0.08-0.113,0.239,0.11,0.252c0.196,0.012,0.269-0.121,0.242-0.211c-0.011-0.035-0.031-0.07-0.056-0.103
								c0.098-0.034,0.211-0.048,0.324-0.031C146.025,259.383,146.098,259.32,146.003,259.306z M145.531,259.595
								c-0.025,0.053-0.092,0.071-0.123,0.01c-0.027-0.054,0.028-0.107,0.094-0.147c0.002,0.003,0.005,0.007,0.007,0.01
								C145.533,259.508,145.551,259.554,145.531,259.595z"/>
							<path style="fill:#37474F;" d="M146.079,256.507c0.063,0.202,0.138,0.403,0.192,0.606c0.054,0.205,0.091,0.411,0.117,0.617
								c0.026,0.206,0.032,0.412,0.067,0.618c0,0.002,0.001,0.003,0.001,0.005c-0.102-0.136-0.198-0.273-0.328-0.402
								c-0.132-0.13-0.298-0.262-0.501-0.359c-0.153-0.073-0.343-0.095-0.507-0.02c-0.077,0.035-0.136,0.082-0.182,0.133
								c-0.008-0.001-0.016-0.003-0.024-0.004c-0.065-0.006-0.132-0.006-0.198-0.008c-0.064-0.002-0.175,0.002-0.225-0.026
								c-0.028-0.016-0.095-0.009-0.059,0.016c0.101,0.071,0.316,0.048,0.455,0.063c0.005,0.001,0.01,0.002,0.015,0.002
								c-0.043,0.06-0.071,0.123-0.087,0.184c-0.035,0.132-0.034,0.278,0.059,0.402c0.065,0.086,0.195,0.186,0.377,0.181
								c0.215-0.006,0.327-0.151,0.343-0.258c0.024-0.163-0.111-0.339-0.319-0.448c-0.062-0.032-0.135-0.061-0.213-0.082
								c0.031-0.034,0.067-0.066,0.113-0.093c0.158-0.093,0.308-0.03,0.438,0.048c0.17,0.102,0.314,0.215,0.432,0.339
								c0.134,0.141,0.23,0.292,0.344,0.438c0.037,0.047,0.076,0.096,0.11,0.146c0.001,0.013,0.004,0.025,0.005,0.038
								c0.004,0.074-0.001,0.153,0.091,0.211c0.039,0.024,0.124,0.011,0.127-0.023c0.008-0.08-0.031-0.159-0.082-0.236
								c0-0.002,0-0.004,0-0.005c-0.014-0.107-0.039-0.213-0.055-0.319c-0.03-0.202-0.035-0.404-0.063-0.606
								c-0.052-0.385-0.116-0.792-0.355-1.156C146.156,256.492,146.071,256.48,146.079,256.507z M145.408,258.048
								c0.072,0.119,0.099,0.272-0.06,0.373c-0.144,0.092-0.289-0.033-0.344-0.108c-0.078-0.106-0.085-0.231-0.061-0.344
								c0.014-0.064,0.039-0.132,0.082-0.194C145.209,257.828,145.342,257.941,145.408,258.048z"/>
							<path style="fill:#37474F;" d="M150.4,256.92c-0.237-0.348-0.428-0.718-0.817-1.022c-0.035-0.027-0.152-0.021-0.139,0.022
								c0.051,0.169,0.163,0.339,0.145,0.513c-0.005,0.046-0.013,0.1-0.063,0.138c-0.038,0.029-0.096,0.045-0.141,0.07
								c-0.055,0.031-0.073,0.066-0.077,0.103c-0.054-0.037-0.102-0.078-0.167-0.109c-0.034-0.016-0.127-0.014-0.13,0.021
								c-0.006,0.069,0.012,0.138,0.018,0.207c0.004,0.036,0.021,0.117-0.01,0.166c-0.122-0.076-0.202-0.171-0.283-0.262
								c-0.03-0.034-0.125-0.016-0.141,0.014c-0.043,0.082,0.003,0.191,0.012,0.275c0.006,0.055,0.012,0.11,0.006,0.165
								c-0.002,0.021-0.002,0.098-0.045,0.108c0.011-0.003-0.021-0.01-0.034-0.016c-0.026-0.014-0.044-0.033-0.06-0.051
								c-0.045-0.05-0.073-0.104-0.096-0.159c-0.039-0.091-0.078-0.192-0.075-0.287c0.001-0.047-0.144-0.045-0.145-0.004
								c-0.005,0.262,0.051,0.524,0.013,0.785c-0.019,0.134-0.06,0.269-0.158,0.392c-0.046,0.058-0.105,0.113-0.179,0.161
								c-0.068,0.044-0.19,0.12-0.299,0.13c-0.099,0.009-0.115-0.089-0.128-0.13c-0.023-0.076-0.044-0.153-0.056-0.23
								c-0.007-0.043-0.011-0.085-0.013-0.128c0.29-0.214,0.39-0.482,0.329-0.758c-0.015-0.068-0.068-0.237-0.256-0.177
								c-0.07,0.022-0.093,0.076-0.108,0.117c-0.023,0.065-0.03,0.132-0.036,0.198c-0.015,0.166-0.062,0.331-0.07,0.497
								c-0.002,0.042,0,0.084,0.001,0.126c-0.035,0.026-0.072,0.051-0.111,0.075c-0.035,0.022,0.055,0.043,0.086,0.026
								c0.011-0.006,0.02-0.013,0.032-0.02c0.004,0.038,0.008,0.076,0.016,0.114c0.018,0.084,0.032,0.174,0.078,0.255
								c0.091,0.159,0.35,0.091,0.518,0.012c0.202-0.095,0.332-0.226,0.407-0.369c0.104-0.197,0.112-0.402,0.101-0.607
								c0.02,0.023,0.044,0.044,0.072,0.063c0.079,0.054,0.227,0.071,0.305,0.006c0.085-0.07,0.061-0.184,0.054-0.264
								c-0.004-0.046-0.01-0.092-0.016-0.138c0.061,0.059,0.131,0.115,0.221,0.159c0.029,0.014,0.069,0.014,0.101,0.003
								c0.109-0.037,0.112-0.124,0.113-0.188c0.001-0.052-0.01-0.105-0.017-0.158c0.052,0.037,0.105,0.074,0.179,0.099
								c0.046,0.015,0.119-0.001,0.117-0.034c-0.002-0.044-0.026-0.094,0.018-0.133c0.035-0.032,0.103-0.049,0.148-0.076
								c0.096-0.058,0.113-0.141,0.115-0.218c0.002-0.094-0.027-0.185-0.063-0.276c0.195,0.2,0.325,0.422,0.465,0.636
								c0.04,0.061,0.083,0.123,0.125,0.184c-0.205,0.057-0.357,0.194-0.444,0.315c-0.067,0.094-0.118,0.195-0.132,0.296
								c-0.015,0.114,0.009,0.253,0.113,0.352c0.113,0.107,0.349,0.143,0.541,0.084c0.189-0.058,0.291-0.181,0.328-0.298
								c0.075-0.242-0.079-0.492-0.232-0.716c0.05-0.005,0.104-0.005,0.161,0.003c0.058,0.008,0.087-0.034,0.027-0.046
								C150.546,256.918,150.471,256.914,150.4,256.92z M147.376,257.358c0.021-0.105,0.023-0.21,0.045-0.315
								c0.005-0.026,0.012-0.052,0.023-0.077c0.007-0.017,0.026-0.035,0.035-0.052c0.005,0.004,0.01,0.009,0.013,0.012
								c0.018,0.022,0.026,0.048,0.034,0.072c0.037,0.117,0.04,0.244,0.012,0.361c-0.028,0.116-0.098,0.222-0.198,0.318
								C147.342,257.571,147.355,257.464,147.376,257.358z M150.514,257.396c0.034,0.106,0.047,0.216,0.004,0.321
								c-0.04,0.097-0.155,0.236-0.358,0.237c-0.256,0.001-0.303-0.19-0.32-0.301c-0.012-0.081,0.004-0.159,0.039-0.238
								c0.059-0.134,0.196-0.333,0.427-0.409C150.391,257.133,150.47,257.262,150.514,257.396z"/>
						</g>
					</g>
				</g>
				<g id="XMLID_4467_">
					<g id="XMLID_4701_">
						<g id="XMLID_4707_">
							<path id="XMLID_4719_" style="fill:#E0E0E0;" d="M125.53,241.499l0.318,0.184c0.173,0.1,0.173,0.261,0,0.361l-21.979,12.691
								c-0.173,0.1-0.452,0.1-0.625,0l-0.319-0.184c-0.173-0.1-0.173-0.261,0-0.361l21.98-12.69
								C125.078,241.399,125.357,241.399,125.53,241.499z"/>
							<path id="XMLID_4717_" style="fill:#E0E0E0;" d="M127.451,242.607l0.318,0.184c0.173,0.1,0.173,0.261,0,0.361l-21.979,12.691
								c-0.173,0.1-0.452,0.1-0.625,0l-0.319-0.184c-0.173-0.1-0.173-0.261,0-0.361l21.98-12.69
								C126.998,242.508,127.278,242.508,127.451,242.607z"/>
							<path id="XMLID_4715_" style="fill:#E0E0E0;" d="M129.361,243.71l0.318,0.184c0.173,0.1,0.173,0.261,0,0.361L107.7,256.945
								c-0.173,0.1-0.452,0.1-0.625,0l-0.319-0.184c-0.173-0.1-0.173-0.261,0-0.361l21.98-12.69
								C128.908,243.61,129.188,243.61,129.361,243.71z"/>
						</g>
					</g>
					<g id="XMLID_4555_">
						<g id="XMLID_4557_">
							<path id="XMLID_4576_" style="fill:#E0E0E0;" d="M133.592,246.153l0.318,0.184c0.173,0.1,0.173,0.261,0,0.361l-21.979,12.691
								c-0.173,0.1-0.452,0.1-0.625,0l-0.319-0.184c-0.173-0.1-0.173-0.261,0-0.361l21.98-12.69
								C133.139,246.053,133.419,246.053,133.592,246.153z"/>
							<path id="XMLID_4574_" style="fill:#E0E0E0;" d="M135.512,247.262l0.318,0.184c0.173,0.1,0.173,0.261,0,0.361l-21.979,12.691
								c-0.173,0.1-0.452,0.1-0.625,0l-0.319-0.184c-0.173-0.1-0.173-0.261,0-0.361l21.98-12.69
								C135.06,247.162,135.339,247.162,135.512,247.262z"/>
							<path id="XMLID_4558_" style="fill:#E0E0E0;" d="M137.422,248.364l0.318,0.184c0.173,0.1,0.173,0.261,0,0.361L115.761,261.6
								c-0.173,0.1-0.452,0.1-0.625,0l-0.319-0.184c-0.173-0.1-0.173-0.261,0-0.361l21.98-12.69
								C136.97,248.265,137.249,248.265,137.422,248.364z"/>
						</g>
					</g>
					<g id="XMLID_4478_">
						<g id="XMLID_4480_">
							<path id="XMLID_4483_" style="fill:#E0E0E0;" d="M141.653,250.807l0.318,0.184c0.173,0.1,0.173,0.261,0,0.361l-21.979,12.691
								c-0.173,0.1-0.452,0.1-0.625,0l-0.319-0.184c-0.173-0.1-0.173-0.261,0-0.361l21.98-12.69
								C141.201,250.708,141.48,250.708,141.653,250.807z"/>
							<path id="XMLID_4482_" style="fill:#E0E0E0;" d="M143.574,251.916l0.318,0.184c0.173,0.1,0.173,0.261,0,0.361l-21.979,12.691
								c-0.173,0.1-0.452,0.1-0.625,0l-0.319-0.184c-0.173-0.1-0.173-0.261,0-0.361l21.98-12.69
								C143.121,251.816,143.401,251.816,143.574,251.916z"/>
							<path id="XMLID_4481_" style="fill:#E0E0E0;" d="M145.484,253.019l0.318,0.184c0.173,0.1,0.173,0.261,0,0.361l-21.979,12.691
								c-0.173,0.1-0.452,0.1-0.625,0l-0.319-0.184c-0.173-0.1-0.173-0.261,0-0.361l21.98-12.69
								C145.031,252.919,145.311,252.919,145.484,253.019z"/>
						</g>
					</g>
				</g>
				<g>
					<path style="fill:#37474F;" d="M104.645,248.702c0,0.101,0,0.494,0,0.59c0,0.279,0.116,0.544,0.308,0.805l16.133-9.31v-0.586
						c-0.491-0.252-1.038-0.393-1.574-0.396c-0.007,0-0.014,0-0.021,0c-0.374,0.001-0.742,0.072-1.073,0.222
						c-1.169,0.531-1.511,0.698-2.227,1c-0.191,0.081-0.739,0.15-1.098-0.157c-0.011-0.006-0.016-0.014-0.025-0.021l-0.483-0.443
						l-1.306-1.21c0,0-0.163-0.198-0.619-0.197c-0.011,0-0.021,0-0.032,0c-0.091,0.002-0.192,0.012-0.308,0.033
						c-0.335,0.061-0.84,0.057-1.34-0.02c-0.573-0.087-1.14-0.269-1.454-0.556c-0.565-0.518-1.409-0.795-2.246-0.797
						c-0.022-0.001-0.045-0.001-0.066-0.001c-0.527,0.006-1.048,0.122-1.489,0.355c-0.782,0.412-1.12,1.085-0.975,1.742
						c-0.111,0.505,0.066,1.051,0.561,1.505c0.202,0.185,0.313,0.429,0.359,0.688c-0.049,0.299-0.165,0.573-0.315,0.75
						c-0.132,0.156-0.174,0.288-0.174,0.392c0,0.138,0,0.499,0,0.587c0,0.192,0.144,0.293,0.144,0.293l1.512,1.386l0.483,0.443
						c0.02,0.018,0.036,0.036,0.051,0.055c-0.054,0.096-0.11,0.159-0.11,0.159l-1.952,1.523
						C104.838,247.963,104.645,248.344,104.645,248.702z M108.953,239.856c-0.086,0.233-0.275,0.445-0.567,0.598
						c-0.495,0.26-1.145,0.283-1.694,0.099c-0.242-0.083-0.467-0.207-0.645-0.37c-0.152-0.139-0.254-0.293-0.311-0.451
						c0.086-0.234,0.277-0.446,0.57-0.6c0.072-0.038,0.147-0.072,0.224-0.1c0.699-0.249,1.594-0.102,2.111,0.371
						C108.793,239.542,108.896,239.697,108.953,239.856z"/>
					<path id="XMLID_4449_" style="fill:#455A64;" d="M119.512,239.806c-0.007,0-0.014,0-0.021,0
						c-0.374,0.001-0.742,0.072-1.073,0.222c-1.169,0.531-1.511,0.698-2.227,1c-0.191,0.081-0.739,0.15-1.098-0.157
						c-0.011-0.006-0.016-0.014-0.025-0.021l-0.483-0.443l-1.306-1.21c0,0-0.163-0.198-0.619-0.197c-0.011,0-0.021,0-0.032,0
						c-0.091,0.002-0.192,0.012-0.308,0.033c-0.335,0.061-0.84,0.057-1.34-0.02c-0.573-0.087-1.14-0.269-1.454-0.556
						c-0.565-0.518-1.409-0.795-2.246-0.797c-0.022-0.001-0.045-0.001-0.066-0.001c-0.527,0.006-1.048,0.122-1.489,0.355
						c-1.163,0.614-1.35,1.804-0.414,2.661c0.59,0.541,0.418,1.581,0.044,2.023c-0.373,0.445-0.03,0.687-0.03,0.687l1.512,1.386
						l0.483,0.443c0.363,0.331-0.059,0.799-0.059,0.799l-1.952,1.523c-0.842,0.76-0.796,1.378-0.357,1.975l16.133-9.31
						C120.595,239.95,120.047,239.809,119.512,239.806z M108.641,238.817c0.574,0.527,0.463,1.259-0.254,1.636
						c-0.495,0.26-1.145,0.283-1.694,0.099c-0.242-0.083-0.467-0.207-0.645-0.37c-0.574-0.527-0.461-1.26,0.258-1.636
						c0.072-0.038,0.147-0.072,0.224-0.1C107.229,238.197,108.124,238.344,108.641,238.817z"/>
				</g>
			</g>
		</g>
		<g id="Pen">
			<path style="opacity:0.2;" d="M143.466,241.12l23.894,13.807l4.083,0.831c0.104,0.021,0.186-0.089,0.135-0.183l-1.279-2.345
				l-23.898-13.809C145.596,238.956,142.835,240.755,143.466,241.12z"/>
			<g id="Pen_1_">
				<g id="XMLID_4097_">
					<path id="XMLID_4152_" style="fill:#27DEBF;" d="M146.096,237.114c0.042,0.008,0.082,0.023,0.119,0.042l-0.229-0.131
						c-0.013-0.008-0.028-0.015-0.042-0.021L145.935,237c-0.015-0.008-0.03-0.013-0.044-0.019l-0.023-0.007
						c-0.012-0.004-0.024-0.008-0.038-0.011l-0.063-0.011c-0.022-0.003-0.045-0.004-0.067-0.004h-0.004
						c-0.148,0-0.314,0.047-0.49,0.15c-0.604,0.349-1.094,1.198-1.094,1.896c0,0.1,0.009,0.19,0.03,0.272
						c0.003,0.016,0.007,0.032,0.012,0.049c0.001,0.009,0.004,0.018,0.008,0.027c0.005,0.018,0.012,0.035,0.019,0.053
						c0.024,0.062,0.054,0.116,0.09,0.163c0.008,0.012,0.018,0.023,0.026,0.032c0.001,0.003,0.003,0.004,0.005,0.005
						c0.01,0.011,0.019,0.02,0.028,0.03c0.015,0.015,0.031,0.03,0.049,0.042c0.013,0.009,0.026,0.019,0.039,0.027
						c0.005,0.003,0.009,0.005,0.015,0.009l0.263,0.15c-0.043-0.024-0.084-0.055-0.119-0.093c0.178,0.042,0.395,0.003,0.629-0.133
						c0.605-0.349,1.096-1.198,1.096-1.896C146.3,237.457,146.224,237.248,146.096,237.114z M144.477,239.725
						c0.006,0.003,0.012,0.006,0.019,0.009C144.49,239.732,144.484,239.728,144.477,239.725z"/>
					<path id="XMLID_4100_" style="fill:#F0F0F0;" d="M169.038,250.332l-1.544,2.684l-0.261-0.151l-22.539-13.013
						c-0.043-0.024-0.084-0.055-0.119-0.093c-0.127-0.133-0.202-0.342-0.202-0.616c0-0.698,0.491-1.547,1.096-1.896
						c0.175-0.102,0.342-0.15,0.489-0.15c0.048,0,0.094,0.005,0.139,0.016c0.042,0.008,0.082,0.023,0.119,0.042
						c0.007,0.003,0.013,0.007,0.019,0.01l0.007,0.004c0.001,0.001,0.001,0.001,0.003,0.001L169.038,250.332z"/>
					<path id="XMLID_4098_" style="fill:#27DEBF;" d="M168.264,250.408c0.605-0.349,1.095-0.066,1.095,0.632
						c0,0.698-0.49,1.547-1.095,1.896c-0.605,0.349-1.095,0.066-1.095-0.632C167.17,251.606,167.66,250.758,168.264,250.408z"/>
				</g>
				<path id="XMLID_4096_" style="fill:#E0E0E0;" d="M170.618,252.035c-0.008-0.011-0.018-0.021-0.027-0.031l-1.397-1.536
					c0-0.001-0.001-0.003-0.003-0.004l-0.011-0.012c-0.008-0.01-0.017-0.019-0.026-0.028l-0.015-0.016l-0.001,0.001
					c-0.2-0.192-0.517-0.208-0.875-0.001c-0.605,0.349-1.095,1.198-1.095,1.896c0,0.405,0.166,0.669,0.422,0.752l-0.001,0.001
					l0.017,0.003c0.026,0.007,0.052,0.013,0.079,0.017l0.017,0.004c0.001,0,0.004,0,0.005,0.001l2.025,0.442
					c0.101,0.023,0.222-0.001,0.353-0.077c0.346-0.199,0.627-0.684,0.627-1.083C170.715,252.222,170.68,252.112,170.618,252.035z"/>
				<g id="XMLID_4093_">
					<path id="XMLID_4095_" style="fill:#455A64;" d="M152.723,242.066c-0.001-0.003-0.004-0.004-0.007-0.004l-0.036-0.021
						c-0.067-0.03-0.156-0.02-0.255,0.036c-0.214,0.124-0.389,0.427-0.389,0.675c0,0.109,0.034,0.19,0.09,0.234
						c0,0.001,0.001,0.001,0.001,0.001l0.047,0.027l16.637,9.605l1.094-0.632L152.723,242.066z"/>
					<path id="XMLID_4094_" style="fill:#37474F;" d="M167.267,251.728l1.545,0.892l1.094-0.632l-2.091-1.208
						C167.572,251.047,167.377,251.385,167.267,251.728z"/>
				</g>
				<g id="XMLID_4066_">
					<g id="XMLID_4077_">
						<path id="XMLID_4092_" style="fill:#27DEBF;" d="M171.168,252.765L171.168,252.765l0.001-0.001l-1.267-1.393
							c-0.011-0.013-0.022-0.027-0.034-0.038c-0.141-0.141-0.367-0.153-0.625-0.005c-0.427,0.246-0.774,0.847-0.774,1.34
							c0,0.285,0.115,0.472,0.295,0.532c0.005,0.001,0.008,0.002,0.012,0.004l0.051,0.011l1.858,0.405l0.001-0.001
							c0.057,0.013,0.126,0,0.2-0.043c0.195-0.112,0.352-0.385,0.352-0.61C171.239,252.876,171.212,252.808,171.168,252.765z"/>
						<path id="XMLID_4078_" style="opacity:0.1;" d="M171.168,252.765L171.168,252.765l0.001-0.001l-1.267-1.393
							c-0.011-0.013-0.022-0.027-0.034-0.038c-0.141-0.141-0.367-0.153-0.625-0.005c-0.427,0.246-0.774,0.847-0.774,1.34
							c0,0.285,0.115,0.472,0.295,0.532c0.005,0.001,0.008,0.002,0.012,0.004l0.051,0.011l1.858,0.405l0.001-0.001
							c0.057,0.013,0.126,0,0.2-0.043c0.195-0.112,0.352-0.385,0.352-0.61C171.239,252.876,171.212,252.808,171.168,252.765z"/>
					</g>
					<g id="XMLID_4069_">
						<path id="XMLID_4076_" style="fill:#27DEBF;" d="M171.239,252.967c0,0.224-0.158,0.497-0.353,0.61
							c-0.074,0.042-0.143,0.056-0.199,0.042l-0.001,0.001l-0.939-0.205c-0.148-0.032-0.245-0.171-0.245-0.394
							c0-0.359,0.252-0.797,0.563-0.976c0.184-0.107,0.348-0.098,0.451,0.001l0.025,0.028l0.628,0.69l-0.001,0.001
							C171.212,252.808,171.239,252.876,171.239,252.967z"/>
						
							<ellipse id="XMLID_4074_" transform="matrix(0.5001 -0.866 0.866 0.5001 -133.8098 274.5537)" style="opacity:0.1;" cx="170.886" cy="253.17" rx="0.498" ry="0.288"/>
					</g>
				</g>
				<g id="XMLID_4057_">
					<path id="XMLID_4059_" style="fill:#FAFAFA;" d="M148.58,239.673c-0.07-0.042-0.167-0.035-0.275,0.027
						c-0.214,0.124-0.388,0.424-0.387,0.671c0,0.125,0.043,0.213,0.114,0.252l0,0l4.094,2.363c-0.057-0.044-0.09-0.125-0.09-0.234
						c0-0.248,0.175-0.551,0.389-0.675c0.098-0.057,0.187-0.066,0.255-0.036L148.58,239.673z"/>
					<path id="XMLID_4058_" style="fill:#F5F5F5;" d="M148.693,239.924c0,0.247-0.174,0.547-0.388,0.671
						c-0.106,0.061-0.202,0.067-0.271,0.027c-0.071-0.039-0.116-0.125-0.116-0.251c-0.001-0.247,0.172-0.547,0.387-0.671
						c0.108-0.062,0.205-0.069,0.275-0.027C148.65,239.714,148.693,239.801,148.693,239.924z"/>
				</g>
				<path id="XMLID_4047_" style="fill:#27DEBF;" d="M147.826,238.266l0.001-0.001l-0.012-0.007
					c-0.006-0.003-0.011-0.007-0.017-0.01l-1.615-0.932c-0.012-0.008-0.025-0.015-0.038-0.022l-0.009-0.005l0,0.001
					c-0.176-0.086-0.41-0.066-0.668,0.083c-0.544,0.314-0.985,1.078-0.985,1.706c0,0.316,0.112,0.537,0.292,0.639v0l1.635,0.944
					c0.003,0.002,0.006,0.003,0.009,0.005l0.01,0.005l0.001-0.001c0.177,0.094,0.417,0.077,0.682-0.076
					c0.544-0.314,0.985-1.078,0.985-1.706C148.095,238.589,147.993,238.374,147.826,238.266z"/>
				<path id="XMLID_4045_" style="opacity:0.05;" d="M147.826,238.266l0.001-0.001l-0.012-0.007
					c-0.006-0.003-0.011-0.007-0.017-0.01l-1.615-0.932c-0.012-0.008-0.025-0.015-0.038-0.022l-0.009-0.005l0,0.001
					c-0.176-0.086-0.41-0.066-0.668,0.083c-0.544,0.314-0.985,1.078-0.985,1.706c0,0.316,0.112,0.537,0.292,0.639v0l1.635,0.944
					c0.003,0.002,0.006,0.003,0.009,0.005l0.01,0.005l0.001-0.001c0.177,0.094,0.417,0.077,0.682-0.076
					c0.544-0.314,0.985-1.078,0.985-1.706C148.095,238.589,147.993,238.374,147.826,238.266z"/>
				<path id="XMLID_4044_" style="opacity:0.1;" d="M147.11,238.322c0.544-0.314,0.985-0.059,0.985,0.569
					c0,0.628-0.441,1.392-0.985,1.706c-0.544,0.314-0.985,0.06-0.985-0.569C146.125,239.4,146.566,238.636,147.11,238.322z"/>
				<g id="XMLID_4041_">
					<path id="XMLID_4043_" style="fill:#455A64;" d="M171.686,253.352L171.686,253.352l-0.668-0.401l0,0
						c-0.033-0.021-0.079-0.02-0.131,0.01c-0.1,0.058-0.18,0.198-0.18,0.313c0,0.058,0.02,0.098,0.053,0.117l0,0l0.666,0.403l0,0
						c0.037,0.02,0.079,0.032,0.124,0.032c0.142,0,0.257-0.115,0.257-0.257C171.805,253.477,171.758,253.397,171.686,253.352z"/>
					<path id="XMLID_4042_" style="fill:#263238;" d="M171.725,253.382l-0.001-0.001c-0.011-0.01-0.023-0.02-0.036-0.028
						c-0.001,0-0.001-0.001-0.003-0.001c-0.031-0.012-0.072-0.005-0.116,0.02c-0.1,0.058-0.181,0.197-0.181,0.313
						c0,0.057,0.019,0.096,0.051,0.115c0.004,0.003,0.01,0.005,0.014,0.007c0.004,0.003,0.013,0.006,0.013,0.006
						c0.026,0.011,0.053,0.014,0.083,0.014c0.141,0,0.256-0.116,0.256-0.257C171.805,253.494,171.775,253.428,171.725,253.382z"/>
				</g>
			</g>
		</g>
		<path id="Shadow_47_" style="opacity:0.2;" d="M228.752,223.856l55.504-32.046c0.607-0.35,1.59-0.35,2.197,0l1.925,1.111
			c0.607,0.35,0.607,0.918,0,1.268l-55.504,32.046c-0.607,0.35-1.59,0.35-2.197,0l-1.925-1.111
			C228.145,224.774,228.145,224.206,228.752,223.856z"/>
		<g id="Device">
			<g id="XMLID_14632_">
				<g id="XMLID_14630_">
					<path style="fill:#27DEBF;" d="M191.992,193.217v-0.372c0-0.596,0.418-1.32,0.934-1.618l55.092-31.807
						c0.516-0.298,1.352-0.298,1.868,0l11.275,6.511c0.516,0.298,0.934,1.022,0.934,1.618v0.371c0,0.596-0.418,1.32-0.934,1.618
						l-55.091,31.807c-0.516,0.298-1.352,0.298-1.868,0l-11.276-6.51C192.41,194.537,191.992,193.812,191.992,193.217z"/>
				</g>
				<g id="XMLID_3980_" style="opacity:0.5;">
					<path d="M191.992,193.217v-0.372c0-0.596,0.418-1.32,0.934-1.618l55.092-31.807c0.516-0.298,1.352-0.298,1.868,0l11.275,6.511
						c0.516,0.298,0.934,1.022,0.934,1.618v0.371c0,0.596-0.418,1.32-0.934,1.618l-55.091,31.807c-0.516,0.298-1.352,0.298-1.868,0
						l-11.276-6.51C192.41,194.537,191.992,193.812,191.992,193.217z"/>
				</g>
				<g id="XMLID_4039_">
					<path style="fill:#27DEBF;" d="M192.926,192.305l11.276,6.51c0.516,0.298,1.352,0.298,1.868,0l55.091-31.805
						c0.516-0.298,0.516-0.781,0-1.079l-11.275-6.511c-0.516-0.298-1.352-0.298-1.868,0l-55.092,31.807
						C192.41,191.525,192.41,192.008,192.926,192.305z"/>
				</g>
				<g id="XMLID_3979_" style="opacity:0.2;">
					<path d="M192.926,192.305l11.276,6.51c0.516,0.298,1.352,0.298,1.868,0l55.091-31.805c0.516-0.298,0.516-0.781,0-1.079
						l-11.275-6.511c-0.516-0.298-1.352-0.298-1.868,0l-55.092,31.807C192.41,191.525,192.41,192.008,192.926,192.305z"/>
				</g>
			</g>
			<g id="XMLID_4165_">
				<g id="XMLID_4341_">
					<g id="XMLID_4431_">
						<path id="XMLID_4437_" style="fill:#27DEBF;" d="M284.087,179.026l3.943-47.808c0.122-1.486-0.76-3.258-1.972-3.957
							c-1.211-0.7-3.24-0.662-4.532,0.084l-52.355,30.227c-1.291,0.746-2.438,2.555-2.56,4.041l-3.943,47.808
							c-0.123,1.486,0.76,3.258,1.972,3.957c1.211,0.699,3.24,0.662,4.532-0.084l52.355-30.227
							C282.819,182.321,283.965,180.512,284.087,179.026z"/>
						<path id="XMLID_4436_" style="opacity:0.5;" d="M284.087,179.026l3.943-47.808c0.122-1.486-0.76-3.258-1.972-3.957
							c-1.211-0.7-3.24-0.662-4.532,0.084l-52.355,30.227c-1.291,0.746-2.438,2.555-2.56,4.041l-3.943,47.808
							c-0.123,1.486,0.76,3.258,1.972,3.957c1.211,0.699,3.24,0.662,4.532-0.084l52.355-30.227
							C282.819,182.321,283.965,180.512,284.087,179.026z"/>
					</g>
					<g id="XMLID_4347_">
						<path id="XMLID_4429_" style="fill:#27DEBF;" d="M284.087,179.026l3.943-47.808c0.122-1.486-0.76-3.258-1.972-3.957
							c-1.211-0.699-3.24-0.662-4.532,0.084l-52.355,30.227c-0.638,0.368-1.24,0.997-1.701,1.718l8.137,4.698l0,45.591
							l45.919-26.511C282.819,182.321,283.965,180.512,284.087,179.026z"/>
						<path id="XMLID_4425_" style="opacity:0.2;" d="M284.087,179.026l3.943-47.808c0.122-1.486-0.76-3.258-1.972-3.957
							c-1.211-0.699-3.24-0.662-4.532,0.084l-52.355,30.227c-0.638,0.368-1.24,0.997-1.701,1.718l8.137,4.698l0,45.591
							l45.919-26.511C282.819,182.321,283.965,180.512,284.087,179.026z"/>
					</g>
					<g id="XMLID_4344_">
						<path id="XMLID_4346_" style="fill:#27DEBF;" d="M227.056,211.953l3.943-47.808c0.123-1.486,1.269-3.295,2.56-4.041
							l52.355-30.227c1.291-0.746,2.239-0.145,2.116,1.341l-3.943,47.808c-0.122,1.486-1.269,3.295-2.56,4.041l-52.355,30.227
							C227.881,214.039,226.933,213.439,227.056,211.953z"/>
						<path id="XMLID_4345_" style="opacity:0.35;" d="M227.056,211.953l3.943-47.808c0.123-1.486,1.269-3.295,2.56-4.041
							l52.355-30.227c1.291-0.746,2.239-0.145,2.116,1.341l-3.943,47.808c-0.122,1.486-1.269,3.295-2.56,4.041l-52.355,30.227
							C227.881,214.039,226.933,213.439,227.056,211.953z"/>
					</g>
					<g id="XMLID_4342_">
						<path id="XMLID_4343_" style="fill:#27DEBF;" d="M254.077,173.593c0.202-2.448,1.917-5.331,3.831-6.44
							c1.914-1.109,3.302-0.023,3.1,2.424c-0.202,2.448-1.917,5.331-3.832,6.44C255.263,177.126,253.875,176.041,254.077,173.593z"
							/>
					</g>
				</g>
				<g id="XMLID_4166_">
					<g id="XMLID_4339_">
						<polygon id="XMLID_4340_" style="fill:#27DEBF;" points="255.308,188.048 268.18,180.57 265.987,179.303 253.123,186.785 
													"/>
					</g>
					<g id="XMLID_4243_" style="opacity:0.2;">
						<polygon id="XMLID_4253_" points="255.308,188.048 268.18,180.57 265.987,179.303 253.123,186.785 						"/>
					</g>
					<g id="XMLID_4202_">
						<path id="XMLID_4232_" style="fill:#27DEBF;" d="M274.151,202.515l-15.671,9.05c-0.281,0.162-0.648,0.238-1.004,0.227
							c-0.302-0.011-0.616-0.086-0.853-0.216c-0.011,0-0.011-0.011-0.022-0.011l-6.901-3.985c-0.011-0.011-0.021-0.011-0.032-0.022
							c-0.508-0.302-0.897-1.004-0.897-1.598v-0.367c0-0.594,0.411-0.842,0.929-0.54l4.169,2.398l0.929,0.54l-0.205-1.058
							l-1.469-20.147l2.186,1.266l12.874-7.477l6.702,20.343C274.993,201.5,274.669,202.223,274.151,202.515z"/>
					</g>
					<g id="XMLID_4195_" style="opacity:0.45;">
						<path id="XMLID_4198_" d="M274.151,202.515l-15.671,9.05c-0.281,0.162-0.648,0.238-1.004,0.227
							c-0.302-0.011-0.616-0.086-0.853-0.216c-0.011,0-0.011-0.011-0.022-0.011l-6.901-3.985c-0.011-0.011-0.021-0.011-0.032-0.022
							c-0.508-0.302-0.897-1.004-0.897-1.598v-0.367c0-0.594,0.411-0.842,0.929-0.54l4.169,2.398l0.929,0.54l-0.205-1.058
							l-1.469-20.147l2.186,1.266l12.874-7.477l6.702,20.343C274.993,201.5,274.669,202.223,274.151,202.515z"/>
					</g>
					<g id="XMLID_4193_">
						<polygon id="XMLID_4194_" style="fill:#27DEBF;" points="249.059,204.977 254.404,201.891 255.49,209.084 						"/>
					</g>
					<g id="XMLID_4191_">
						<polygon id="XMLID_4192_" style="opacity:0.5;" points="249.059,204.977 254.404,201.891 255.49,209.084 						"/>
					</g>
					<g id="XMLID_4189_">
						<path id="XMLID_4190_" style="fill:#27DEBF;" d="M255.309,188.051l-2.186-1.266l1.469,20.147
							c0.119,0.583-0.216,0.821-0.724,0.518l-4.169-2.398c-0.518-0.302-0.929-0.054-0.929,0.54v0.367
							c0,0.594,0.389,1.296,0.897,1.598c0.011,0.011,0.021,0.011,0.032,0.022l6.901,3.985c0.011,0,0.011,0.011,0.022,0.011
							c0.238,0.13,0.551,0.205,0.853,0.216L255.309,188.051z"/>
					</g>
					<g id="XMLID_4176_" style="opacity:0.65;">
						<path id="XMLID_4187_" d="M255.309,188.051l-2.186-1.266l1.469,20.147c0.119,0.583-0.216,0.821-0.724,0.518l-4.169-2.398
							c-0.518-0.302-0.929-0.054-0.929,0.54v0.367c0,0.594,0.389,1.296,0.897,1.598c0.011,0.011,0.021,0.011,0.032,0.022
							l6.901,3.985c0.011,0,0.011,0.011,0.022,0.011c0.238,0.13,0.551,0.205,0.853,0.216L255.309,188.051z"/>
					</g>
				</g>
			</g>
		</g>
	</g>
</g>
<g id="Characters_1_">
	<g id="Characters">
		<g id="Character_21_">
			<g>
				<path style="fill:#FFA8A7;" d="M233.304,223.743L233.304,223.743c-4.505-10.705-12.098-29.665-12.559-33.29
					c-0.699-5.495,0.013-33.844,0.891-43.339c0.878-9.494,3.68-14.005,9.806-16.112c0,0,5.968,1.825,8.209,8.192
					c2.241,6.366,0.925,15.223,0.925,15.223l-2.761,35.983l7.055,26.704c0.691,2.616,2.172,4.965,4.267,6.677
					c1.626,1.329,3.369,2.522,4.43,3.695c2.061,2.278,3.217,4.464,5.393,6.426c2.176,1.962,1.471,2.313,0.027,2.901
					c-1.444,0.588-3.957-0.862-6.027-2.792c-0.658-0.614-1.266-1.112-1.802-1.523c1.828,5.488,4.243,10.058,6.784,13.147
					c2.541,3.09,3.268,5.735-0.406,6.888c-4.594,1.442-9.328,1.442-13.268-1.381c-3.94-2.823-5.99-8.442-7.363-13.076
					C235.533,233.431,235.245,228.18,233.304,223.743z"/>
				<path style="fill:#37474F;" d="M238.604,190.329l0.528-10.183c0,0,2.972-31.833,3.019-37.948
					c0.053-6.91-1.892-10.007-4.434-11.197c-2.673-1.251-5.046-1.715-10.787-2.666c-7.854,4.913-7.426,27.557-7.67,41.161
					c-0.244,13.604-0.838,20.4,1.202,24.661c2.04,4.261,12.842,29.585,12.842,29.585c7.879-1.102,11.81-5.838,11.81-5.838
					L238.604,190.329z"/>
			</g>
			<g id="XMLID_1024_">
				<polygon id="XMLID_1144_" style="fill:#FFA8A7;" points="181.969,392.119 194.243,392.119 196.688,370.395 181.969,370.395 				
					"/>
				<polygon id="XMLID_1143_" style="fill:#FFA8A7;" points="222.507,369.779 235.584,370.211 235.352,347.715 220.562,347.432 				
					"/>
				<path id="XMLID_1138_" style="fill:#37474F;" d="M182.102,214.459c-0.238,11.914-2.761,93.766-2.761,93.766
					c-0.256,3.015-1.338,8.563-1.564,19.421c-0.327,15.746,2.971,53.13,2.971,53.13c0.73,3.4,13.425,4.779,15.106,1.711
					c0,0,6.935-54.226,8.901-69.812c1.716-13.602,7.029-56.494,7.029-56.494l4.732,42.085c0,0-0.32,5.984,0.343,15.306
					c0.513,7.209,4.132,49.745,4.132,49.745c0.063,2.649,13.255,4.843,15.484,0.934c0,0,4.173-62.093,4.3-68.708
					c0.145-7.541-0.908-81.936-0.908-81.936L182.102,214.459z"/>
				<path id="XMLID_1135_" style="fill:#263238;" d="M194.945,385.882c0,0,0.207-1.854,0.209-1.854
					c0.68-0.015,0.974,0.764,1.251,2.396c0.741,4.356,2.03,7.486,3.253,9.999c2.088,4.29,3.3,6.067,7.409,11.235
					c0.975,1.226,3.174,3.173,3.941,4.539c0.767,1.365,1.037,5.164-0.266,6.033c-4.791,3.194-12.067,3.283-17.214,1.774
					c-3.959-1.16-6.633-3.708-7.473-8.396s-1.274-7.584-3.662-11.13c-0.876-1.301-2.292-2.345-2.885-3.797
					c-1.065-2.608-0.211-5.543,0.47-8.14c0.588-2.244,1.226-4.711,1.992-4.501c0.002,0.274,0,1.384,0,1.384
					c0.921,1.021,4.148,2.034,7.023,2.145C190.849,387.64,194.96,387.298,194.945,385.882z"/>
				<path id="XMLID_1133_" style="fill:#263238;" d="M235.548,366.664c0.322,0.216,1.065,1.071,2.379,2.288
					c1.157,1.072,2.292,1.844,4.234,3.272c3.069,2.256,5.806,3.932,9.416,5.911c3.892,2.133,7.399,3.437,12.05,5.537
					c0.477,0.215,0.951,0.471,1.3,0.862c0.289,0.324,0.469,0.734,0.567,1.157c0.401,1.727-0.558,3.547-1.947,4.649
					c-1.389,1.102-3.141,1.624-4.858,2.068c-3.897,1.008-8.219,1.347-12.123,0.363c-3.446-0.868-6.738-2.598-9.738-4.502
					c-2.559-1.623-5.293-3.132-8.332-3.575c-2.608-0.38-5.823-0.253-8.087-1.813c-2.516-1.734-1.51-5.439-0.798-8.622
					c0.776-3.474,0.952-8.776,2.533-8.662l0.121,1.389c0.14,1.501,3.771,2.189,6.585,2.193c2.33,0.003,6.736-0.607,6.719-1.704
					C235.568,367.474,235.547,366.674,235.548,366.664z"/>
				<path id="XMLID_1104_" style="opacity:0.3;" d="M213.483,237.912c0,0,6.884-2.317,13.392-8.606c0,0-2.135,6.243-10.901,11.379
					l0.577,54.39l-4.418-38.893L213.483,237.912z"/>
			</g>
			<g id="XMLID_992_">
				<path id="XMLID_1015_" style="fill:#263238;" d="M201.877,127.527c-2.223,0.535-9.288,2.438-15.023,4.459
					c-3.884,1.369-6.493,4.448-7.239,5.538c-4.163,6.082-0.408,19.585,2.657,45.036c-0.235,16.436-0.707,33.837-0.707,33.837
					c7.556,5.504,42.804,9.244,58.705-2.368c0,0,0.527-58.646-0.523-66.665c-2.011-15.35-8.02-19.452-20.429-20.173L201.877,127.527
					z"/>
			</g>
			<path style="fill:#27DEBF;" d="M223.54,145.543c1.119,3.839,7.359,29.19,6.903,38.724c-0.357,7.467-3.149,11.094-4.656,12.684
				c-1.507,1.589-4.086,2.428-5.746-0.194c-1.661-2.623-3.068-5.734-3.447-9.387c-0.528-5.096,2.288-22.739,1.501-40.896
				C218.096,146.473,220.037,143.532,223.54,145.543z"/>
			<path style="fill:#27DEBF;" d="M223.785,136.884c2.616,2.231-0.245,8.659-0.245,8.659s-2.578-0.755-5.445,0.931
				c0,0-5.209-2.226-5.217-6.08c-0.008-3.509,3.728-2.387,6.382-2.847C222.072,137.059,223.478,135.004,223.785,136.884z"/>
			<path style="opacity:0.2;" d="M223.54,145.543c-0.426-1.507-2.477-1.366-4.113-1.882c-1.073-0.338-1.903-1.371-2.206-1.896
				c-0.842-1.458-0.013-3.874,1.182-4.12l0.001-0.002c-2.534,0.178-5.533-0.395-5.526,2.75c0.009,3.855,5.217,6.08,5.217,6.08
				C220.962,144.787,223.54,145.543,223.54,145.543z"/>
			<g id="XMLID_259_">
				<g id="XMLID_955_">
					<path id="XMLID_977_" style="fill:#263238;" d="M205.597,91.846c0.212,8.868,7.573,15.886,16.441,15.674
						c8.869-0.212,15.886-7.573,15.674-16.441c-0.212-8.869-7.573-15.886-16.441-15.674
						C212.403,75.617,205.385,82.977,205.597,91.846z"/>
					<path id="XMLID_969_" style="fill:#263238;" d="M194.17,103.543c0,0,2.894,12.163,3.986,14.147
						c1.091,1.984,3.261,2.503,3.261,2.503l-0.387-8.595L194.17,103.543z"/>
					<path id="XMLID_961_" style="fill:#263238;" d="M197.018,85.951c0,0-2.814-0.413-4.945,1.873
						c-2.089,2.241-0.73,9.068,2.098,15.719l4.915,0.446L197.018,85.951z"/>
					<path id="XMLID_960_" style="fill:#FFA8A7;" d="M200.555,103.957c-0.969,0.611-2.416-1.244-3.659-2.483
						c-1.242-1.239-5.24-2.878-7.115,1.328c-1.91,4.286,1.978,9.797,5.116,10.701c5.409,1.557,6.132-1.906,6.132-1.906l0.921,21.921
						l0,0c3.826,4.67,11.983,3.402,16.453,2.496c3.567-0.723,4.482-1.72,0.962-5.605l-0.165-6.28c0,0,4.882,0.622,7.246,0.199
						c3.934-0.704,6.357-3.875,7.438-8.181c1.651-6.574,2.057-13.911,0.403-25.93c-2.032-14.769-19.355-14.496-28.509-8.425
						C196.625,87.863,200.555,103.957,200.555,103.957z"/>
					<path id="XMLID_959_" style="fill:#263238;" d="M200.595,105.611c-0.494,0.021-2.448-3.053-3.698-4.137
						c-1.732-1.502,0.121-15.523,0.121-15.523s-2.191-3.898,0.987-7.569c2.261-2.612,5.426-5.81,15.994-4.816
						c7.533,0.708,15.765,2.856,22.293-0.546c1.087,4.087,0.398,8.69-3.631,12.036c0,0-2.354,1.598-8.624,2.514
						c-6.271,0.916-16.087,0.237-17.431,0.086c-1.829-0.206-2.177,1.571-3.044,6.423
						C202.799,98.338,202.255,105.539,200.595,105.611z"/>
					<path id="XMLID_957_" style="fill:#263238;" d="M197.053,87.037l-6.019-3.048c0.803-1.723,2.801-2.437,4.463-1.596
						C197.159,83.236,197.856,85.314,197.053,87.037z"/>
					<path id="XMLID_956_" style="fill:#F28F8F;" d="M219.2,124.129c0,0-8.855-1.565-11.975-3.129
						c-2.088-1.047-3.832-2.906-4.36-4.112c0,0,0.64,2.601,2.538,4.913c2.322,2.827,13.857,4.852,13.857,4.852L219.2,124.129z"/>
				</g>
				<g id="XMLID_930_">
					<path id="XMLID_939_" style="fill:#263238;" d="M218.458,102.517c-0.052,1.012-0.884,1.791-1.858,1.738
						c-0.974-0.052-1.722-0.916-1.67-1.928c0.052-1.012,0.883-1.79,1.858-1.738C217.762,100.642,218.51,101.505,218.458,102.517z"/>
					<path id="XMLID_937_" style="fill:#263238;" d="M217.208,97.27l-3.881,1.89c-0.501-1.113-0.038-2.438,1.033-2.96
						C215.432,95.678,216.707,96.157,217.208,97.27z"/>
					<path id="XMLID_936_" style="fill:#F28F8F;" d="M217.251,113.692l5.509,1.508c-0.386,1.575-1.933,2.514-3.455,2.098
						C217.784,116.882,216.864,115.268,217.251,113.692z"/>
					<path id="XMLID_933_" style="fill:#263238;" d="M233.054,97.876l-4.115-1.41c0.35-1.16,1.554-1.785,2.69-1.395
						C232.766,95.46,233.404,96.716,233.054,97.876z"/>
					<path id="XMLID_932_" style="fill:#263238;" d="M232.628,101.799c0.093,1.009-0.619,1.898-1.591,1.985
						c-0.972,0.086-1.835-0.661-1.928-1.671c-0.093-1.009,0.62-1.898,1.591-1.985C231.672,100.042,232.535,100.79,232.628,101.799z"
						/>
					<polygon id="XMLID_931_" style="fill:#F28F8F;" points="224.164,100.937 224.801,111.557 230.338,109.637 					"/>
				</g>
				<g id="XMLID_367_">
					<g id="XMLID_368_">
						<g id="XMLID_374_">
							<path id="XMLID_511_" style="fill:#37474F;" d="M218.403,136.015c-4.907-1.03-15.633-4.036-16.756-9.702l-0.144-3.111
								c-1.902-0.018-2.778,2.124-3.71,5.166c-0.394,8.009,8.053,15.322,16.542,17.293c0,0-0.22-4.163,1.222-6.329
								C217.094,137.021,218.403,136.015,218.403,136.015z"/>
							<path id="XMLID_510_" style="fill:#37474F;" d="M219.221,124.952c0,0,1.953,0.527,3.424,2.049
								c6.352,6.574,2.727,15.197,2.727,15.197s-0.284-3.768-2.134-5.042s-4.834-1.142-4.834-1.142
								c1.558-1.663,1.8-3.038,0.962-5.605L219.221,124.952z"/>
						</g>
					</g>
				</g>
			</g>
		</g>
		<g id="Character_24_">
			<path style="fill:#B16668;" d="M335.938,148.039c-3.776,11.007-8.494,30.256-8.494,30.256l-35.334,14.221l0.982,4.646
				l-8.394-3.452l-4.124,4.237c0,0,4.584,10.736,10.705,9.359c1.778-0.4,3.086-0.652,4.293-1.076
				c1.929-0.678,3.432-1.529,4.931-2.115c2.212-0.865,4.476-1.562,7.427-2.442c11.547-3.443,23.823-6.659,27.425-7.762
				c5.54-1.697,5.616-2.861,7.918-9.208c3.304-9.111,9.697-30.675,9.697-30.675v-20.361
				C345.7,133.749,340.027,136.12,335.938,148.039z"/>
			<g id="Character_25_">
				<g id="XMLID_1251_">
					<path id="XMLID_1252_" style="fill:#37474F;" d="M400.275,369.898c0.784,3.73,1.237,5.44,1.833,10.078
						c0.49,3.813,0.794,6.638,1.904,13.151c1.012,5.942,1.777,10.479-2.419,14.946c-3.691,3.928-10.203,5.438-12.344,0.971
						c-2.448-5.108-2.129-13.391-1.798-18.552c0.331-5.161,0.255-6.669,0.297-10.778c0.037-3.622,0.218-5.102,0.416-8.225
						C392.127,371.28,396.312,370.207,400.275,369.898z"/>
					<g>
						<path style="fill:#263238;" d="M356.39,389.119l-1.359-0.2c-0.088-4.275,0.157-8.183-0.903-10.198l1.939-5.245L356.39,389.119
							z"/>
						<path style="fill:#263238;" d="M359.739,369.656c-0.305,2.93-1.969,5.936-2.09,11.709c-0.122,5.772,0.152,7.379,0.152,7.379
							l-1.41,0.375l-0.322-15.644L359.739,369.656z"/>
						<path style="fill:#263238;" d="M327.498,393.051c0,0,0.066,1.711,0.803,2.269c0.737,0.558,2.286,2.251,9.809,1.806
							c7.523-0.445,10.156-2.3,12.726-4.646s3.247-8.504,3.631-11.408c0.744-5.629,3.086-8.579,5.271-11.416
							c0.612-1.386,0.221-2.921,0.221-2.921s-6.216-0.346-8.909,6.541s-4.802,14.885-10.885,16.796
							C334.083,391.983,327.498,393.051,327.498,393.051z"/>
						<path style="fill:#B16668;" d="M400.275,369.898c-0.056-4.854,0.005-11.307,0.443-19.861
							c0.511-9.962,0.582-17.727,0.543-28.277c-0.03-7.996-0.449-15.056-3.28-30.371c2.999-30.746,4.093-62.527,0.462-74.21
							c-3.117-10.028-6.292-13.374-9.098-18.277c-1.46-2.538-4.124-6.309-4.124-9.714c0,0-9.682,4.21-22.212,4.323
							c-14.255,0.132-19.237-3.739-19.237-3.739s-6.429,74.497-5.088,98.812c0.793,14.389,1.951,35.688,2.379,46.153
							c0.33,8.072,1.262,18.577,1.175,23.03c-0.074,3.797-0.848,6.958-2.267,11.345c-1.315,4.064-2.767,7.68-4.669,11.505
							c-0.481,0.966-0.998,1.929-1.726,2.725c-0.92,1.005-1.595,1.718-3.189,3.094c-2.301,1.986-3.452,2.965-3.255,4.805
							c0.198,1.853,1.566,2.577,3.122,3.043c3.694,1.106,7.88,0.649,11.575-0.011c3.802-0.679,7.836-2.402,9.411-5.928
							c0.458-1.027,0.676-2.143,0.882-3.248c0.68-3.632,1.301-7.342,2.83-10.735c0.66-1.464,1.135-2.84,2.058-4.163
							c0.976-1.399,2.159-2.925,2.338-4.681c0.149-1.461-0.976-3.523-2.444-5.736c-0.011-0.016-0.021-0.032-0.032-0.048
							c-1.276-1.919-0.925-3.249-0.479-9.294c0.965-13.081,3.628-22.49,5.866-38.379c1.112-7.892,0.865-14.213-0.462-22.989
							c1.518-10.411,4.15-21.333,5.699-28.517c2.505,15.035,4.117,20.532,5.482,31.907c1.893,15.771,10.763,48.781,12.172,57.268
							c1.409,8.487,2.298,14.185,2.955,21.084c0.569,5.978,1.011,18.014,1.763,23.493c1.202,8.762,10.233,6.085,11.695-1.648
							C402.533,387.509,400.353,376.611,400.275,369.898z"/>
						<path style="fill:#37474F;" d="M343.274,195.741c-0.82,10.323-4.571,51.955-5.308,65.081
							c-0.59,10.51-0.286,22.919-0.011,31.483c6.919,4.493,35.238,12.575,49.866-8.679c2.974,7.232,6.57,11.168,10.81,8.72
							c0,0,3.114-30.389,3.244-49.962c0.13-19.573-2.222-28.954-6.973-36.002c-4.751-7.048-8.166-12.012-8.166-12.012
							L343.274,195.741z"/>
						<path style="fill:#37474F;" d="M359.301,362.453c-1.067-1.89-2.05-2.422-3.082-4.051c-1.085,0.779-1.968,2.464-2.427,3.969
							c-0.46,1.504-1.665,8.887-3.482,14.763c-1.363,4.41-3.653,6.746-6.803,7.948c-1.967,0.75-4.113,0.981-6.199,0.697
							c-0.01-0.001-0.02-0.003-0.03-0.004c-3.907-0.538-2.996-3.351-2.996-3.351c-0.907,1.243-4.631,4.287-6.838,6.522
							c-1.254,1.27-0.665,3.198,0.285,4.438c1.088,0.938,3.636,2.816,12.975,1.461c8.29-1.203,10.232-5.034,11.017-6.761
							c0.6-1.32,1.115-4.146,1.721-7.782c0.483-2.898,1.435-5.712,2.908-8.255c0.186-0.321,0.369-0.618,0.544-0.876l0,0
							c0,0,0-0.001,0-0.001c0.557-0.821,1.218-1.728,1.964-2.631c0.578-0.701,1.033-1.029,1.204-1.698
							C360.235,365.228,360.233,364.102,359.301,362.453z"/>
					</g>
				</g>
				<g id="XMLID_1228_">
					<g id="XMLID_1229_">
						<path id="XMLID_1250_" style="fill:#27DEBF;" d="M341.7,170.677c0.215,4.133,2.072,19.095,2.072,19.095
							c16.87,11.421,41.45-0.584,41.45-0.584l4.602-31.128c0,0-10.091-10.343-1.829-23.327l-13.386-0.859l-14.316-0.072
							l-7.321-0.136c-5.154,3.781-14.048,13.456-15.703,17.693C335.578,155.686,334.204,161.851,341.7,170.677z"/>
					</g>
				</g>
				<g id="XMLID_1219_" style="opacity:0.6;">
					<g id="XMLID_1220_">
						<path id="XMLID_1221_" style="fill:#FFFFFF;" d="M341.7,170.677c0.215,4.133,2.072,19.095,2.072,19.095
							c16.87,11.421,41.45-0.584,41.45-0.584l4.602-31.128c0,0-10.091-10.343-1.829-23.327l-13.386-0.859l-14.316-0.072
							l-7.321-0.136c-5.154,3.781-14.048,13.456-15.703,17.693C335.578,155.686,334.204,161.851,341.7,170.677z"/>
					</g>
				</g>
				<path style="opacity:0.1;fill:#263238;" d="M358.254,169.988c1.457,1.894,8.231,4.224,13.802,1.748
					c5.571-2.476,7.465-7.138,7.756-10.196c0,0,1.591,8.594-6.998,12.09C364.227,177.125,358.691,171.881,358.254,169.988z"/>
				<g>
					<path style="fill:#263238;" d="M350.429,121.071c0,0,25.238,9.841,25.238,5.436c4.734-8.772,14.29-11.593,14.29-26.932
						c0-16.005-13.295-23.834-26.597-23.834l0,0c-8.82,0-16.534,4.651-20.729,11.59c-7.594,1.953-5.65,12.476,1.948,14.36
						L350.429,121.071z"/>
					<path style="fill:#263238;" d="M376.335,129.964c-3.585-3.189-3.611-9.013-0.058-13.008c3.554-3.995,9.341-4.649,12.927-1.46
						c3.586,3.189,3.612,9.013,0.058,13.009C385.708,132.5,379.92,133.153,376.335,129.964z"/>
					<g id="XMLID_1156_">
						<g id="XMLID_1157_">
							<g id="XMLID_1215_">
								<path id="XMLID_1216_" style="fill:#B16668;" d="M375.667,134.033v-19.47c0,0,2.508,2.49,6.176-0.199
									c3.289-2.411,4.665-7.587,2.36-10.253c-1.634-1.89-6.689-2.928-8.668,1.138c0,0-5.856-0.282-13.501-5.71
									c-7.78-5.524-9.464-10.219-14.152-10.756c-2.202,1.68-4.339,6.627-4.112,19.679c0.167,9.658,4.493,14.27,6.703,15.927
									c1.801,1.351,4.099,1.542,7.994,0.905v9.15c0,0-11.511,12.813-2.232,12.243
									C370.185,145.831,375.667,134.033,375.667,134.033z"/>
							</g>
							<path style="fill:#263238;" d="M375.535,104.352v5.354l0,0c-2.106,0-3.814-1.675-3.814-3.741v-5.171L375.535,104.352z"/>
							<g id="XMLID_1213_">
								<path id="XMLID_1214_" style="fill:#263238;" d="M359.69,104.411c-0.051,0.993,0.698,1.834,1.671,1.879
									c0.974,0.045,1.805-0.722,1.855-1.715c0.051-0.992-0.697-1.834-1.671-1.879C360.572,102.651,359.741,103.419,359.69,104.411
									z"/>
							</g>
							<g id="XMLID_1209_">
								<path id="XMLID_1210_" style="fill:#263238;" d="M344.974,99.775l3.853-2.16c-0.576-1.077-1.906-1.466-2.97-0.869
									C344.792,97.342,344.397,98.698,344.974,99.775z"/>
							</g>
							<g id="XMLID_1211_">
								<path id="XMLID_1212_" style="fill:#9A4A4D;" d="M361.052,114.646l-4.92,1.754c0.458,1.37,1.931,2.088,3.29,1.603
									C360.78,117.519,361.51,116.016,361.052,114.646z"/>
							</g>
							<g id="XMLID_1207_">
								<path id="XMLID_1208_" style="fill:#263238;" d="M346.209,104.029c-0.051,0.992,0.698,1.834,1.672,1.879
									c0.974,0.045,1.804-0.722,1.855-1.715c0.051-0.992-0.698-1.833-1.671-1.879C347.091,102.269,346.26,103.037,346.209,104.029
									z"/>
							</g>
							<g id="XMLID_1171_">
								<polygon id="XMLID_1206_" style="fill:#9A4A4D;" points="354.709,103.135 354.454,112.613 349.369,111.067 								"/>
							</g>
							<g id="XMLID_1169_">
								<path id="XMLID_1170_" style="fill:#9A4A4D;" d="M358.467,125.295c4.105-0.528,12.549-2.907,13.865-6.182
									c0,0-0.439,2.058-2.961,4.179c-2.522,2.121-10.904,4.51-10.904,4.51V125.295z"/>
							</g>
						</g>
					</g>
					<path style="fill:#263238;" d="M369.62,76.331c-8.48-1.937-11.863,0.52-20.439-0.389c-3.523-0.373-6.737-0.538-9.092,0.649
						c-2.682,1.351-4.25,4.308-3.888,8.122c0.611,6.44,7.554,8.087,7.554,8.087s5.888-13.25,13.708-13.146
						C365.283,79.757,369.62,76.331,369.62,76.331z"/>
				</g>
			</g>
			<g>
				<path style="fill:#263238;" d="M343.417,187.454l-0.143,8.286c0,0,5.458,4.18,15.48,4.848s24.088-3.274,27.982-6.218
					c0,0-1.807-3.384-1.053-8.015c0,0-10.8,6.217-24.83,5.549C346.823,191.235,343.417,187.454,343.417,187.454z"/>
			</g>
			<path style="fill:#B16668;" d="M410.655,219.867L410.655,219.867c1.149-10.373,2.779-29.856,2.251-33.097
				c-0.801-4.913-9.262-33.026-12.191-41.56c-2.781-8.104-7.035-10.568-14.17-10.568c0,0-5.004,2.243-4.984,10.199
				c0.015,6.065,3.021,12.27,3.021,12.27l12.583,35.716l0.738,24.808c0.072,2.43-0.604,4.832-1.972,6.842
				c-1.062,1.56-2.259,3.033-2.874,4.314c-1.195,2.489-1.633,4.668-3.007,6.914c-1.374,2.246-0.677,2.368,0.717,2.506
				c1.394,0.138,3.19-1.752,4.48-3.944c0.41-0.697,0.807-1.282,1.164-1.772c-0.174,5.195-1.089,9.748-2.489,13.059
				c-1.401,3.311-1.352,5.775,2.108,5.831c4.326,0.07,9.499-1.673,12.172-5.111c2.674-3.438,3.006-8.802,3.006-13.145
				C411.208,228.782,410.116,224.185,410.655,219.867z"/>
		</g>
		<g>
			<g>
				<path style="fill:#FFA8A7;" d="M265.523,207.49c-1.371-0.219-3.873-0.544-5.52-0.682c-4.736-0.399-10.897-0.765-10.897-0.765
					l1.476-14.956c0,0,8.936,1.278,8.949,1.28c2.936,0.42,5.476,0.3,8.305-0.197c3.609-0.634,6.738-3.147,10.402-3.147
					c1.894,0,2.963,1.21,4.12,2.688c0.518,0.661,1.246,1.414,2.086,2.813c2.697,4.491,6.735,10.349,8.282,11.212
					c1.808,1.009,2.848,0.494,2.848,0.494c2.049,3.48-5.307,4.484-8.472,5.296c-2.754,0.707-7.212,0.797-10.321-0.185
					C274.223,210.534,266.893,207.71,265.523,207.49z"/>
				<path style="fill:#37474F;" d="M186.855,131.987c-2.636,0.76-6.536,2.637-9.612,5.713c-3.972,3.972-4.205,10.732-2.197,17.488
					c2.008,6.756,19.433,36.953,22.017,41.569c3.345,5.975,5.316,5.958,11.029,6.643c7.113,0.854,49.778,3.643,49.778,3.643
					c2.49-0.49,3.832-12.947,1.337-15.213l-44.942-7.013l-15.18-32.92C199.085,151.897,194.98,133.148,186.855,131.987z"/>
			</g>
			<g>
				<path style="fill:#B16668;" d="M296.84,190.613c-2.846,0.794-5.061-0.108-8.225-1.152c-3.315-1.094-4.13-1.24-6.66-0.438
					c-2.366,0.751-5.083,1.289-6.05,2.684c-0.297,0.429-1.259,3.374-1.996,5.554c0.063,1.076,2.642,1.462,3.772-0.109
					c0.966-1.344,1.18-2.127,1.612-2.624c1.031-0.303,5.15-0.005,5.15-0.005l11.823,5.28L296.84,190.613z"/>
				<path style="fill:#B16668;" d="M264.941,207.401c0.801-0.822,1.266-1.597,3.445-1.743c1.487-0.099,2.975,0.058,4.45,0.232
					c1.334,0.157,2.673,0.26,4.006,0.422c0.677,0.082,1.353,0.179,2.023,0.307c0.436,0.083,1.034,0.389,0.976,0.934
					c0.559-0.221,1.139-0.417,1.74-0.446c0.601-0.029,1.231,0.126,1.674,0.533c0.986,0.906,0.303,2.311-0.334,3.199
					c-0.704,0.981-1.736,1.95-2.962,2.182c-1.791,0.339-4.648,0.239-6.924-0.342C270.759,212.098,262.818,209.58,264.941,207.401z"
					/>
			</g>
		</g>
	</g>
</g>
<g id="Speech_Bubble">
	<g id="Speech_Bubble_2_">
		<g id="XMLID_512_">
			<g id="XMLID_1147_">
				<ellipse id="XMLID_1217_" style="fill:#27DEBF;" cx="288.182" cy="60.601" rx="35.247" ry="30.873"/>
				<path id="XMLID_1150_" style="fill:#27DEBF;" d="M260.364,77.773c-0.504,4.116-4.551,11.232-11.068,13.44
					c-0.41,0.139-0.407,0.715,0.009,0.835c3.395,0.978,12.537,2.54,20.003-5.9L260.364,77.773z"/>
				<path id="XMLID_513_" style="fill:#27DEBF;" d="M316.001,77.773c0.504,4.116,4.551,11.232,11.068,13.44
					c0.41,0.139,0.407,0.715-0.009,0.835c-3.395,0.978-12.537,2.54-20.003-5.9L316.001,77.773z"/>
			</g>
		</g>
		<g>
			<path style="fill:#FAFAFA;" d="M268.078,54.565c0.95,0,1.817,0.142,2.601,0.423c0.785,0.282,1.463,0.678,2.034,1.187
				c0.571,0.509,1.018,1.119,1.342,1.828c0.323,0.709,0.506,1.483,0.547,2.323c0.013,0.289,0.02,0.554,0.02,0.795
				c0,0.241,0,0.471,0,0.692c0,0.221,0,0.447,0,0.681c0,0.234-0.007,0.489-0.02,0.764c-0.042,0.854-0.221,1.631-0.537,2.333
				c-0.317,0.702-0.754,1.308-1.312,1.817c-0.558,0.509-1.221,0.905-1.993,1.187c-0.771,0.282-1.631,0.424-2.581,0.424h-5.575
				c-0.152,0-0.282-0.055-0.392-0.165c-0.11-0.11-0.165-0.241-0.165-0.392V55.123c0-0.151,0.055-0.282,0.165-0.392
				c0.11-0.11,0.24-0.165,0.392-0.165H268.078z M270.783,60.244c-0.083-1.583-1.019-2.375-2.809-2.375h-2.106v7.847h2.21
				c1.735,0,2.636-0.791,2.705-2.374c0.013-0.289,0.02-0.561,0.02-0.816c0-0.254,0-0.502,0-0.744c0-0.24,0-0.485,0-0.733
				S270.797,60.533,270.783,60.244z"/>
			<path style="fill:#FAFAFA;" d="M287.322,65.715c0.151,0,0.282,0.055,0.392,0.165c0.11,0.111,0.165,0.241,0.165,0.392v2.189
				c0,0.152-0.055,0.282-0.165,0.392c-0.11,0.11-0.242,0.165-0.392,0.165h-9.788c-0.152,0-0.282-0.055-0.392-0.165
				c-0.11-0.11-0.165-0.241-0.165-0.392V55.123c0-0.151,0.055-0.282,0.165-0.392c0.11-0.11,0.241-0.165,0.392-0.165h9.623
				c0.151,0,0.282,0.056,0.392,0.165c0.11,0.111,0.165,0.241,0.165,0.392v2.189c0,0.152-0.055,0.282-0.165,0.392
				c-0.11,0.111-0.242,0.165-0.392,0.165h-6.36v2.23h5.905c0.152,0,0.282,0.055,0.392,0.165c0.11,0.111,0.165,0.241,0.165,0.392
				v2.189c0,0.152-0.055,0.282-0.165,0.392c-0.11,0.11-0.24,0.165-0.392,0.165h-5.905v2.313H287.322z"/>
			<path style="fill:#FAFAFA;" d="M297.894,54.565c0.275,0,0.485,0.076,0.63,0.227c0.145,0.152,0.245,0.303,0.3,0.454l4.501,13.009
				c0.055,0.138,0.082,0.241,0.082,0.31c0,0.124-0.045,0.23-0.134,0.32s-0.196,0.134-0.32,0.134h-2.601
				c-0.276,0-0.472-0.059-0.589-0.175c-0.116-0.117-0.189-0.23-0.216-0.341l-0.579-1.714h-5.492l-0.579,1.714
				c-0.027,0.111-0.1,0.224-0.216,0.341c-0.117,0.117-0.314,0.175-0.589,0.175h-2.601c-0.124,0-0.231-0.044-0.32-0.134
				c-0.09-0.09-0.134-0.196-0.134-0.32c0-0.069,0.027-0.172,0.082-0.31l4.501-13.009c0.055-0.151,0.155-0.302,0.3-0.454
				c0.145-0.151,0.355-0.227,0.63-0.227H297.894z M294.549,63.589h3.345l-1.673-4.956L294.549,63.589z"/>
			<path style="fill:#FAFAFA;" d="M315.197,65.715c0.152,0,0.282,0.055,0.392,0.165c0.11,0.111,0.165,0.241,0.165,0.392v2.189
				c0,0.152-0.055,0.282-0.165,0.392c-0.11,0.11-0.241,0.165-0.392,0.165h-9.56c-0.152,0-0.282-0.055-0.392-0.165
				c-0.11-0.11-0.165-0.241-0.165-0.392V55.123c0-0.151,0.055-0.282,0.165-0.392c0.11-0.11,0.241-0.165,0.392-0.165h2.705
				c0.152,0,0.282,0.056,0.392,0.165c0.11,0.111,0.165,0.241,0.165,0.392v10.593H315.197z"/>
		</g>
	</g>
</g>
</svg>
