<?xml version="1.0" encoding="utf-8"?>
<!-- Generator: Adobe Illustrator 27.5.0, SVG Export Plug-In . SVG Version: 6.00 Build 0)  -->
<svg version="1.1" xmlns="http://www.w3.org/2000/svg" xmlns:xlink="http://www.w3.org/1999/xlink" x="0px" y="0px"
	 viewBox="0 0 500 500" style="enable-background:new 0 0 500 500;" xml:space="preserve">
<g id="Background_Simple">
	<g>
		<path style="fill:#92E3A9;" d="M488.615,299.507c5.991-89.916-39.426-175.995-118.145-219.859
			C356.511,71.869,341.063,65.146,324,60c-126-38-173-6-206,34s-2,108-40,136s-84,68-65,127s66,98,110,94s90-56,121-22
			s130,67,195,10C473.737,408.538,485.34,348.66,488.615,299.507z"/>
		<path style="opacity:0.7;fill:#FFFFFF;" d="M488.615,299.507c5.991-89.916-39.426-175.995-118.145-219.859
			C356.511,71.869,341.063,65.146,324,60c-126-38-173-6-206,34s-2,108-40,136s-84,68-65,127s66,98,110,94s90-56,121-22
			s130,67,195,10C473.737,408.538,485.34,348.66,488.615,299.507z"/>
	</g>
</g>
<g id="Plants">
	<g>
		<path style="fill:#92E3A9;" d="M441.172,312.838c-4.201,0.71-12.073,6.118-12.079,6.122c-0.081,0.056,5.14,4.107,5.499,4.325
			c4.152,2.521,13.659,4.949,17.771,1.389c2.962-2.565,2.642-7.001-0.093-9.581C449.474,312.458,444.75,312.234,441.172,312.838z"/>
		<path style="fill:#92E3A9;" d="M423.272,291.497c-3.712,1.723-9.491,8.457-9.948,8.995c-3.738-3.256-7.837-6.293-12.154-9.138
			c-2.466-1.63-5.002-3.194-7.563-4.73c1.274,0.527,2.417,0.989,2.583,1.037c4.672,1.334,14.482,1.166,17.507-3.354
			c2.181-3.257,0.7-7.449-2.62-9.216c-3.389-1.804-8.008-0.772-11.298,0.756c-3.34,1.55-8.381,7.191-9.696,8.703
			c-0.989-0.579-1.969-1.168-2.961-1.743c-4.755-2.761-9.512-5.496-14.096-8.321c-1.616-0.995-3.17-2.034-4.73-3.068
			c1.132,0.467,2.09,0.851,2.242,0.895c4.671,1.334,14.48,1.166,17.507-3.355c2.18-3.257,0.7-7.45-2.62-9.216
			c-3.391-1.803-8.008-0.772-11.299,0.756c-3.187,1.479-7.887,6.645-9.457,8.432c-1.565-1.107-3.135-2.213-4.601-3.356
			c-0.984-0.803-1.987-1.508-2.929-2.37c-0.952-0.833-1.894-1.659-2.827-2.476c-1.739-1.639-3.544-3.321-5.2-4.963
			c-1.161-1.134-2.246-2.235-3.342-3.342c1.597,1.009,4.765,2.919,5.048,3.048c4.414,2.027,14.136,3.346,17.813-0.664
			c2.648-2.889,1.82-7.258-1.194-9.505c-3.078-2.296-7.797-1.977-11.282-0.965c-3.836,1.115-10.33,6.638-11.137,7.333
			c-1.807-1.837-3.548-3.641-5.164-5.371c-3.575-3.809-6.673-7.293-9.244-10.274l-2.984,1.952c2.731,3.039,6.045,6.62,9.902,10.552
			c1.828,1.873,3.819,3.838,5.882,5.837c-0.394,0.56-2.614,3.756-4.311,7c-3.98-0.999-11.883-0.046-12.901,0.084
			c-0.495-2.53-0.951-4.995-1.344-7.328c-0.835-4.88-1.471-9.275-1.962-13.047l-3.227,2.111c0.538,3.421,1.199,7.286,2.017,11.513
			c0.491,2.571,1.068,5.309,1.686,8.113c-0.973,0.381-8.911,3.542-11.694,6.415c-2.523,2.607-5.014,6.629-4.425,10.424
			c0.577,3.715,4.052,6.49,7.845,5.5c5.263-1.373,8.644-10.583,8.918-15.434c0.017-0.286-0.155-3.41-0.296-5.379
			c0.259,1.145,0.498,2.259,0.779,3.434c0.538,2.328,1.146,4.635,1.79,7.12c0.353,1.189,0.71,2.39,1.069,3.603
			c0.332,1.21,0.836,2.447,1.252,3.684c1.025,2.849,2.203,5.684,3.452,8.515c-2.037,0.478-9.247,2.277-12.15,4.481
			c-2.89,2.195-5.961,5.792-5.953,9.633c0.007,3.76,3.022,7.03,6.92,6.627c5.411-0.561,10.148-9.153,11.154-13.906
			c0.063-0.296,0.401-3.788,0.549-5.709c0.764,1.696,1.519,3.392,2.348,5.082c2.392,4.88,4.967,9.746,7.512,14.611
			c0.781,1.49,1.541,2.984,2.307,4.476c-0.727,0.162-9.343,2.115-12.594,4.584c-2.89,2.193-5.961,5.792-5.952,9.633
			c0.007,3.76,3.021,7.03,6.92,6.626c5.411-0.56,10.148-9.152,11.153-13.904c0.076-0.358,0.555-5.383,0.614-6.667
			c1.687,3.288,3.338,6.58,4.833,9.892c2.07,4.565,3.848,9.16,5.241,13.739c-0.338,0.074-9.34,2.073-12.67,4.601
			c-2.89,2.195-5.962,5.793-5.953,9.633c0.008,3.76,3.021,7.029,6.92,6.626c5.411-0.56,10.147-9.152,11.154-13.905
			c0.078-0.372,0.591-5.779,0.614-6.766c0.082,0.273,0.197,0.546,0.276,0.819c1.426,4.907,2.19,9.839,2.68,14.492
			c0.29,2.703,0.415,5.303,0.482,7.836c-1.715,0.2-9.542,1.202-12.79,3.146c-3.113,1.864-6.561,5.103-6.975,8.921
			c-0.406,3.738,2.231,7.319,6.15,7.346c5.44,0.037,11.092-7.983,12.613-12.596c0.083-0.251,0.641-2.894,1.02-4.825
			c0.013,1.143,0.047,2.323,0.036,3.418c-0.028,4.114-0.307,7.879-0.582,11.212c-0.172,1.893-0.363,3.603-0.561,5.2
			c-1.58,1.073-7.894,5.483-9.845,8.648c-1.903,3.089-3.472,7.552-2.08,11.132c1.364,3.505,5.354,5.468,8.844,3.686
			c4.845-2.473,6.166-12.195,5.391-16.991c-0.068-0.414-1.861-6.776-1.944-6.72c0,0-0.077,0.052-0.096,0.065
			c0.221-1.534,0.439-3.18,0.642-4.983c0.348-3.334,0.71-7.103,0.827-11.232c0.129-4.127,0.152-8.613-0.25-13.341
			c-0.396-4.74-1.056-9.705-2.397-14.733c-0.014-0.057-0.038-0.114-0.053-0.171c0.849,1.349,3.348,5.042,3.573,5.302
			c3.16,3.689,11.434,8.962,16.453,6.861c3.614-1.514,4.693-5.827,2.899-9.132c-1.834-3.374-6.253-5.061-9.841-5.602
			c-4.046-0.61-12.58,1.818-13.259,2.013c-1.32-4.777-3.065-9.571-5.095-14.326c-1.159-2.72-2.411-5.424-3.7-8.118
			c0.772,1.143,1.47,2.159,1.583,2.29c3.161,3.69,11.434,8.961,16.452,6.86c3.616-1.514,4.693-5.828,2.898-9.132
			c-1.833-3.375-6.252-5.061-9.84-5.603c-3.641-0.549-10.958,1.375-12.887,1.91c-0.506-1.028-0.999-2.062-1.508-3.088
			c-2.443-4.926-4.902-9.831-7.166-14.716c-0.8-1.721-1.523-3.445-2.252-5.168c0.686,1.014,1.273,1.862,1.375,1.982
			c3.161,3.69,11.434,8.962,16.452,6.861c3.616-1.515,4.694-5.828,2.899-9.133c-1.832-3.374-6.253-5.061-9.841-5.601
			c-3.473-0.525-10.244,1.191-12.54,1.816c-0.695-1.786-1.393-3.575-1.986-5.338c-0.377-1.213-0.824-2.354-1.136-3.593
			c-0.333-1.219-0.665-2.428-0.992-3.624c-0.545-2.328-1.123-4.725-1.599-7.008c-0.343-1.586-0.639-3.104-0.944-4.631
			c0.776,1.722,2.364,5.062,2.528,5.326c1.704,2.741,5.535,6.504,9.463,8.341c0.249,0.407,0.532,0.789,0.853,1.143
			c2.532,2.78,6.961,3.178,9.578,0.261c3.633-4.049,1.371-13.597-1.077-17.792c-0.144-0.248-2.011-2.758-3.215-4.323
			c0.848,0.812,1.661,1.61,2.544,2.435c1.734,1.644,3.513,3.233,5.421,4.951c0.95,0.797,1.91,1.601,2.881,2.414
			c0.944,0.826,2.046,1.579,3.076,2.382c2.426,1.809,4.974,3.526,7.577,5.198c-1.436,1.522-6.457,7-7.662,10.44
			c-1.2,3.424-1.776,8.12,0.349,11.318c2.082,3.132,6.398,4.198,9.427,1.71c4.205-3.452,3.416-13.232,1.633-17.751
			c-0.112-0.282-1.756-3.38-2.692-5.065c1.573,0.992,3.139,1.991,4.763,2.944c4.688,2.751,9.518,5.39,14.326,8.042
			c1.473,0.812,2.931,1.638,4.394,2.46c-0.517,0.537-6.625,6.919-7.976,10.772c-1.2,3.424-1.776,8.12,0.349,11.318
			c2.081,3.131,6.398,4.197,9.426,1.709c4.205-3.453,3.416-13.231,1.633-17.75c-0.135-0.34-2.507-4.795-3.165-5.898
			c3.22,1.811,6.413,3.646,9.488,5.583c4.245,2.667,8.262,5.518,11.95,8.568c-0.241,0.25-6.647,6.883-8.03,10.828
			c-1.2,3.424-1.777,8.12,0.349,11.318c2.08,3.132,6.397,4.197,9.426,1.709c4.205-3.452,3.415-13.232,1.632-17.75
			c-0.14-0.355-2.695-5.147-3.22-5.981c0.219,0.181,0.466,0.345,0.682,0.529c3.896,3.308,7.255,6.999,10.23,10.61
			c1.733,2.094,3.271,4.194,4.723,6.269c-1.319,1.113-7.295,6.267-8.931,9.68c-1.569,3.272-2.658,7.876-0.897,11.288
			c1.725,3.341,5.899,4.874,9.182,2.735c4.558-2.97,4.848-12.777,3.572-17.464c-0.069-0.255-1.061-2.768-1.811-4.588
			c0.641,0.947,1.321,1.912,1.916,2.832c2.245,3.447,4.09,6.741,5.7,9.672c0.902,1.674,1.684,3.206,2.4,4.647
			c-0.724,1.768-3.558,8.929-3.44,12.645c0.116,3.627,1.271,8.214,4.406,10.431c3.071,2.171,7.481,1.607,9.409-1.804
			c2.677-4.737-1.586-13.574-4.877-17.146c-0.285-0.308-5.29-4.624-5.329-4.533c0,0-0.035,0.087-0.043,0.107
			c-0.662-1.4-1.388-2.894-2.215-4.509c-1.549-2.973-3.326-6.316-5.506-9.825c-2.169-3.512-4.625-7.267-7.569-10.989
			c-2.946-3.734-6.234-7.512-10.127-10.966c-0.044-0.039-0.095-0.074-0.139-0.113c1.453,0.657,5.575,2.356,5.906,2.451
			c4.671,1.335,14.48,1.167,17.507-3.354c2.18-3.257,0.7-7.45-2.621-9.216C431.178,288.938,426.562,289.97,423.272,291.497z"/>
		<path style="fill:#92E3A9;" d="M359.197,363.957c-0.099,0.002,2.021,6.262,2.199,6.641c2.074,4.393,8.663,11.663,14.058,10.961
			c3.886-0.505,6.065-4.381,5.206-8.042c-0.876-3.738-4.694-6.533-8.011-8.002C368.755,363.789,359.205,363.957,359.197,363.957z"/>
	</g>
	<g>
		<path style="fill:#92E3A9;" d="M144.604,149.023c2.964-1.702,7.387-7.96,7.391-7.965c0.046-0.065-5.01-1.663-5.341-1.727
			c-3.826-0.744-11.657,0.071-13.763,3.894c-1.517,2.754-0.043,6.004,2.733,7.185C138.46,151.617,142.078,150.472,144.604,149.023z"
			/>
		<path style="fill:#92E3A9;" d="M164.008,160.112c2.315-2.329,4.793-9.003,4.988-9.535c3.718,1.412,7.648,2.559,11.688,3.5
			c2.309,0.541,4.653,1.014,7.008,1.458c-1.105-0.043-2.094-0.073-2.233-0.063c-3.887,0.294-11.224,3.147-12.245,7.391
			c-0.737,3.058,1.543,5.801,4.533,6.208c3.053,0.416,6.242-1.644,8.294-3.709c2.083-2.095,4.31-7.742,4.879-9.245
			c0.905,0.161,1.807,0.332,2.713,0.489c4.346,0.757,8.687,1.493,12.922,2.345c1.493,0.3,2.952,0.65,4.413,0.994
			c-0.982-0.037-1.809-0.06-1.936-0.051c-3.886,0.294-11.224,3.147-12.245,7.391c-0.736,3.057,1.544,5.802,4.533,6.208
			c3.054,0.415,6.242-1.644,8.294-3.709c1.988-1.999,4.09-7.193,4.775-8.975c1.486,0.398,2.975,0.794,4.396,1.247
			c0.964,0.331,1.915,0.582,2.864,0.97c0.948,0.363,1.887,0.722,2.816,1.078c1.765,0.751,3.59,1.515,5.293,2.291
			c1.189,0.531,2.312,1.058,3.445,1.586c-1.482-0.316-4.398-0.872-4.647-0.891c-3.886-0.299-11.57,1.41-13.223,5.45
			c-1.19,2.911,0.647,5.969,3.541,6.823c2.955,0.873,6.418-0.679,8.76-2.409c2.578-1.905,5.931-7.867,6.345-8.615
			c1.871,0.88,3.683,1.755,5.38,2.607c3.75,1.873,7.049,3.635,9.814,5.164l1.704-2.299c-2.9-1.528-6.39-3.303-10.386-5.19
			c-1.896-0.902-3.941-1.828-6.05-2.758c0.141-0.531,0.924-3.553,1.299-6.467c3.274-0.354,8.957-3.268,9.688-3.649
			c1.076,1.767,2.104,3.496,3.049,5.142c1.985,3.441,3.685,6.572,5.103,9.275l1.842-2.486c-1.356-2.425-2.927-5.151-4.718-8.105
			c-1.084-1.798-2.279-3.699-3.524-5.638c0.627-0.557,5.723-5.143,7.019-8.079c1.175-2.663,1.932-6.383,0.433-9.076
			c-1.467-2.636-4.853-3.759-7.433-1.96c-3.58,2.496-3.565,10.369-2.423,14.095c0.067,0.22,1.064,2.524,1.718,3.966
			c-0.513-0.79-1.002-1.562-1.54-2.368c-1.052-1.603-2.151-3.171-3.326-4.861c-0.596-0.797-1.199-1.602-1.806-2.415
			c-0.587-0.819-1.309-1.609-1.966-2.425c-1.563-1.859-3.238-3.666-4.965-5.45c1.4-0.926,6.327-4.284,7.899-6.75
			c1.565-2.455,2.877-6.016,1.803-8.905c-1.05-2.828-4.228-4.451-7.05-3.065c-3.917,1.926-5.095,9.71-4.531,13.567
			c0.035,0.24,0.751,2.962,1.173,4.45c-1.047-1.064-2.086-2.131-3.18-3.173c-3.157-3.008-6.447-5.955-9.715-8.91
			c-1.002-0.904-1.989-1.818-2.981-2.728c0.502-0.324,6.444-4.188,8.206-6.951c1.566-2.454,2.877-6.017,1.803-8.905
			c-1.051-2.828-4.228-4.451-7.05-3.064c-3.917,1.925-5.095,9.709-4.531,13.565c0.043,0.29,1.078,4.206,1.39,5.189
			c-2.184-2.006-4.341-4.025-6.387-6.102c-2.827-2.861-5.442-5.826-7.764-8.884c0.234-0.15,6.454-4.156,8.258-6.985
			c1.565-2.455,2.877-6.018,1.803-8.906c-1.051-2.828-4.228-4.451-7.05-3.064c-3.917,1.926-5.094,9.709-4.531,13.566
			c0.045,0.302,1.161,4.514,1.418,5.263c-0.137-0.182-0.3-0.356-0.435-0.539c-2.437-3.297-4.383-6.797-6.045-10.163
			c-0.97-1.954-1.787-3.876-2.54-5.764c1.235-0.628,6.848-3.557,8.753-5.923c1.825-2.268,3.52-5.665,2.77-8.653
			c-0.734-2.926-3.714-4.889-6.671-3.82c-4.105,1.484-6.13,9.091-5.993,12.987c0.007,0.212,0.322,2.357,0.573,3.915
			c-0.327-0.857-0.681-1.735-0.977-2.563c-1.122-3.104-1.959-6.016-2.679-8.601c-0.397-1.473-0.728-2.813-1.023-4.07
			c0.891-1.247,4.418-6.321,5.007-9.245c0.574-2.854,0.514-6.649-1.529-8.957c-2.001-2.259-5.549-2.627-7.681-0.316
			c-2.96,3.208-1.252,10.893,0.665,14.287c0.166,0.293,3.284,4.583,3.331,4.518c0,0,0.044-0.06,0.054-0.075
			c0.26,1.216,0.553,2.515,0.902,3.929c0.665,2.606,1.44,5.544,2.499,8.684c1.05,3.142,2.28,6.525,3.896,9.972
			c1.616,3.458,3.493,7.011,5.899,10.423c0.027,0.039,0.06,0.075,0.087,0.114c-1.014-0.779-3.922-2.864-4.163-2.998
			c-3.404-1.899-11.097-3.568-14.291-0.591c-2.3,2.144-1.913,5.691,0.356,7.679c2.318,2.03,6.113,2.072,8.964,1.482
			c3.215-0.665,8.964-4.865,9.421-5.2c2.322,3.229,4.967,6.352,7.817,9.367c1.629,1.725,3.322,3.412,5.041,5.082
			c-0.898-0.646-1.706-1.217-1.828-1.284c-3.404-1.899-11.097-3.568-14.29-0.591c-2.301,2.144-1.913,5.691,0.356,7.679
			c2.317,2.031,6.113,2.072,8.964,1.482c2.893-0.599,7.866-4.08,9.17-5.019c0.666,0.633,1.325,1.274,1.994,1.905
			c3.207,3.029,6.422,6.037,9.484,9.085c1.08,1.073,2.104,2.17,3.132,3.264c-0.798-0.572-1.475-1.048-1.586-1.11
			c-3.405-1.899-11.097-3.568-14.29-0.592c-2.3,2.145-1.914,5.691,0.356,7.68c2.317,2.03,6.113,2.071,8.964,1.481
			c2.76-0.57,7.38-3.743,8.934-4.852c1.019,1.152,2.042,2.304,2.978,3.466c0.621,0.808,1.274,1.543,1.854,2.389
			c0.59,0.825,1.175,1.643,1.754,2.452c1.057,1.6,2.159,3.244,3.151,4.831c0.699,1.099,1.344,2.159,1.997,3.223
			c-1.062-1.081-3.186-3.153-3.383-3.306c-2.045-1.589-5.974-3.357-9.441-3.648c-0.3-0.237-0.62-0.446-0.96-0.623
			c-2.678-1.389-6.122-0.458-7.282,2.466c-1.609,4.057,2.747,10.615,5.755,13.093c0.177,0.146,2.28,1.517,3.621,2.361
			c-0.864-0.375-1.698-0.75-2.591-1.126c-1.762-0.755-3.543-1.457-5.456-2.22c-0.937-0.336-1.883-0.674-2.839-1.017
			c-0.94-0.36-1.979-0.62-2.977-0.938c-2.329-0.688-4.724-1.272-7.148-1.806c0.658-1.545,2.915-7.064,2.865-9.988
			c-0.048-2.911-0.92-6.605-3.408-8.422c-2.437-1.779-5.982-1.381-7.571,1.333c-2.205,3.767,1.107,10.909,3.705,13.815
			c0.162,0.181,2.261,2.056,3.434,3.064c-1.46-0.31-2.916-0.626-4.403-0.892c-4.293-0.768-8.662-1.411-13.018-2.072
			c-1.335-0.202-2.661-0.419-3.991-0.631c0.24-0.548,3.064-7.05,3.009-10.325c-0.049-2.91-0.92-6.605-3.409-8.422
			c-2.436-1.779-5.982-1.38-7.57,1.334c-2.205,3.767,1.106,10.909,3.704,13.814c0.196,0.219,3.219,2.913,4.022,3.56
			c-2.927-0.468-5.841-0.962-8.693-1.566c-3.936-0.828-7.753-1.857-11.376-3.128c0.112-0.255,3.09-7.028,3.034-10.382
			c-0.049-2.911-0.919-6.605-3.409-8.422c-2.436-1.779-5.981-1.381-7.57,1.334c-2.205,3.767,1.107,10.909,3.705,13.814
			c0.204,0.228,3.459,3.125,4.086,3.607c-0.215-0.076-0.447-0.13-0.66-0.208c-3.852-1.407-7.406-3.252-10.649-5.143
			c-1.886-1.095-3.628-2.247-5.298-3.406c0.684-1.205,3.749-6.744,4.032-9.769c0.271-2.899-0.188-6.667-2.462-8.746
			c-2.227-2.036-5.795-2.029-7.672,0.493c-2.606,3.502-0.098,10.965,2.165,14.138c0.123,0.173,1.568,1.789,2.638,2.95
			c-0.746-0.535-1.525-1.072-2.229-1.599c-2.648-1.97-4.952-3.937-6.979-5.696c-1.144-1.01-2.159-1.945-3.098-2.831
			c0.054-1.532,0.196-7.71-0.925-10.474c-1.095-2.698-3.239-5.829-6.216-6.627c-2.915-0.781-6.078,0.87-6.581,3.973
			c-0.699,4.309,4.966,9.776,8.437,11.55c0.3,0.152,5.267,2.01,5.271,1.931c0,0,0.003-0.075,0.003-0.092
			c0.887,0.87,1.849,1.792,2.92,2.779c1.992,1.807,4.259,3.83,6.875,5.865c2.609,2.04,5.501,4.185,8.751,6.168
			c3.255,1.992,6.78,3.922,10.67,5.439c0.044,0.017,0.092,0.029,0.136,0.046c-1.276-0.091-4.851-0.224-5.127-0.203
			c-3.886,0.294-11.224,3.146-12.245,7.39c-0.735,3.058,1.544,5.803,4.534,6.209C158.768,164.235,161.956,162.176,164.008,160.112z"
			/>
		<path style="fill:#92E3A9;" d="M192.098,87.764c0.074-0.029-3.262-4.151-3.501-4.387c-2.782-2.73-9.762-6.371-13.628-4.343
			c-2.785,1.46-3.348,4.983-1.683,7.5c1.699,2.57,5.348,3.613,8.254,3.796C184.951,90.546,192.092,87.765,192.098,87.764z"/>
	</g>
</g>
<g id="Icons">
	<g style="opacity:0.1;">
		<path d="M74.75,184.73c0.139-1.066-1.096-2.237-1.096-3.341c0-1.104,1.235-2.275,1.096-3.341c-0.142-1.091-1.64-1.905-1.918-2.946
			c-0.283-1.059,0.606-2.512,0.192-3.51c-0.419-1.01-2.077-1.407-2.619-2.345c-0.547-0.945-0.065-2.579-0.727-3.439
			c-0.664-0.864-2.367-0.819-3.136-1.588c-0.769-0.769-0.724-2.473-1.588-3.136c-0.861-0.662-2.495-0.18-3.439-0.726
			c-0.938-0.543-1.335-2.2-2.345-2.619c-0.999-0.414-2.451,0.475-3.51,0.192c-1.042-0.278-1.856-1.776-2.946-1.918
			c-1.066-0.139-2.237,1.096-3.341,1.096c-1.104,0-2.275-1.235-3.341-1.096c-1.091,0.142-1.905,1.64-2.946,1.918
			c-1.059,0.283-2.512-0.606-3.511-0.192c-1.01,0.419-1.407,2.077-2.345,2.619c-0.945,0.547-2.579,0.065-3.44,0.727
			c-0.864,0.664-0.819,2.367-1.588,3.137c-0.769,0.769-2.473,0.724-3.136,1.588c-0.662,0.861-0.18,2.495-0.726,3.439
			c-0.543,0.938-2.2,1.335-2.619,2.345c-0.414,0.999,0.475,2.451,0.192,3.51c-0.278,1.041-1.776,1.856-1.918,2.946
			c-0.139,1.066,1.096,2.237,1.096,3.341c0,1.103-1.235,2.275-1.096,3.341c0.142,1.091,1.64,1.905,1.918,2.946
			c0.283,1.059-0.606,2.512-0.192,3.51c0.419,1.01,2.077,1.407,2.619,2.345c0.546,0.945,0.065,2.579,0.726,3.439
			c0.664,0.864,2.367,0.819,3.136,1.588c0.769,0.769,0.724,2.473,1.588,3.136c0.861,0.662,2.495,0.18,3.439,0.726
			c0.938,0.543,1.335,2.2,2.345,2.619c0.999,0.414,2.451-0.475,3.51-0.192c1.042,0.278,1.856,1.776,2.946,1.918
			c1.066,0.139,2.237-1.096,3.341-1.096c1.104,0,2.275,1.235,3.341,1.096c1.091-0.142,1.905-1.64,2.946-1.918
			c1.059-0.283,2.512,0.606,3.51,0.192c1.01-0.419,1.407-2.077,2.345-2.619c0.945-0.546,2.578-0.065,3.439-0.727
			c0.864-0.664,0.819-2.367,1.588-3.136c0.769-0.769,2.473-0.724,3.136-1.588c0.662-0.861,0.18-2.495,0.726-3.439
			c0.543-0.938,2.2-1.335,2.619-2.345c0.414-0.999-0.475-2.451-0.192-3.51C73.111,186.634,74.608,185.82,74.75,184.73z
			 M49.372,201.077c-10.873,0-19.688-8.815-19.688-19.688c0-10.873,8.815-19.688,19.688-19.688s19.688,8.815,19.688,19.688
			C69.06,192.262,60.246,201.077,49.372,201.077z"/>
		<ellipse transform="matrix(0.7071 -0.7071 0.7071 0.7071 -113.8006 88.0391)" cx="49.372" cy="181.389" rx="15.75" ry="15.75"/>
	</g>
	<g style="opacity:0.1;">
		<path d="M464.747,177.348c0.186-1.422-1.463-2.986-1.463-4.459c0-1.473,1.649-3.037,1.463-4.459
			c-0.19-1.456-2.188-2.542-2.56-3.933c-0.378-1.414,0.809-3.353,0.256-4.686c-0.559-1.348-2.772-1.878-3.496-3.13
			c-0.73-1.261-0.087-3.442-0.97-4.591c-0.886-1.153-3.16-1.093-4.187-2.12c-1.027-1.027-0.967-3.3-2.12-4.186
			c-1.149-0.883-3.33-0.24-4.591-0.969c-1.252-0.724-1.782-2.937-3.13-3.496c-1.333-0.553-3.271,0.634-4.685,0.256
			c-1.39-0.372-2.477-2.37-3.932-2.56c-1.422-0.186-2.986,1.463-4.459,1.463c-1.473,0-3.037-1.649-4.459-1.463
			c-1.456,0.19-2.542,2.188-3.933,2.56c-1.414,0.378-3.353-0.809-4.686-0.256c-1.348,0.559-1.878,2.772-3.13,3.496
			c-1.261,0.73-3.442,0.087-4.591,0.97c-1.153,0.886-1.093,3.16-2.12,4.187c-1.027,1.027-3.3,0.967-4.186,2.12
			c-0.883,1.149-0.24,3.33-0.969,4.591c-0.724,1.252-2.937,1.781-3.496,3.13c-0.553,1.333,0.634,3.271,0.256,4.685
			c-0.372,1.39-2.37,2.477-2.56,3.932c-0.185,1.423,1.464,2.986,1.464,4.459c0,1.473-1.649,3.037-1.464,4.459
			c0.19,1.456,2.189,2.542,2.56,3.933c0.378,1.414-0.809,3.353-0.256,4.686c0.559,1.348,2.772,1.878,3.496,3.13
			c0.73,1.261,0.087,3.442,0.97,4.591c0.886,1.153,3.16,1.093,4.187,2.12c1.026,1.027,0.967,3.3,2.12,4.186
			c1.149,0.883,3.33,0.24,4.591,0.969c1.252,0.725,1.781,2.937,3.13,3.496c1.333,0.553,3.271-0.634,4.685-0.256
			c1.39,0.372,2.477,2.37,3.932,2.56c1.422,0.185,2.986-1.464,4.459-1.464c1.473,0,3.037,1.649,4.459,1.464
			c1.456-0.19,2.542-2.189,3.933-2.56c1.414-0.378,3.353,0.809,4.686,0.256c1.348-0.559,1.878-2.772,3.13-3.496
			c1.261-0.73,3.442-0.087,4.591-0.97c1.153-0.886,1.093-3.16,2.12-4.187c1.027-1.026,3.3-0.967,4.186-2.12
			c0.883-1.149,0.24-3.33,0.969-4.591c0.724-1.252,2.937-1.781,3.496-3.13c0.553-1.333-0.634-3.271-0.256-4.685
			C462.558,179.891,464.557,178.804,464.747,177.348z M430.872,199.168c-14.513,0-26.279-11.766-26.279-26.279
			c0-14.514,11.766-26.279,26.279-26.279c14.514,0,26.279,11.766,26.279,26.279C457.151,187.402,445.386,199.168,430.872,199.168z"
			/>
		
			<ellipse transform="matrix(0.8025 -0.5967 0.5967 0.8025 -18.0553 291.2342)" cx="430.872" cy="172.889" rx="21.023" ry="21.023"/>
	</g>
	<g style="opacity:0.1;">
		<path d="M409.578,391.132c-12.15,0-22,9.85-22,22s9.85,22,22,22c12.15,0,22-9.85,22-22S421.728,391.132,409.578,391.132z
			 M411,428.394v2.317h-2.799v-2.317c-3.805-0.525-5.51-3.412-5.51-7.566v-1.88h3.192v2.099c0,2.755,1.137,4.33,3.586,4.33
			c2.493,0,3.586-1.575,3.586-4.33c0-6.822-10.233-6.909-10.233-15.525c0-4.198,1.706-6.953,5.379-7.522v-2.448H411V398
			c3.717,0.525,5.422,3.412,5.422,7.522v0.831h-3.192v-1.049c0-2.711-1.093-4.374-3.543-4.374c-2.405,0-3.499,1.662-3.499,4.374
			c0,6.867,10.277,6.91,10.277,15.525C416.465,424.939,414.717,427.869,411,428.394z"/>
		<path d="M409.578,377.132c-19.882,0-36,16.118-36,36c0,19.882,16.118,36,36,36c19.882,0,36-16.118,36-36
			C445.578,393.25,429.46,377.132,409.578,377.132z M409.578,440.132c-14.912,0-27-12.088-27-27c0-14.912,12.088-27,27-27
			c14.912,0,27,12.088,27,27C436.578,428.043,424.49,440.132,409.578,440.132z"/>
	</g>
	<g style="opacity:0.1;">
		<path d="M324.571,422.337c-8.582,0-15.54,6.957-15.54,15.54c0,8.582,6.957,15.54,15.54,15.54c8.582,0,15.54-6.957,15.54-15.54
			C340.111,429.295,333.154,422.337,324.571,422.337z M325.576,448.658v1.637h-1.977v-1.637c-2.687-0.371-3.892-2.41-3.892-5.344
			v-1.328h2.255v1.482c0,1.946,0.803,3.059,2.533,3.059c1.761,0,2.533-1.112,2.533-3.059c0-4.819-7.228-4.88-7.228-10.966
			c0-2.965,1.205-4.911,3.8-5.313v-1.729h1.977v1.729c2.626,0.371,3.83,2.41,3.83,5.313v0.587h-2.255v-0.741
			c0-1.915-0.772-3.089-2.502-3.089c-1.698,0-2.471,1.174-2.471,3.089c0,4.85,7.259,4.881,7.259,10.966
			C329.436,446.218,328.201,448.287,325.576,448.658z"/>
		<path d="M324.571,412.448c-14.044,0-25.429,11.385-25.429,25.429c0,14.044,11.385,25.429,25.429,25.429
			c14.044,0,25.429-11.385,25.429-25.429C350,423.833,338.615,412.448,324.571,412.448z M324.571,456.949
			c-10.533,0-19.072-8.539-19.072-19.072c0-10.533,8.539-19.072,19.072-19.072c10.533,0,19.072,8.539,19.072,19.072
			C343.643,448.41,335.104,456.949,324.571,456.949z"/>
	</g>
	<g style="opacity:0.1;">
		<path d="M297.706,368.347c-8.582,0-15.54,6.957-15.54,15.54c0,8.582,6.958,15.54,15.54,15.54c8.582,0,15.54-6.957,15.54-15.54
			C313.245,375.305,306.288,368.347,297.706,368.347z M298.71,394.668v1.637h-1.977v-1.637c-2.687-0.371-3.892-2.41-3.892-5.344
			v-1.328h2.255v1.482c0,1.946,0.803,3.059,2.533,3.059c1.761,0,2.533-1.112,2.533-3.059c0-4.819-7.228-4.88-7.228-10.966
			c0-2.965,1.205-4.911,3.8-5.313v-1.729h1.977v1.729c2.626,0.371,3.83,2.41,3.83,5.313v0.587h-2.255v-0.741
			c0-1.915-0.772-3.089-2.502-3.089c-1.699,0-2.472,1.174-2.472,3.089c0,4.85,7.259,4.881,7.259,10.967
			C302.57,392.227,301.336,394.297,298.71,394.668z"/>
		<path d="M297.706,358.458c-14.044,0-25.429,11.385-25.429,25.429s11.385,25.429,25.429,25.429s25.429-11.385,25.429-25.429
			S311.75,358.458,297.706,358.458z M297.706,402.959c-10.533,0-19.072-8.539-19.072-19.072s8.539-19.072,19.072-19.072
			s19.072,8.539,19.072,19.072S308.239,402.959,297.706,402.959z"/>
	</g>
	<g>
		<polygon style="opacity:0.1;" points="85.778,74.034 100.488,74.034 93.133,61.295 		"/>
		<polygon style="opacity:0.1;" points="56.91,74.034 71.62,74.034 64.265,61.295 		"/>
		<path style="opacity:0.1;" d="M78.699,44.674c-15.78,0-28.617,12.837-28.617,28.617s12.837,28.617,28.617,28.617
			s28.617-12.837,28.617-28.617S94.479,44.674,78.699,44.674z M98.94,77.951H87.327c-2.486,0-4.04-2.691-2.797-4.844l8.402-14.553
			H80.68v27.842h4.544v2.373h6.327v3.334H66.638v-3.334h5.536v-2.373h5.793V58.555H64.466l8.402,14.553
			c1.243,2.153-0.311,4.844-2.797,4.844H58.459c-2.486,0-4.04-2.691-2.797-4.844l8.402-14.553h-0.34
			c-0.749,0-1.357-0.607-1.357-1.356c0-0.749,0.607-1.356,1.357-1.356h14.243v-0.007c0-0.749,0.607-1.356,1.356-1.356
			c0.749,0,1.356,0.607,1.356,1.356v0.007h14.243c0.749,0,1.356,0.607,1.356,1.356c0,0.749-0.607,1.356-1.356,1.356h-1.589
			l8.402,14.553C102.979,75.26,101.426,77.951,98.94,77.951z"/>
		<path style="opacity:0.1;" d="M78.699,40.522c-18.098,0-32.769,14.671-32.769,32.769c0,18.098,14.671,32.769,32.769,32.769
			c18.098,0,32.769-14.671,32.769-32.769C111.468,55.193,96.797,40.522,78.699,40.522z M78.699,102.908
			c-16.331,0-29.617-13.286-29.617-29.617c0-16.331,13.286-29.617,29.617-29.617c16.331,0,29.617,13.286,29.617,29.617
			C108.316,89.622,95.03,102.908,78.699,102.908z"/>
	</g>
	<g>
		<polygon style="opacity:0.1;" points="107.614,409.485 122.324,409.485 114.969,396.746 		"/>
		<polygon style="opacity:0.1;" points="78.746,409.485 93.456,409.485 86.101,396.746 		"/>
		<path style="opacity:0.1;" d="M100.535,380.125c-15.78,0-28.617,12.837-28.617,28.617c0,15.78,12.837,28.617,28.617,28.617
			s28.617-12.837,28.617-28.617C129.152,392.962,116.314,380.125,100.535,380.125z M120.775,413.402h-11.613
			c-2.486,0-4.04-2.691-2.797-4.844l8.402-14.552h-12.252v27.842h4.544v2.373h6.327v3.334H88.473v-3.334h5.536v-2.373h5.793v-27.842
			H86.302l8.402,14.552c1.243,2.153-0.311,4.844-2.797,4.844H80.294c-2.486,0-4.04-2.691-2.797-4.844l8.402-14.552h-0.34
			c-0.749,0-1.356-0.607-1.356-1.357s0.607-1.357,1.356-1.357h14.243v-0.007c0-0.749,0.607-1.356,1.356-1.356
			c0.749,0,1.356,0.607,1.356,1.356v0.007h14.243c0.749,0,1.356,0.607,1.356,1.357s-0.607,1.357-1.356,1.357h-1.589l8.402,14.552
			C124.815,410.711,123.261,413.402,120.775,413.402z"/>
		<path style="opacity:0.1;" d="M100.535,375.973c-18.098,0-32.769,14.671-32.769,32.769c0,18.098,14.671,32.769,32.769,32.769
			c18.098,0,32.769-14.671,32.769-32.769C133.303,390.644,118.632,375.973,100.535,375.973z M100.535,438.359
			c-16.331,0-29.617-13.286-29.617-29.617c0-16.331,13.286-29.617,29.617-29.617c16.331,0,29.617,13.286,29.617,29.617
			C130.152,425.073,116.866,438.359,100.535,438.359z"/>
	</g>
</g>
<g id="Floor_1_">
	<ellipse style="fill:#263238;" cx="246" cy="481" rx="207" ry="8"/>
</g>
<g id="Contract">
	<g>
		<path style="fill:#FFFFFF;stroke:#263238;stroke-linecap:round;stroke-linejoin:round;stroke-miterlimit:10;" d="M392.477,278.666
			c5.909,1.102,12.359-2.683,16.045-8.772c2.764-4.571,3.74-9.089,4.869-14.256c1.229-5.665,45.145-209.823,45.587-211.847H236.562
			l-45.28,210.41l-1.843,8.492c-0.379,1.753-1.057,3.433-1.988,4.969l-1.346,2.232c-2.945,4.861-7.887,7.236-12.811,7.236
			c-5.556,0-11.094-3.017-13.714-8.872c-3.939-8.79-12.449-13.904-21.312-14.058c-0.135-0.009-0.28-0.009-0.425-0.009
			c-0.135,0-0.271,0-0.407,0.009c-4.192,0.063-8.447,1.256-12.296,3.695c-5.213,3.307-8.935,8.51-10.381,14.509l-18.385,76.25
			h222.417l16.876-69.989"/>
		<g>
			<path style="fill:#263238;" d="M306.951,67.54l-0.324,1.683h-1.977l0.345-1.79c0.324-1.682-0.148-2.698-1.671-2.698
				c-1.496,0-2.386,1.015-2.71,2.698l-1.905,9.884c-0.324,1.683,0.175,2.698,1.671,2.698c1.522,0,2.386-1.015,2.71-2.698
				l0.469-2.431h1.977l-0.448,2.324c-0.546,2.831-2.242,4.701-5.127,4.701c-2.859,0-3.833-1.87-3.287-4.701l1.864-9.67
				c0.546-2.831,2.241-4.701,5.099-4.701C306.521,62.838,307.496,64.709,306.951,67.54z"/>
			<path style="fill:#263238;" d="M308.688,67.54c0.551-2.858,2.323-4.701,5.179-4.701c2.885,0,3.947,1.844,3.396,4.701l-1.864,9.67
				c-0.545,2.831-2.323,4.701-5.208,4.701c-2.858,0-3.913-1.87-3.367-4.701L308.688,67.54z M308.86,77.317
				c-0.33,1.709,0.201,2.698,1.697,2.698c1.522,0,2.407-0.988,2.737-2.698l1.905-9.884c0.324-1.682-0.175-2.698-1.697-2.698
				c-1.496,0-2.413,1.015-2.737,2.698L308.86,77.317z"/>
			<path style="fill:#263238;" d="M318.349,81.724h-1.87l3.604-18.698h2.646l1.722,13.516l2.606-13.516h1.842l-3.604,18.698h-2.164
				l-1.866-15.119L318.349,81.724z"/>
			<path style="fill:#263238;" d="M330.13,81.724l3.239-16.802h-3.446l0.366-1.897h8.948l-0.365,1.897h-3.446l-3.239,16.802H330.13z
				"/>
			<path style="fill:#263238;" d="M344.822,63.026c2.938,0,3.879,1.496,3.344,4.274l-0.294,1.523
				c-0.396,2.057-1.365,3.339-3.066,3.846c1.612,0.507,1.985,1.896,1.599,3.9l-0.562,2.912c-0.16,0.828-0.282,1.603-0.059,2.244
				h-2.111c-0.136-0.535-0.151-1.015,0.091-2.27l0.566-2.938c0.407-2.111-0.453-2.778-2.19-2.778h-1.469l-1.539,7.987h-2.084
				l3.604-18.698H344.822z M342.589,71.841c1.656,0,2.747-0.534,3.139-2.565l0.345-1.789c0.324-1.683-0.12-2.564-1.67-2.564h-2.03
				l-1.333,6.918H342.589z"/>
			<path style="fill:#263238;" d="M350.413,77.958l-1.447,3.766h-1.924l7.185-18.698h3.018l-0.025,18.698h-2.084l0.005-3.766
				H350.413z M351.025,76.168h4.167l-0.029-10.792L351.025,76.168z"/>
			<path style="fill:#263238;" d="M369.812,67.54l-0.324,1.683h-1.977l0.345-1.79c0.324-1.682-0.148-2.698-1.671-2.698
				c-1.496,0-2.386,1.015-2.71,2.698l-1.905,9.884c-0.324,1.683,0.175,2.698,1.671,2.698c1.522,0,2.386-1.015,2.71-2.698
				l0.468-2.431h1.977l-0.448,2.324c-0.546,2.831-2.242,4.701-5.127,4.701c-2.859,0-3.833-1.87-3.287-4.701l1.864-9.67
				c0.545-2.831,2.241-4.701,5.099-4.701C369.382,62.838,370.357,64.709,369.812,67.54z"/>
			<path style="fill:#263238;" d="M371.673,81.724l3.239-16.802h-3.446l0.365-1.897h8.95l-0.366,1.897h-3.446l-3.239,16.802H371.673
				z"/>
		</g>
		<line style="fill:none;stroke:#263238;stroke-miterlimit:10;" x1="242.293" y1="90.856" x2="438.48" y2="90.856"/>
		<g>
			<g>
				<g>
					<line style="fill:none;stroke:#263238;stroke-miterlimit:10;" x1="386.292" y1="112.601" x2="432.198" y2="112.601"/>
					<line style="fill:none;stroke:#263238;stroke-miterlimit:10;" x1="314.293" y1="112.601" x2="381.46" y2="112.601"/>
					<line style="fill:none;stroke:#263238;stroke-miterlimit:10;" x1="269.353" y1="112.601" x2="310.427" y2="112.601"/>
					<line style="fill:none;stroke:#263238;stroke-miterlimit:10;" x1="236.011" y1="112.601" x2="265.488" y2="112.601"/>
					<line style="fill:none;stroke:#263238;stroke-miterlimit:10;" x1="380.493" y1="123.715" x2="429.782" y2="123.715"/>
					<line style="fill:none;stroke:#263238;stroke-miterlimit:10;" x1="268.87" y1="123.715" x2="375.661" y2="123.715"/>
					<line style="fill:none;stroke:#263238;stroke-miterlimit:10;" x1="233.595" y1="123.715" x2="264.521" y2="123.715"/>
					<line style="fill:none;stroke:#263238;stroke-miterlimit:10;" x1="370.346" y1="134.829" x2="427.366" y2="134.829"/>
					<line style="fill:none;stroke:#263238;stroke-miterlimit:10;" x1="284.816" y1="134.829" x2="366.48" y2="134.829"/>
					<line style="fill:none;stroke:#263238;stroke-miterlimit:10;" x1="231.179" y1="134.829" x2="280.951" y2="134.829"/>
					<line style="fill:none;stroke:#263238;stroke-miterlimit:10;" x1="389.191" y1="145.943" x2="424.95" y2="145.943"/>
					<line style="fill:none;stroke:#263238;stroke-miterlimit:10;" x1="334.588" y1="145.943" x2="384.359" y2="145.943"/>
					<line style="fill:none;stroke:#263238;stroke-miterlimit:10;" x1="281.917" y1="145.943" x2="329.756" y2="145.943"/>
					<line style="fill:none;stroke:#263238;stroke-miterlimit:10;" x1="242.293" y1="145.943" x2="277.568" y2="145.943"/>
					<line style="fill:none;stroke:#263238;stroke-miterlimit:10;" x1="228.763" y1="145.943" x2="237.944" y2="145.943"/>
					<line style="fill:none;stroke:#263238;stroke-miterlimit:10;" x1="414.319" y1="157.057" x2="422.533" y2="157.057"/>
					<line style="fill:none;stroke:#263238;stroke-miterlimit:10;" x1="332.655" y1="157.057" x2="408.037" y2="157.057"/>
					<line style="fill:none;stroke:#263238;stroke-miterlimit:10;" x1="275.152" y1="157.057" x2="327.823" y2="157.057"/>
					<line style="fill:none;stroke:#263238;stroke-miterlimit:10;" x1="226.347" y1="157.057" x2="269.837" y2="157.057"/>
					<line style="fill:none;stroke:#263238;stroke-miterlimit:10;" x1="403.688" y1="168.171" x2="420.117" y2="168.171"/>
					<line style="fill:none;stroke:#263238;stroke-miterlimit:10;" x1="355.849" y1="168.171" x2="399.339" y2="168.171"/>
					<line style="fill:none;stroke:#263238;stroke-miterlimit:10;" x1="341.353" y1="168.171" x2="351.017" y2="168.171"/>
					<line style="fill:none;stroke:#263238;stroke-miterlimit:10;" x1="271.769" y1="168.171" x2="338.937" y2="168.171"/>
					<line style="fill:none;stroke:#263238;stroke-miterlimit:10;" x1="223.931" y1="168.171" x2="267.904" y2="168.171"/>
					<line style="fill:none;stroke:#263238;stroke-miterlimit:10;" x1="221.515" y1="179.285" x2="417.701" y2="179.285"/>
					<line style="fill:none;stroke:#263238;stroke-miterlimit:10;" x1="405.138" y1="190.399" x2="415.285" y2="190.399"/>
					<line style="fill:none;stroke:#263238;stroke-miterlimit:10;" x1="360.682" y1="190.399" x2="398.856" y2="190.399"/>
					<line style="fill:none;stroke:#263238;stroke-miterlimit:10;" x1="296.897" y1="190.399" x2="353.917" y2="190.399"/>
					<line style="fill:none;stroke:#263238;stroke-miterlimit:10;" x1="282.883" y1="190.399" x2="292.548" y2="190.399"/>
					<line style="fill:none;stroke:#263238;stroke-miterlimit:10;" x1="238.427" y1="190.399" x2="277.568" y2="190.399"/>
					<line style="fill:none;stroke:#263238;stroke-miterlimit:10;" x1="219.099" y1="190.399" x2="232.629" y2="190.399"/>
					<line style="fill:none;stroke:#263238;stroke-miterlimit:10;" x1="363.581" y1="201.513" x2="412.869" y2="201.513"/>
					<line style="fill:none;stroke:#263238;stroke-miterlimit:10;" x1="311.393" y1="201.513" x2="357.299" y2="201.513"/>
					<line style="fill:none;stroke:#263238;stroke-miterlimit:10;" x1="271.286" y1="201.513" x2="306.561" y2="201.513"/>
					<line style="fill:none;stroke:#263238;stroke-miterlimit:10;" x1="216.683" y1="201.513" x2="266.454" y2="201.513"/>
					<line style="fill:none;stroke:#263238;stroke-miterlimit:10;" x1="394.99" y1="212.627" x2="410.453" y2="212.627"/>
					<line style="fill:none;stroke:#263238;stroke-miterlimit:10;" x1="343.769" y1="212.627" x2="389.675" y2="212.627"/>
					<line style="fill:none;stroke:#263238;stroke-miterlimit:10;" x1="310.91" y1="212.627" x2="340.386" y2="212.627"/>
					<line style="fill:none;stroke:#263238;stroke-miterlimit:10;" x1="284.333" y1="212.627" x2="306.078" y2="212.627"/>
					<line style="fill:none;stroke:#263238;stroke-miterlimit:10;" x1="259.206" y1="212.627" x2="280.467" y2="212.627"/>
					<line style="fill:none;stroke:#263238;stroke-miterlimit:10;" x1="227.313" y1="212.627" x2="253.89" y2="212.627"/>
					<line style="fill:none;stroke:#263238;stroke-miterlimit:10;" x1="214.266" y1="212.627" x2="222.964" y2="212.627"/>
					<line style="fill:none;stroke:#263238;stroke-miterlimit:10;" x1="381.943" y1="223.741" x2="408.037" y2="223.741"/>
					<line style="fill:none;stroke:#263238;stroke-miterlimit:10;" x1="336.037" y1="223.741" x2="376.145" y2="223.741"/>
					<line style="fill:none;stroke:#263238;stroke-miterlimit:10;" x1="293.031" y1="223.741" x2="330.239" y2="223.741"/>
					<line style="fill:none;stroke:#263238;stroke-miterlimit:10;" x1="242.776" y1="223.741" x2="287.232" y2="223.741"/>
					<line style="fill:none;stroke:#263238;stroke-miterlimit:10;" x1="211.85" y1="223.741" x2="237.944" y2="223.741"/>
					<line style="fill:none;stroke:#263238;stroke-miterlimit:10;" x1="380.493" y1="234.855" x2="405.621" y2="234.855"/>
					<line style="fill:none;stroke:#263238;stroke-miterlimit:10;" x1="337.004" y1="234.855" x2="375.661" y2="234.855"/>
					<line style="fill:none;stroke:#263238;stroke-miterlimit:10;" x1="292.065" y1="234.855" x2="330.239" y2="234.855"/>
					<line style="fill:none;stroke:#263238;stroke-miterlimit:10;" x1="261.139" y1="234.855" x2="287.716" y2="234.855"/>
					<line style="fill:none;stroke:#263238;stroke-miterlimit:10;" x1="229.246" y1="234.855" x2="256.306" y2="234.855"/>
					<line style="fill:none;stroke:#263238;stroke-miterlimit:10;" x1="209.434" y1="234.855" x2="226.347" y2="234.855"/>
				</g>
				<line style="fill:none;stroke:#263238;stroke-miterlimit:10;" x1="388.708" y1="245.969" x2="403.205" y2="245.969"/>
			</g>
			<line style="fill:none;stroke:#263238;stroke-miterlimit:10;" x1="339.42" y1="245.969" x2="383.876" y2="245.969"/>
			<line style="fill:none;stroke:#263238;stroke-miterlimit:10;" x1="300.279" y1="245.969" x2="333.621" y2="245.969"/>
			<line style="fill:none;stroke:#263238;stroke-miterlimit:10;" x1="274.669" y1="245.969" x2="294.964" y2="245.969"/>
			<line style="fill:none;stroke:#263238;stroke-miterlimit:10;" x1="233.595" y1="245.969" x2="267.421" y2="245.969"/>
			<line style="fill:none;stroke:#263238;stroke-miterlimit:10;" x1="207.018" y1="245.969" x2="230.213" y2="245.969"/>
		</g>
		<path style="fill:#FFFFFF;stroke:#263238;stroke-linecap:round;stroke-linejoin:round;stroke-miterlimit:10;" d="M358.309,254.201
			v0.072c-3.686,0.307-7.372,1.482-10.751,3.623c-2.611,1.653-4.842,3.785-6.604,6.243c-1.762,2.466-3.054,5.267-3.776,8.266
			l-18.385,76.25H96.376l18.385-76.25c1.446-5.999,5.168-11.203,10.381-14.509c3.849-2.439,8.104-3.632,12.296-3.695H358.309z"/>
		<path style="fill:#263238;stroke:#263238;stroke-linecap:round;stroke-linejoin:round;stroke-miterlimit:10;" d="M392.477,278.666
			h-56.808l1.509-6.261c0.723-2.999,2.015-5.8,3.776-8.266c1.762-2.457,3.993-4.589,6.604-6.243
			c3.379-2.141,7.065-3.316,10.751-3.623c0.65-0.054,1.301-0.081,1.951-0.081c9.016,0,18.249,4.924,21.737,14.066
			C384.464,274.718,388.33,277.889,392.477,278.666z"/>
		<g>
			<path style="fill:#92E3A9;" d="M322.916,272.154c0,0.732-1.803,1.288-1.937,1.99c-0.135,0.711,1.339,1.885,1.078,2.559
				c-0.26,0.669-2.145,0.55-2.52,1.174c-0.368,0.612,0.633,2.211,0.165,2.773c-0.456,0.546-2.216-0.143-2.759,0.348
				c-0.527,0.477-0.006,2.293-0.607,2.712c-0.583,0.407-2.114-0.703-2.76-0.357c-0.627,0.337-0.539,2.225-1.218,2.5
				c-0.66,0.267-1.915-1.147-2.619-0.942c-0.684,0.199-0.982,2.067-1.701,2.202c-0.701,0.131-1.658-1.5-2.387-1.433
				c-0.71,0.065-1.352,1.845-2.085,1.845c-0.732,0-1.375-1.78-2.084-1.845c-0.729-0.067-1.686,1.564-2.387,1.433
				c-0.719-0.135-1.017-2.003-1.701-2.202c-0.703-0.204-1.959,1.21-2.619,0.942c-0.679-0.275-0.591-2.164-1.218-2.5
				c-0.646-0.347-2.177,0.763-2.76,0.356c-0.602-0.42-0.08-2.236-0.608-2.713c-0.543-0.492-2.304,0.197-2.76-0.349
				c-0.469-0.561,0.533-2.16,0.165-2.772c-0.375-0.624-2.26-0.505-2.52-1.174c-0.261-0.673,1.213-1.847,1.078-2.558
				c-0.133-0.702-1.937-1.258-1.937-1.989c0-0.732,1.803-1.288,1.937-1.99c0.135-0.711-1.339-1.885-1.078-2.559
				c0.26-0.669,2.145-0.55,2.52-1.174c0.368-0.612-0.633-2.212-0.164-2.773c0.456-0.546,2.216,0.143,2.759-0.348
				c0.527-0.477,0.006-2.293,0.607-2.712c0.583-0.407,2.114,0.703,2.76,0.357c0.627-0.337,0.539-2.225,1.218-2.5
				c0.66-0.267,1.915,1.147,2.619,0.942c0.684-0.199,0.982-2.067,1.701-2.202c0.701-0.131,1.658,1.5,2.387,1.433
				c0.71-0.065,1.353-1.844,2.085-1.844c0.732,0,1.375,1.779,2.084,1.844c0.729,0.067,1.686-1.564,2.387-1.433
				c0.72,0.135,1.017,2.003,1.701,2.202c0.703,0.204,1.959-1.21,2.619-0.942c0.679,0.275,0.591,2.164,1.218,2.5
				c0.646,0.347,2.177-0.763,2.76-0.356c0.602,0.42,0.081,2.236,0.608,2.713c0.543,0.492,2.304-0.197,2.76,0.349
				c0.469,0.561-0.533,2.16-0.165,2.772c0.375,0.624,2.26,0.505,2.52,1.174c0.261,0.673-1.213,1.847-1.078,2.558
				C321.112,270.867,322.916,271.422,322.916,272.154z"/>
			<ellipse style="fill:#FFFFFF;" cx="303.567" cy="272.154" rx="14.687" ry="11.524"/>
			<ellipse style="fill:#92E3A9;" cx="303.567" cy="272.154" rx="11.889" ry="9.328"/>
		</g>
		
			<line style="fill:none;stroke:#263238;stroke-linecap:round;stroke-linejoin:round;stroke-miterlimit:10;" x1="311.938" y1="328.29" x2="215.362" y2="328.29"/>
		
			<line style="fill:none;stroke:#263238;stroke-linecap:round;stroke-linejoin:round;stroke-miterlimit:10;" x1="184.644" y1="328.29" x2="115.438" y2="328.29"/>
		<path style="fill:none;stroke:#263238;stroke-linecap:round;stroke-linejoin:round;stroke-miterlimit:10;" d="M236.312,326.246
			c0,0,18.232-20.185,23.424-39.985c5.191-19.8-7.583-9.07-12.693,12.903c-5.11,21.972-5.11,27.593,0,23.505
			c3.978-3.183,7.956-8.223,10.488-12.229c0.72-1.139,1.323-2.195,1.776-3.1c2.044-4.088-4.599-1.533-6.132,6.643
			c-1.533,8.176,7.665-3.577,10.22-7.665c2.555-4.088,7.665-6.132,3.577,4.599c-4.088,10.731-10.22,8.687-4.599,1.533
			c5.621-7.154,11.753-21.972,12.264-13.797c0.511,8.176-1.533,17.374-5.621,19.928s7.665-11.753,11.242-10.731
			s5.11,5.11,1.533,8.176c-3.577,3.066-3.577-7.154,23.505-6.132"/>
	</g>
</g>
<g id="Character">
	<g>
		<g>
			<path style="fill:#FFFFFF;stroke:#263238;stroke-linecap:round;stroke-linejoin:round;stroke-miterlimit:10;" d="
				M300.858,298.051l14.983,12.035c0.783,0.629,0.154,1.881-0.818,1.629l-18.983-4.931L300.858,298.051z"/>
			<g>
				<path style="fill:#8C8C8C;stroke:#263238;stroke-linecap:round;stroke-linejoin:round;stroke-miterlimit:10;" d="
					M298.427,293.376l-87.642-51.89l-9.8,16.66l90.741,49.156c0.228,0.148,0.466,0.284,0.722,0.391
					c3.012,1.258,6.793-0.927,8.444-4.881C302.543,298.859,301.439,294.634,298.427,293.376z"/>
				<path style="fill:#FFFFFF;stroke:#263238;stroke-linecap:round;stroke-linejoin:round;stroke-miterlimit:10;" d="
					M213.098,252.12c-2.557,6.134-8.42,9.522-13.091,7.571c-0.452-0.19-0.876-0.434-1.274-0.705l-89.829-50.059l-7.327-4.084
					l-0.894-0.497l0.226-0.542l10.299-24.664l0.443-1.048l1.184,0.714l10.263,6.252l86.179,52.426
					C213.947,239.436,215.664,245.986,213.098,252.12z"/>
				<path style="fill:#8C8C8C;stroke:#263238;stroke-linecap:round;stroke-linejoin:round;stroke-miterlimit:10;" d="
					M208.419,236.963l-85.321-51.905l-10.263-6.252l-1.184-0.714l-0.443,1.048l-10.299,24.664l-0.226,0.542l0.894,0.497l7.327,4.084
					l87.77,48.912c4.671,1.387,10.236-2.05,12.735-8.045C211.408,245.014,210.878,239.994,208.419,236.963z"/>
				<path style="fill:#FFFFFF;stroke:#263238;stroke-linecap:round;stroke-linejoin:round;stroke-miterlimit:10;" d="
					M108.905,208.927c5.321,0.226,11.022-3.921,13.777-10.516c1.969-4.716,1.997-9.613,0.416-13.353l-10.263-6.252
					c-0.542,0.072-1.084,0.181-1.626,0.334c-4.228,1.193-8.266,4.879-10.453,10.109c-2.186,5.24-1.969,10.706,0.154,14.554
					c0.208,0.361,0.425,0.714,0.669,1.039"/>
				<path style="fill:#FFFFFF;stroke:#263238;stroke-linecap:round;stroke-linejoin:round;stroke-miterlimit:10;" d="
					M116.895,193.819l66.64,43.371c0.85,0.553,1.141,1.662,0.671,2.562l0,0c-0.522,1-1.776,1.358-2.748,0.784l-68.545-40.524
					L116.895,193.819z"/>
				<path style="fill:#8C8C8C;stroke:#263238;stroke-linecap:round;stroke-linejoin:round;stroke-miterlimit:10;" d="
					M116.171,195.397c-3.028,7.252-9.962,11.259-15.487,8.952c-5.525-2.307-7.549-10.056-4.52-17.308
					c3.028-7.252,9.962-11.26,15.487-8.952C117.176,180.397,119.2,188.146,116.171,195.397z"/>
				<path style="fill:#FFFFFF;stroke:#263238;stroke-linecap:round;stroke-linejoin:round;stroke-miterlimit:10;" d="
					M114.014,194.496c-2.375,5.688-7.814,8.832-12.148,7.022c-4.334-1.81-19.224-16.084-16.849-21.772
					c2.375-5.688,21.117-0.635,25.451,1.174C114.802,182.73,116.39,188.808,114.014,194.496z"/>
			</g>
		</g>
		<path style="fill:#FFFFFF;stroke:#263238;stroke-linecap:round;stroke-linejoin:round;stroke-miterlimit:10;" d="M254.333,288.782
			l5.403-2.521c0,0,1.801-0.18,3.422,1.081c1.621,1.261,4.682,3.242,4.682,3.242s6.123,0.36,6.303,1.261
			c0.18,0.9-3.602,1.981-4.142,1.981c-0.54,0-3.962,0-3.962,0s5.583,2.882,6.123,3.242c0.54,0.36,8.285,2.701,7.204,3.422
			s-8.285,0.54-9.905,0.9c-1.621,0.36-4.863,0.36-4.863,0.36l-6.123-5.583l-4.322-4.682
			C254.153,291.484,252.712,289.863,254.333,288.782z"/>
		<path style="fill:#FFFFFF;stroke:#263238;stroke-linecap:round;stroke-linejoin:round;stroke-miterlimit:10;" d="M118.54,224.128
			c0,0-0.36-4.863-0.36-7.204c0-2.341-1.261-6.844-1.801-7.204s-6.123-2.521-7.744-3.962c-1.621-1.441-3.602,0.54-2.882,1.801
			c0.72,1.261,4.863,3.602,4.863,3.602l-1.08,1.621l-3.962-3.422c0,0-4.142-6.484-5.223-5.943c-1.081,0.54-0.72,1.441,0,2.702
			c0.72,1.261,0.36,9.365,2.341,10.986c1.981,1.621,7.924,3.602,7.924,3.602l0.54,4.502c0,0,5.583,0.36,6.303,0.54
			C118.18,225.928,118.54,224.128,118.54,224.128z"/>
		<path style="fill:#FFFFFF;stroke:#263238;stroke-linecap:round;stroke-linejoin:round;stroke-miterlimit:10;" d="M106.654,230.971
			l0.72-4.863c0,0-0.18-1.621,3.962-2.341c4.142-0.72,7.204,0.36,7.204,0.36s0.72,0.18,0.901,1.261
			c0.18,1.081-0.54,5.223-0.54,5.223S112.417,228.09,106.654,230.971z"/>
		<g>
			<path style="fill:#92E3A9;stroke:#263238;stroke-linecap:round;stroke-linejoin:round;stroke-miterlimit:10;" d="
				M178.894,470.004v12.949c0,0,3.011,1.506,11.745,1.506c8.733,0,18.671-2.71,22.887-4.517c4.216-1.807,5.722-5.722,4.216-6.324
				c-1.506-0.602-9.034-0.903-10.54-2.108c-1.506-1.205-7.83-5.12-7.83-5.12S184.315,470.908,178.894,470.004z"/>
			<path style="fill:#FFFFFF;stroke:#263238;stroke-linecap:round;stroke-linejoin:round;stroke-miterlimit:10;" d="M218.295,474.81
				c-3.967,1.882-11.047,4.684-19.98,5.837c-10.403,1.342-16.81,0.193-19.42-0.488v2.795c0,0,3.011,1.506,11.745,1.506
				c8.733,0,18.671-2.71,22.887-4.517C216.547,478.647,218.168,476.275,218.295,474.81z"/>
		</g>
		<path style="fill:#263238;stroke:#263238;stroke-linecap:round;stroke-linejoin:round;stroke-miterlimit:10;" d="M183.411,345.632
			l1.506,4.216c0,0,6.324,12.046,10.841,20.779c4.517,8.733,9.335,27.404,10.841,29.211c1.506,1.807,1.205,4.216,0.301,6.926
			c-0.904,2.71-8.131,49.99-8.131,51.195c0,1.205-0.602,1.205,0.301,2.71c0.903,1.506,1.205,6.324,1.205,6.324
			s-2.409,2.71-7.227,3.614c-4.818,0.904-14.154,0.904-14.154,0.904s-1.205-5.722-0.904-6.625c0.301-0.904,1.205-6.625,1.205-6.625
			s3.012-14.756,2.409-22.285c-0.602-7.529,0.903-24.393,1.506-26.2c0.602-1.807,0.602-6.023,0.602-6.023l-1.807-3.313v-2.409
			c0,0-14.455-14.756-20.177-20.478c-5.722-5.722-11.443-12.648-11.443-12.648s-6.625,29.512-8.432,35.836
			c-1.807,6.324-2.71,9.034-3.915,10.841c-1.205,1.807-13.552,18.069-18.069,24.694c-4.517,6.625-11.443,18.37-11.443,18.37
			s0,3.915,0.301,5.12c0.301,1.205-3.011,5.722-3.011,5.722l-1.205,1.205c0,0-7.228-7.228-9.938-7.83
			c-2.71-0.602-8.432,0.301-8.432,0.301s3.614-9.938,4.517-12.046c0.904-2.108,9.336-23.489,11.745-27.705
			c2.409-4.216,4.216-12.648,8.432-15.961c4.216-3.313,9.034-7.227,9.034-7.227l-0.602-33.728l-0.602-9.336
			c0,0-0.903-3.313-0.903-7.228c0-3.915,0-6.023,0-6.023s27.404,6.324,40.956,5.722c13.552-0.602,21.683-4.216,21.683-4.216
			L183.411,345.632z"/>
		<g>
			<path style="fill:#92E3A9;stroke:#263238;stroke-linecap:round;stroke-linejoin:round;stroke-miterlimit:10;" d="
				M190.939,251.502c0,0-15.668-6.844-23.953-6.844c-8.284,0-12.787,0.18-21.611,0.54c-8.825,0.36-14.048,3.062-14.048,3.062
				l-12.967,4.322l1.081-23.593c0,0-4.322-1.261-8.104-0.54c-3.782,0.72-5.943,3.242-5.943,3.242s-4.863,32.057-4.683,34.939
				c0.18,2.882,3.962,3.422,3.962,3.422l29.356-0.54l-2.161,32.778l-21.972,38.18c0,0,0.18,5.943,18.19,11.886
				c18.01,5.943,40.161,3.962,47.005,2.161c6.844-1.801,17.794-9.898,18.694-11.159c0.9-1.261,0.036-7.751,0.036-10.452
				c0-2.701-4.502-28.275-3.782-29.536c0.72-1.261,4.683-18.19,4.683-18.19s36.559,23.773,38.721,23.413
				c2.161-0.36,24.133-11.166,24.673-11.526c0.54-0.36,1.981-2.341-0.18-5.583c-2.161-3.242-5.943-3.782-7.024-3.782
				c-1.081,0-15.848,1.261-15.848,1.261s-18.55-16.389-19.09-17.289c-0.54-0.901-3.422-8.465-4.682-10.446
				C210.029,259.246,190.939,251.502,190.939,251.502z"/>
			<path style="fill:#92E3A9;stroke:#263238;stroke-linecap:round;stroke-linejoin:round;stroke-miterlimit:10;" d="
				M235.063,288.962c0,0,5.913,3.371,7.093,5.435"/>
			<path style="fill:#92E3A9;stroke:#263238;stroke-linecap:round;stroke-linejoin:round;stroke-miterlimit:10;" d="M211.29,261.227
				c0,0-5.406,0.437-11.009,6.335"/>
			<path style="fill:#92E3A9;stroke:#263238;stroke-linecap:round;stroke-linejoin:round;stroke-miterlimit:10;" d="
				M199.102,263.729c0,0-5.013,2.359-6.193,8.847"/>
			<polyline style="fill:none;stroke:#263238;stroke-linecap:round;stroke-linejoin:round;stroke-miterlimit:10;" points="
				134.029,269.512 133.488,256.005 134.029,269.512 			"/>
			<g>
				<polyline style="fill:none;stroke:#263238;stroke-linecap:round;stroke-linejoin:round;stroke-miterlimit:10;" points="
					186.192,290.972 194.721,285.18 180.854,289.503 				"/>
				
					<line style="fill:none;stroke:#263238;stroke-linecap:round;stroke-linejoin:round;stroke-miterlimit:10;" x1="180.133" y1="295.086" x2="183.077" y2="293.087"/>
				<path style="fill:none;stroke:#263238;stroke-linecap:round;stroke-linejoin:round;stroke-miterlimit:10;" d="M179.287,253.548
					c-2.829,1.039-6.118,2.699-9.059,5.339c-7.024,6.303-10.806,5.763-10.806,5.763"/>
				<path style="fill:none;stroke:#263238;stroke-linecap:round;stroke-linejoin:round;stroke-miterlimit:10;" d="M186.257,251.862
					c0,0-1.247,0.1-3.174,0.55"/>
				<path style="fill:none;stroke:#263238;stroke-linecap:round;stroke-linejoin:round;stroke-miterlimit:10;" d="M169.148,256.365
					c0,0-5.763,5.403-11.886,7.924"/>
				<path style="fill:none;stroke:#263238;stroke-linecap:round;stroke-linejoin:round;stroke-miterlimit:10;" d="M105.725,255.842
					c-0.674,0.927-1.108,1.829-1.052,2.503"/>
				<path style="fill:none;stroke:#263238;stroke-linecap:round;stroke-linejoin:round;stroke-miterlimit:10;" d="M118.36,252.583
					l-2.521,0.18c0,0-3.242-1.441-4.863-1.261c-0.648,0.072-1.814,0.835-2.969,1.863"/>
				<path style="fill:none;stroke:#263238;stroke-linecap:round;stroke-linejoin:round;stroke-miterlimit:10;" d="M107.374,251.862
					c0,0-3.242,1.261-3.782,4.142"/>
				<path style="fill:#92E3A9;stroke:#263238;stroke-linecap:round;stroke-linejoin:round;stroke-miterlimit:10;" d="
					M190.039,303.37c0,0-2.546,17.296-3.691,22.635c-1.144,5.339-2.67,18.497-2.67,18.497s2.86-1.144,5.911-1.526
					c3.051-0.381,4.195,0.381,4.195,0.381s2.288-5.53,0-15.064C191.497,318.759,190.039,303.37,190.039,303.37z"/>
			</g>
		</g>
		<g>
			<path style="fill:#92E3A9;stroke:#263238;stroke-linecap:round;stroke-linejoin:round;stroke-miterlimit:10;" d="
				M104.511,466.692c0,0,1.205,5.722,2.409,6.324c1.205,0.602,6.926,1.807,7.529,3.313c0.602,1.506-5.421,4.216-9.336,4.818
				c-3.915,0.602-10.841-0.903-11.745-1.506c-0.903-0.602-3.011-3.614-5.722-4.517c-2.71-0.903-6.023-2.108-5.421-5.722
				c0.602-3.614,3.915-10.239,3.915-10.239s5.722-2.108,12.347,0.301C105.114,461.874,104.511,466.692,104.511,466.692z"/>
			<path style="fill:#FFFFFF;stroke:#263238;stroke-linecap:round;stroke-linejoin:round;stroke-miterlimit:10;" d="
				M105.114,481.147c3.915-0.602,9.938-3.313,9.336-4.818c-0.05-0.124-0.145-0.245-0.258-0.365
				c-2.931,0.998-6.533,1.549-9.837-0.286c-4.066-2.259-5.421-7.228-10.842-9.035c-3.155-1.052-7.371-0.878-10.353-0.55
				c-0.425,1.194-0.774,2.357-0.933,3.309c-0.602,3.614,2.71,4.818,5.421,5.722c2.71,0.903,4.818,3.915,5.722,4.517
				C94.272,480.243,101.199,481.749,105.114,481.147z"/>
			<path style="fill:#263238;stroke:#263238;stroke-linecap:round;stroke-linejoin:round;stroke-miterlimit:10;" d="
				M103.307,479.039c-3.312-1.506-6.324-5.421-11.142-8.432c-4.407-2.754-9.053,0.278-9.817,0.817
				c0.689,2.094,3.175,2.992,5.299,3.701c2.71,0.904,4.818,3.915,5.722,4.517c0.904,0.602,7.83,2.108,11.745,1.506
				c0.732-0.113,1.538-0.299,2.361-0.538C105.952,480.125,104.464,479.565,103.307,479.039z"/>
		</g>
		<path style="fill:#FFFFFF;stroke:#263238;stroke-linecap:round;stroke-linejoin:round;stroke-miterlimit:10;" d="M194.001,246.64
			l-5.403,3.782c0,0-7.024-4.682-11.886-5.583c-4.863-0.9-7.384-1.081-7.384-1.081l3.782-6.663c0,0,4.502-3.062,6.123-7.924
			c1.621-4.863,3.242-6.844,6.844-5.043c3.602,1.801,5.043,9.005,5.043,13.507C191.119,242.137,194.001,246.64,194.001,246.64z"/>
		<g>
			<path style="fill:#FFFFFF;stroke:#263238;stroke-linecap:round;stroke-linejoin:round;stroke-miterlimit:10;" d="
				M197.063,213.502c0,0,3.062,4.502,3.422,6.123c0.36,1.621-1.261,4.863-1.261,4.863s3.602,5.223,3.782,6.484
				c0.18,1.261-2.161,3.602-2.161,3.602s0.54,5.223,1.261,6.483c0.72,1.261,1.441,3.062,0.54,4.683
				c-0.9,1.621-2.161,2.701-5.943,3.242c-3.782,0.54-6.844-1.261-7.564-5.043c-0.72-3.782-0.72-11.886-1.261-12.967
				c-0.54-1.081-3.062-3.602-4.322-1.621c-1.261,1.981-0.36,3.962,0.54,5.763c0.9,1.801,2.521,2.521,2.521,2.521
				s-2.161,1.081-3.962,1.981c-1.801,0.9-5.043,1.261-7.564,0.36c-2.521-0.9-3.782-3.242-3.962-3.782s-1.981-5.043-2.521-5.943
				c-0.54-0.9-4.322-6.303-4.502-12.607c-0.18-6.303,7.384-13.507,17.109-15.488c9.725-1.981,14.228,2.341,16.389,2.521
				c2.161,0.18,0-1.801,1.801-0.54C201.205,205.398,201.565,212.421,197.063,213.502z"/>
			<path style="fill:#263238;stroke:#263238;stroke-linecap:round;stroke-linejoin:round;stroke-miterlimit:10;" d="
				M200.845,234.573c0,0,0.198-0.2,0.472-0.508c-0.729,0.095-2.918,0.392-4.255,0.689c-1.621,0.36-2.341,5.223-3.782,3.962
				c-1.441-1.261-2.161-11.886-2.521-12.427c-0.36-0.54,1.261-2.341,1.261-2.341s2.521-3.422,2.521-4.863
				c0-1.441-2.521-3.062-1.621-3.422c0.901-0.36,4.142-2.161,4.142-2.161c4.502-1.081,4.142-8.104,2.341-9.365
				c-1.801-1.261,0.36,0.72-1.801,0.54c-2.161-0.18-6.663-4.502-16.389-2.521c-9.725,1.981-17.289,9.185-17.109,15.488
				c0.18,6.303,3.962,11.706,4.502,12.607c0.54,0.901,2.341,5.403,2.521,5.943s1.441,2.882,3.962,3.782
				c2.521,0.9,5.763,0.54,7.564-0.36c1.801-0.9,3.962-1.981,3.962-1.981s-1.621-0.72-2.521-2.521c-0.9-1.801-1.801-3.782-0.54-5.763
				c1.261-1.981,3.782,0.54,4.322,1.621c0.54,1.081,0.54,9.185,1.261,12.967c0.72,3.782,3.782,5.583,7.564,5.043
				c3.782-0.54,5.043-1.621,5.943-3.242c0.901-1.621,0.18-3.422-0.54-4.683C201.385,239.796,200.845,234.573,200.845,234.573z"/>
			<path style="fill:none;stroke:#263238;stroke-linecap:round;stroke-linejoin:round;stroke-miterlimit:10;" d="M199.944,221.246
				c0,0-1.801,0-2.341,1.441"/>
			<ellipse style="fill:#263238;" cx="198.503" cy="225.388" rx="0.72" ry="1.981"/>
			<path style="fill:none;stroke:#FFFFFF;stroke-linecap:round;stroke-linejoin:round;stroke-miterlimit:10;" d="M201.205,239.076
				c0,0-3.062,1.081-4.322-1.081"/>
		</g>
		<path style="fill:#92E3A9;stroke:#263238;stroke-linecap:round;stroke-linejoin:round;stroke-miterlimit:10;" d="M166.986,244.658
			c8.284,0,23.953,6.844,23.953,6.844s0.221,0.09,0.6,0.245c-0.189-0.703-0.574-1.969-0.96-2.226
			c-0.54-0.36-3.422-4.502-8.825-6.664c-5.403-2.161-9.725-2.341-11.166-2.341c-1.268,0-4.902,3.343-5.758,4.147
			C165.525,244.661,166.236,244.658,166.986,244.658z"/>
	</g>
</g>
</svg>
