<svg xmlns="http://www.w3.org/2000/svg" width="22.741" height="31.512" viewBox="0 0 22.741 31.512">
  <g id="Group_2634" data-name="Group 2634" transform="translate(-169.121 -2272.521)">
    <path id="Path_15031" data-name="Path 15031" d="M201.618,74.251H182.754a1.457,1.457,0,0,1-1.454-1.457V45.209a1.457,1.457,0,0,1,1.457-1.457H196.7a6.337,6.337,0,0,1,6.337,6.325V72.8a1.457,1.457,0,0,1-1.423,1.457ZM182.754,44.883a.327.327,0,0,0-.328.328V72.794a.327.327,0,0,0,.328.328h18.865a.327.327,0,0,0,.328-.328V50.074a5.208,5.208,0,0,0-5.242-5.191Z" transform="translate(-11.679 2229.269)" fill="#fff" stroke="#fff" stroke-width="1"/>
    <path id="Path_15032" data-name="Path 15032" d="M261.039,193.63H249.064a.565.565,0,1,1,0-1.13h11.974a.565.565,0,1,1,0,1.13Z" transform="translate(-74.544 2090.122)" fill="#fff" stroke="#fff" stroke-width="1"/>
    <path id="Path_15033" data-name="Path 15033" d="M260.87,272.383H248.884a.565.565,0,0,1,0-1.13H260.87a.565.565,0,0,1,0,1.13Z" transform="translate(-74.376 2016.455)" fill="#fff" stroke="#fff" stroke-width="1"/>
    <path id="Path_15034" data-name="Path 15034" d="M261.039,114.883H249.064a.565.565,0,1,1,0-1.13h11.974a.565.565,0,1,1,0,1.13Z" transform="translate(-74.544 2163.789)" fill="#fff" stroke="#fff" stroke-width="1"/>
    <path id="Path_15035" data-name="Path 15035" d="M277.687,386.587h-.937l-.248-.711h-1.3l-.248.711h-.9l1.287-3.513h1.05Zm-1.4-1.355-.429-1.254-.44,1.254Z" transform="translate(-98.445 1911.849)" fill="#fff"/>
    <path id="Path_15036" data-name="Path 15036" d="M340.837,384.183a1.287,1.287,0,0,1-.078.463,1.227,1.227,0,0,1-.234.384,1.536,1.536,0,0,1-1.13.418h-.564v1.13h-.9v-3.5h1.491a2.578,2.578,0,0,1,.564.056,1.348,1.348,0,0,1,.407.181.881.881,0,0,1,.327.351,1.127,1.127,0,0,1,.124.52Zm-.937,0a.418.418,0,0,0-.078-.26.488.488,0,0,0-.192-.147.782.782,0,0,0-.272-.056h-.52v1.05h.644a.563.563,0,0,0,.248-.113.507.507,0,0,0,.135-.181.9.9,0,0,0,.034-.271Z" transform="translate(-158.195 1911.848)" fill="#fff"/>
    <path id="Path_15037" data-name="Path 15037" d="M392.657,386.75H390.6v-.625h.576v-2.26H390.6v-.625h2.056v.625h-.572v2.26h.576Z" transform="translate(-207.474 1911.687)" fill="#fff"/>
  </g>
</svg>
