<svg xmlns="http://www.w3.org/2000/svg" width="30.21" height="33.704" viewBox="0 0 30.21 33.704">
  <g id="Group_2626" data-name="Group 2626" transform="translate(-280.846 -1852.421)">
    <path id="Path_15019" data-name="Path 15019" d="M356.352,327.792a3.782,3.782,0,0,1-1.888-.5l-11.327-6.541a3.782,3.782,0,0,1-1.887-3.269V304.4a3.781,3.781,0,0,1,1.889-3.269l11.326-6.54a3.794,3.794,0,0,1,3.777,0l11.327,6.54a3.783,3.783,0,0,1,1.887,3.269v13.08a3.781,3.781,0,0,1-1.889,3.269l-11.326,6.54a3.786,3.786,0,0,1-1.887.5Zm0-31.189a1.242,1.242,0,0,0-.629.167L344.4,303.31a1.26,1.26,0,0,0-.629,1.087V317.48a1.261,1.261,0,0,0,.628,1.087l11.328,6.54a1.255,1.255,0,0,0,1.254,0l11.327-6.54a1.26,1.26,0,0,0,.629-1.087V304.4a1.261,1.261,0,0,0-.628-1.087l-11.328-6.54a1.254,1.254,0,0,0-.629-.167Z" transform="translate(-60.4 1558.333)" fill="#fff"/>
    <path id="Path_15020" data-name="Path 15020" d="M356.343,360.067a1.255,1.255,0,0,1-.6-.154L341.9,352.361a1.259,1.259,0,1,1,1.206-2.209l13.844,7.552a1.254,1.254,0,0,1-.6,2.363Z" transform="translate(-60.396 1510.464)" fill="#fff"/>
    <path id="Path_15021" data-name="Path 15021" d="M438.757,360.067a1.254,1.254,0,0,1-.6-2.363L452,350.152a1.259,1.259,0,1,1,1.206,2.209l-13.844,7.552A1.254,1.254,0,0,1,438.757,360.067Z" transform="translate(-142.804 1510.464)" fill="#fff"/>
  </g>
</svg>
