<svg xmlns="http://www.w3.org/2000/svg" width="37.047" height="27.262" viewBox="0 0 37.047 27.262">
  <path id="Path_15030" data-name="Path 15030" d="M40.167,40.383a.915.915,0,0,1,.91.82l0,.093v9.954a8.376,8.376,0,0,1,2.584,1.211l.169,1.141a.934.934,0,0,0,.787.787l1.141.169a8.366,8.366,0,0,1,1.377,3.323l-.685.927a.934.934,0,0,0,0,1.113l.685.927a8.367,8.367,0,0,1-1.377,3.323l-1.141.169a.934.934,0,0,0-.787.787l-.169,1.141a8.366,8.366,0,0,1-3.323,1.377l-.927-.685a.934.934,0,0,0-1.113,0l-.927.685a8.367,8.367,0,0,1-3.323-1.377l-.169-1.141a.934.934,0,0,0-.787-.787l-1.141-.169a8.367,8.367,0,0,1-1.377-3.323l.685-.927a.934.934,0,0,0,0-1.113l-.685-.927a8.367,8.367,0,0,1,1.377-3.323l1.141-.169a.934.934,0,0,0,.787-.789l.169-1.141a8.366,8.366,0,0,1,3.323-1.377l.927.685a.934.934,0,0,0,.949.1V47.477H11.92v15.4H27.2a.915.915,0,0,1,.093,1.825l-.093,0H11a.915.915,0,0,1-.906-.822l0-.093V41.3a.915.915,0,0,1,.821-.91l.093,0Zm.592,12.72-.23.171a2.8,2.8,0,0,1-3.338,0l-.23-.171a6.493,6.493,0,0,0-1.184.492l-.042.283a2.8,2.8,0,0,1-2.36,2.36l-.283.042a6.509,6.509,0,0,0-.492,1.184l.171.23a2.8,2.8,0,0,1,0,3.338l-.171.23a6.507,6.507,0,0,0,.492,1.184l.283.042a2.8,2.8,0,0,1,2.36,2.36l.042.283a6.509,6.509,0,0,0,1.184.492l.23-.171a2.8,2.8,0,0,1,3.338,0l.23.171a6.507,6.507,0,0,0,1.184-.492l.042-.283a2.8,2.8,0,0,1,2.36-2.36l.283-.042a6.494,6.494,0,0,0,.492-1.184l-.171-.23a2.8,2.8,0,0,1,0-3.338l.171-.23a6.493,6.493,0,0,0-.492-1.184l-.283-.042a2.8,2.8,0,0,1-2.36-2.36l-.042-.283a6.494,6.494,0,0,0-1.184-.493Zm-1.9,2.5A3.764,3.764,0,1,1,35.1,59.365,3.764,3.764,0,0,1,38.859,55.6Zm0,1.882a1.882,1.882,0,1,0,1.882,1.882A1.882,1.882,0,0,0,38.859,57.483Zm-12-6.079a.915.915,0,0,1,.915.915v6.427a.915.915,0,0,1-.915.915H16.077a.915.915,0,0,1-.915-.915V52.319a.915.915,0,0,1,.915-.915Zm-.916,1.83H16.992v4.6h8.947Zm13.313-11.02H11.92v3.434H39.252Z" transform="translate(-10.092 -40.383)" fill="#fff"/>
</svg>
