<svg xmlns="http://www.w3.org/2000/svg" width="47.397" height="27.236" viewBox="0 0 47.397 27.236">
  <g id="Group_104500" data-name="Group 104500" transform="translate(-2786.08 -8938)">
    <path id="Path_74651" data-name="Path 74651" d="M116.052,137.857a2.136,2.136,0,0,0-3.021.086l-10.837,11.478a2.136,2.136,0,0,0,0,2.934l10.837,11.484a2.137,2.137,0,0,0,3.109-2.933l-9.452-10.016,9.452-10.009a2.138,2.138,0,0,0-.086-3.022Zm32.373,11.57-10.838-11.484a2.137,2.137,0,1,0-3.109,2.934l9.452,10.016L134.48,160.9a2.137,2.137,0,1,0,3.107,2.934l10.838-11.477a2.137,2.137,0,0,0,0-2.934Zm-18-11.861a2.137,2.137,0,0,0-2.761,1.23l-8.7,22.66a2.137,2.137,0,1,0,3.99,1.532l8.7-22.66a2.137,2.137,0,0,0-1.23-2.761Z" transform="translate(2684.469 8800.728)" fill="#fff"/>
  </g>
</svg>
