<svg xmlns="http://www.w3.org/2000/svg" width="32.409" height="32.402" viewBox="0 0 32.409 32.402">
  <g id="Group_2625" data-name="Group 2625" transform="translate(-1376.218 -1432.618)">
    <path id="Path_15007" data-name="Path 15007" d="M101.629,281.666H75.836V269.787l7.466-4.955V268.9l6.109-4.072V268.9l6.109-4.072V268.9l6.109-4.072Zm-24.436-1.357h23.078V267.343l-6.108,4.073v-4.073l-6.109,4.072v-4.072l-6.11,4.073v-4.073l-4.751,3.19Z" transform="translate(1300.632 1183.104)" fill="#fff" stroke="#fff" stroke-width="0.5"/>
    <path id="Path_15008" data-name="Path 15008" d="M503.306,37.742H495.84V26.2l1.5-20.363h4.48l1.5,20.295ZM497.2,36.384h4.751V26.2L500.524,7.2h-1.97L497.129,26.27Z" transform="translate(905.064 1427.028)" fill="#fff" stroke="#fff" stroke-width="0.5"/>
    <path id="Path_15009" data-name="Path 15009" d="M122.5,390.83h2.037v1.357H122.5Z" transform="translate(1256.683 1064.436)" fill="#fff" stroke="#fff" stroke-width="0.5"/>
    <path id="Path_15010" data-name="Path 15010" d="M227.5,390.83h2.037v1.357H227.5Z" transform="translate(1157.792 1064.436)" fill="#fff" stroke="#fff" stroke-width="0.5"/>
    <path id="Path_15011" data-name="Path 15011" d="M332.5,390.83h2.036v1.357H332.5Z" transform="translate(1058.901 1064.436)" fill="#fff" stroke="#fff" stroke-width="0.5"/>
    <path id="Path_15012" data-name="Path 15012" d="M437.5,390.83h2.036v1.357H437.5Z" transform="translate(960.01 1064.436)" fill="#fff" stroke="#fff" stroke-width="0.5"/>
  </g>
</svg>
