<svg xmlns="http://www.w3.org/2000/svg" width="37.218" height="34.12" viewBox="0 0 37.218 34.12">
  <g id="Group_2616" data-name="Group 2616" transform="translate(53 -130.996)">
    <path id="Path_2756" data-name="Path 2756" d="M-24.828,137.607a1.154,1.154,0,0,1-.766-.288,16.031,16.031,0,0,0-10.567-3.992,15.9,15.9,0,0,0-10.069,3.614,1.164,1.164,0,0,1-1.638-.162,1.165,1.165,0,0,1,.161-1.637A18.242,18.242,0,0,1-36.165,131a18.357,18.357,0,0,1,12.1,4.569,1.164,1.164,0,0,1,.107,1.642,1.166,1.166,0,0,1-.873.4Zm0,0" transform="translate(1.773 0)" fill="#fff"/>
    <path id="Path_2757" data-name="Path 2757" d="M-43.414,137.2h-3.877a1.164,1.164,0,0,1-1.164-1.164v-3.877a1.167,1.167,0,0,1,.718-1.074,1.162,1.162,0,0,1,1.268.252l3.877,3.877a1.165,1.165,0,0,1,.252,1.268,1.164,1.164,0,0,1-1.074.718Zm0,0" transform="translate(1.657)" fill="#fff"/>
    <path id="Path_2758" data-name="Path 2758" d="M-35.887,157.766a18.351,18.351,0,0,1-12.1-4.569,1.163,1.163,0,0,1-.107-1.642,1.165,1.165,0,0,1,1.642-.107,16.019,16.019,0,0,0,10.567,3.992,15.906,15.906,0,0,0,10.07-3.612,1.161,1.161,0,0,1,.852-.26,1.161,1.161,0,0,1,.785.421,1.163,1.163,0,0,1-.161,1.637,18.245,18.245,0,0,1-11.546,4.14Zm0,0" transform="translate(1.682 7.35)" fill="#fff"/>
    <path id="Path_2759" data-name="Path 2759" d="M-29.778,157.657a1.153,1.153,0,0,1-.822-.341l-3.877-3.877a1.166,1.166,0,0,1-.254-1.266,1.166,1.166,0,0,1,1.075-.718h3.877a1.162,1.162,0,0,1,1.162,1.162v3.877a1.164,1.164,0,0,1-.718,1.074,1.181,1.181,0,0,1-.445.087Zm0,0" transform="translate(6.63 7.459)" fill="#fff"/>
    <path id="Path_2760" data-name="Path 2760" d="M-42.4,141.7a3.877,3.877,0,0,1-1.135,2.744,3.877,3.877,0,0,1-2.743,1.136,3.877,3.877,0,0,1-3.877-3.877,3.877,3.877,0,0,1,3.877-3.877,3.877,3.877,0,0,1,3.877,3.877Zm0,0" transform="translate(1.036 2.485)" fill="#fff"/>
    <path id="Path_2761" data-name="Path 2761" d="M-41.757,144.636h-6.979A4.269,4.269,0,0,0-53,148.9v.776a1.163,1.163,0,0,0,1.162,1.162h13.181a1.164,1.164,0,0,0,1.164-1.162V148.9a4.27,4.27,0,0,0-4.264-4.264Zm0,0" transform="translate(0 4.972)" fill="#fff"/>
    <path id="Path_2762" data-name="Path 2762" d="M-26.5,141.695a3.877,3.877,0,0,1-3.877,3.877,3.877,3.877,0,0,1-3.877-3.877,3.877,3.877,0,0,1,3.877-3.877,3.877,3.877,0,0,1,3.877,3.877Zm0,0" transform="translate(6.838 2.486)" fill="#fff"/>
    <path id="Path_2763" data-name="Path 2763" d="M-25.848,144.636h-6.979a4.269,4.269,0,0,0-4.264,4.264v.776a1.163,1.163,0,0,0,1.162,1.162h13.181a1.164,1.164,0,0,0,1.164-1.162V148.9a4.27,4.27,0,0,0-4.264-4.264Zm0,0" transform="translate(5.801 4.972)" fill="#fff"/>
  </g>
</svg>
