<svg xmlns="http://www.w3.org/2000/svg" xmlns:xlink="http://www.w3.org/1999/xlink" width="36.667" height="36.676" viewBox="0 0 36.667 36.676">
  <defs>
    <clipPath id="clip-path">
      <rect id="Rectangle_1609" data-name="Rectangle 1609" width="36.667" height="36.676" fill="#fff"/>
    </clipPath>
  </defs>
  <g id="Group_2632" data-name="Group 2632" clip-path="url(#clip-path)">
    <path id="Path_15025" data-name="Path 15025" d="M28.755,45.809c1.235-1.288,2.439-2.608,3.722-3.849a1.651,1.651,0,0,0,.545-1.9,3.31,3.31,0,0,1-.09-2.548c.761-1.523.047-2.417-1-3.384-1.312-1.21-2.514-2.538-3.763-3.817l2.136-2.136c1.495,1.466,3.013,2.91,4.473,4.409a1.554,1.554,0,0,0,1.983.537,3.266,3.266,0,0,1,2.538-.262c1.565.683,2.453-.11,3.41-1.14s2.057-1.976,3.092-2.961l2.349,1.784c-1.313,1.36-2.6,2.744-3.951,4.067a1.3,1.3,0,0,0-.365,1.723,4.924,4.924,0,0,1,.144,4.018,1.523,1.523,0,0,0,.468,1.893c1.06,1.032,2.058,2.129,3.082,3.2a10.4,10.4,0,0,0-2.089,2.09c-1.069-1.025-2.166-2.023-3.2-3.083a1.51,1.51,0,0,0-1.892-.466,4.431,4.431,0,0,1-3.722-.045c-1.1-.548-1.649-.129-2.343.592-1.206,1.248-2.49,2.421-3.741,3.625l-1.785-2.347M41.1,38.495a2.567,2.567,0,0,0-2.623-2.612,2.847,2.847,0,0,0-2.595,2.569A2.561,2.561,0,0,0,38.464,41.1a2.707,2.707,0,0,0,2.635-2.61" transform="translate(-19.507 -19.511)" fill="#fff"/>
    <path id="Path_15026" data-name="Path 15026" d="M10.805,8.665,8.669,10.8c-3.679,1.055-5.894.556-7.551-1.7A5.719,5.719,0,0,1,8.463.7a5.648,5.648,0,0,1,2.721,6.65c-.131.437-.254.878-.376,1.317M3.116,5.5a2.6,2.6,0,1,0,.919-1.785A2.623,2.623,0,0,0,3.116,5.5" transform="translate(-0.007 -0.001)" fill="#fff"/>
    <path id="Path_15027" data-name="Path 15027" d="M85.675,11.037,83.323,9.252c-1.678-3.7-1.178-6.477,1.489-8.277a5.693,5.693,0,0,1,7.066.557,5.827,5.827,0,0,1,1.106,7.022A5.715,5.715,0,0,1,86.42,11.2c-.245-.069-.5-.113-.748-.169m4.907-5.259A2.547,2.547,0,0,0,88.035,3.1a2.618,2.618,0,0,0-.1,5.235,2.55,2.55,0,0,0,2.651-2.56" transform="translate(-57.032 -0.001)" fill="#fff"/>
    <path id="Path_15028" data-name="Path 15028" d="M9.25,83.13l1.785,2.347c1.636,4.782-1.969,8.072-5.274,8.03a5.881,5.881,0,0,1-5.337-3.47,5.922,5.922,0,0,1,1.32-6.369A5.758,5.758,0,0,1,8,82.539c.423.184.829.393,1.244.592m-.91,4.653a2.623,2.623,0,1,0-5.238.033,2.551,2.551,0,0,0,2.644,2.569,2.549,2.549,0,0,0,2.6-2.611" transform="translate(-0.001 -56.832)" fill="#fff"/>
    <path id="Path_15029" data-name="Path 15029" d="M82.795,85.063a10.412,10.412,0,0,1,2.089-2.09c3.807-1.376,6.782-.386,8.151,2.717a5.782,5.782,0,0,1-1.483,6.684,5.874,5.874,0,0,1-6.853.415,5.668,5.668,0,0,1-2.382-6.281c.133-.49.317-.966.478-1.449m7.623,2.972a2.552,2.552,0,0,0-2.563-2.661,2.635,2.635,0,0,0-2.661,2.585,2.552,2.552,0,0,0,2.589,2.638,2.515,2.515,0,0,0,2.635-2.562" transform="translate(-56.863 -57.039)" fill="#fff"/>
  </g>
</svg>
